<svg width="123" height="93" viewBox="0 0 123 93" fill="none" xmlns="http://www.w3.org/2000/svg">
<path d="M9.33789 20.5835H28.3399C29.335 20.5835 30.1417 19.777 30.1417 18.7817C30.1417 17.7864 29.335 16.98 28.3399 16.98H9.33789C8.34284 16.98 7.53613 17.7864 7.53613 18.7817C7.53613 19.777 8.3426 20.5835 9.33789 20.5835Z" fill="#F9E547"/>
<path d="M27.689 29.2577H20.1826C19.1876 29.2577 18.3809 30.0642 18.3809 31.0594C18.3809 32.0547 19.1876 32.8612 20.1826 32.8612H27.689C28.684 32.8612 29.4907 32.0547 29.4907 31.0594C29.4907 30.0642 28.684 29.2577 27.689 29.2577Z" fill="#F9E547"/>
<path d="M1.80176 41.7522H20.1826C21.1776 41.7522 21.9843 40.9457 21.9843 39.9504C21.9843 38.9551 21.1776 38.1487 20.1826 38.1487H1.80176C0.806707 38.1487 0 38.9551 0 39.9504C0 40.9457 0.806707 41.7522 1.80176 41.7522Z" fill="#F9E547"/>
<path d="M30.1417 73.6943C30.1417 72.699 29.335 71.8926 28.3399 71.8926H9.33789C8.34284 71.8926 7.53613 72.699 7.53613 73.6943C7.53613 74.6896 8.34284 75.4961 9.33789 75.4961H28.3399C29.335 75.4961 30.1417 74.6896 30.1417 73.6943Z" fill="#F9E547"/>
<path d="M27.689 59.6151H20.1826C19.1876 59.6151 18.3809 60.4216 18.3809 61.4169C18.3809 62.4122 19.1876 63.2186 20.1826 63.2186H27.689C28.684 63.2186 29.4907 62.4122 29.4907 61.4169C29.4907 60.4216 28.684 59.6151 27.689 59.6151Z" fill="#F9E547"/>
<path d="M21.9843 52.5259C21.9843 51.5306 21.1776 50.7241 20.1826 50.7241H1.80176C0.806707 50.7241 0 51.5306 0 52.5259C0 53.5212 0.806707 54.3276 1.80176 54.3276H20.1826C21.1776 54.3276 21.9843 53.5212 21.9843 52.5259Z" fill="#F9E547"/>
<path d="M76.7617 24.5763C77.757 24.5763 78.5635 23.7698 78.5635 22.7745V20.0243C78.5635 19.029 77.757 18.2225 76.7617 18.2225C75.7664 18.2225 74.96 19.029 74.96 20.0243V22.7745C74.96 23.7698 75.7664 24.5763 76.7617 24.5763Z" fill="#F9E547"/>
<path d="M96.5723 26.4279C95.8685 25.7245 94.7278 25.7245 94.0242 26.4279L92.0795 28.3726C91.3758 29.0765 91.3758 30.2172 92.0795 30.9208C92.7836 31.6245 93.924 31.6242 94.6277 30.9208L96.5723 28.9761C97.2758 28.2725 97.2758 27.1318 96.5723 26.4279Z" fill="#F9E547"/>
<path d="M100.226 44.4364C99.2303 44.4364 98.4238 45.2429 98.4238 46.2382C98.4238 47.2335 99.2303 48.0399 100.226 48.0399H102.976C103.971 48.0399 104.777 47.2335 104.777 46.2382C104.777 45.2429 103.971 44.4364 102.976 44.4364H100.226Z" fill="#F9E547"/>
<path d="M94.6277 61.5553C93.9238 60.8519 92.7831 60.8519 92.0795 61.5553C91.3758 62.2592 91.3758 63.3998 92.0795 64.1034L94.0242 66.0481C94.7283 66.7518 95.8687 66.7515 96.5724 66.0481C97.276 65.3442 97.276 64.2036 96.5724 63.5L94.6277 61.5553Z" fill="#F9E547"/>
<path d="M74.96 69.7019V72.4519C74.96 73.4472 75.7664 74.2536 76.7617 74.2536C77.757 74.2536 78.5635 73.4472 78.5635 72.4519V69.7019C78.5635 68.7066 77.757 67.9001 76.7617 67.9001C75.7664 67.9001 74.96 68.7069 74.96 69.7019Z" fill="#F9E547"/>
<path d="M58.8963 61.5553L56.9516 63.5C56.2479 64.2039 56.2479 65.3445 56.9516 66.0481C57.6554 66.7518 58.7961 66.7515 59.4995 66.0481L61.4442 64.1034C62.1478 63.3995 62.1478 62.2589 61.4442 61.5553C60.7408 60.8519 59.5999 60.8519 58.8963 61.5553Z" fill="#F9E547"/>
<path d="M50.5479 44.4364C49.5528 44.4364 48.7461 45.2429 48.7461 46.2382C48.7461 47.2335 49.5528 48.0399 50.5479 48.0399H53.2981C54.2931 48.0399 55.0998 47.2335 55.0998 46.2382C55.0998 45.2429 54.2931 44.4364 53.2981 44.4364H50.5479Z" fill="#F9E547"/>
<path d="M61.4442 28.3726L59.4995 26.4279C58.7958 25.7245 57.655 25.7245 56.9516 26.4279C56.2479 27.1318 56.2479 28.2725 56.9516 28.9761L58.8963 30.9208C59.6001 31.6245 60.7408 31.6242 61.4442 30.9208C62.1478 30.2172 62.1478 29.0765 61.4442 28.3726Z" fill="#F9E547"/>
<path d="M86.4504 46.2382C86.4504 45.2429 85.6439 44.4364 84.6486 44.4364H78.5635V31.0592C78.5635 30.0639 77.757 29.2574 76.7617 29.2574C75.7664 29.2574 74.96 30.0639 74.96 31.0592V46.2382C74.96 47.2335 75.7664 48.0399 76.7617 48.0399H84.6486C85.6437 48.0399 86.4504 47.2335 86.4504 46.2382Z" fill="#F9E547"/>
<path d="M110.926 45.9407C111.919 45.8804 112.676 45.0264 112.615 44.0333C111.469 25.1261 95.7204 10.3154 76.7616 10.3154C56.9538 10.3154 40.8389 26.4304 40.8389 46.2384C40.8389 66.0462 56.9538 82.1611 76.7616 82.1611C94.5075 82.1611 109.65 69.1592 112.284 51.6136C112.432 50.6296 111.754 49.7122 110.769 49.5644C109.788 49.4172 108.868 50.0944 108.72 51.0789C106.354 66.8416 92.7432 78.5578 76.7616 78.5578C58.9408 78.5578 44.4424 64.0595 44.4424 46.2386C44.4424 28.4178 58.9408 13.9192 76.7616 13.9192C93.8185 13.9192 107.987 27.2428 109.018 44.2519C109.078 45.2445 109.932 45.9984 110.926 45.9407Z" fill="#F9E547"/>
<path d="M76.7621 0C70.4244 0 64.2151 1.3148 58.4999 3.7736H26.71C25.7149 3.7736 24.9082 4.58007 24.9082 5.57536C24.9082 6.57065 25.7149 7.37712 26.71 7.37712H51.7215C48.3397 9.55364 45.2265 12.1789 42.4816 15.2097C41.8137 15.947 41.87 17.0864 42.6075 17.7545C43.3452 18.4226 44.4842 18.3662 45.1525 17.6286C53.2249 8.71546 64.7463 3.60352 76.7621 3.60352C100.271 3.60352 119.397 22.7293 119.397 46.2382C119.397 69.7468 100.271 88.8728 76.7621 88.8728C53.2532 88.8728 34.1274 69.747 34.1274 46.2382C34.1274 38.0058 36.4791 30.0156 40.9278 23.131C41.4678 22.2952 41.228 21.18 40.3923 20.64C39.5565 20.1002 38.4413 20.3394 37.901 21.1755C33.0747 28.6439 30.5239 37.3103 30.5239 46.2382C30.5239 62.5179 38.9816 76.8579 51.733 85.0992H26.7102C25.7152 85.0992 24.9084 85.9057 24.9084 86.9009C24.9084 87.8962 25.7152 88.7027 26.7102 88.7027H58.4752C64.0871 91.1288 70.27 92.4763 76.7623 92.4763C102.258 92.4763 123 71.734 123 46.2382C123 20.7423 102.258 0 76.7621 0Z" fill="#F9E547"/>
</svg>
