<svg width="92" height="92" viewBox="0 0 92 92" fill="none" xmlns="http://www.w3.org/2000/svg">
<path d="M68.3718 44.5116C68.3734 43.0062 67.6723 41.5834 66.4691 40.648C67.7381 39.1828 68.0229 37.1287 67.1991 35.3852C66.3744 33.6409 64.5912 32.5255 62.6307 32.527H51.4445L51.9065 31.3291C52.6341 29.4519 53.0055 27.4608 53.0039 25.4531V25.2747C53.0031 23.7481 52.3718 22.2868 51.2528 21.2241C50.1345 20.1613 48.6249 19.5874 47.0678 19.633C43.9161 19.7973 41.4551 22.3631 41.4823 25.4555C41.4823 26.92 39.3823 30.2852 37.6809 32.5294H25.0652C24.271 32.5294 23.6277 33.1598 23.6277 33.9381V62.1338C23.6277 62.912 24.271 63.5425 25.0652 63.5425H60.3798C62.1959 63.5433 63.8717 62.585 64.7645 61.0357C65.6565 59.4855 65.6284 57.5848 64.6891 56.0614C66.133 55.4278 67.1886 54.1646 67.5384 52.6522C67.8889 51.1398 67.4918 49.5542 66.4683 48.372C67.6707 47.4373 68.3718 46.0153 68.3718 44.5116ZM26.5027 35.3475H36.9533V60.7252H26.5027V35.3475ZM63.3374 46.6277H62.6299C61.8358 46.6277 61.1924 47.2581 61.1924 48.0363C61.1924 48.8145 61.8358 49.445 62.6299 49.445C63.8219 49.445 64.7885 50.3922 64.7885 51.5611C64.7885 52.7292 63.8219 53.6764 62.6299 53.6764H60.3798C59.5857 53.6764 58.9423 54.3076 58.9423 55.0851C58.9423 55.8633 59.5857 56.4937 60.3798 56.4937C61.5718 56.4937 62.5385 57.4409 62.5385 58.6098C62.5385 59.778 61.5718 60.7252 60.3798 60.7252H39.8283V34.4152C41.0468 32.836 44.3573 28.2814 44.3573 25.4563C44.3196 23.8841 45.5493 22.5604 47.1497 22.4488C47.931 22.4252 48.689 22.7129 49.2505 23.2458C49.8113 23.7788 50.1281 24.5122 50.1281 25.2779V25.4563C50.1297 27.1228 49.8209 28.7759 49.2177 30.3339L48.0192 33.4428C47.8524 33.876 47.9125 34.361 48.1813 34.7422C48.4492 35.1227 48.8912 35.3498 49.3636 35.3506H62.6299C63.8219 35.3506 64.7885 36.2979 64.7885 37.466C64.7885 38.6349 63.8219 39.5821 62.6299 39.5821C61.8358 39.5821 61.1924 40.2125 61.1924 40.9907C61.1924 41.7689 61.8358 42.3994 62.6299 42.3994H63.3374C64.5302 42.3994 65.4969 43.3466 65.4969 44.5155C65.4969 45.6844 64.5302 46.6316 63.3374 46.6316V46.6277ZM30.7381 52.5571C28.6717 52.5571 26.9976 54.1984 26.9976 56.2225C26.9976 58.2475 28.6717 59.888 30.7381 59.888C32.8037 59.888 34.4786 58.2475 34.4786 56.2225C34.4762 54.1992 32.8029 52.5594 30.7381 52.5571ZM30.7381 57.0699C30.26 57.0699 29.8718 56.6902 29.8726 56.2217C29.8726 55.7532 30.26 55.3728 30.7381 55.3736C31.217 55.3736 31.6044 55.754 31.6036 56.2225C31.6028 56.691 31.2154 57.0699 30.7381 57.0699ZM90.5534 42.6462C91.881 40.6032 92.3181 38.1247 91.7679 35.7633C91.2184 33.4027 89.7271 31.355 87.6271 30.0784C85.5286 28.7955 84.3719 26.4428 84.6566 24.0351C84.9478 21.6305 84.2443 19.2109 82.7034 17.318C81.1624 15.4244 78.9123 14.2138 76.4553 13.956C73.9966 13.6934 71.9134 12.0671 71.1032 9.77722C70.3002 7.48659 68.5956 5.6063 66.3688 4.55531C64.142 3.50511 61.5783 3.37069 59.2504 4.18428C56.9185 4.99158 54.3202 4.41067 52.5771 2.69152C50.8396 0.969232 48.4708 0 45.9994 0C43.5279 0 41.1591 0.969232 39.4216 2.69152C37.6785 4.41146 35.0794 4.99237 32.7483 4.18428C30.4196 3.37148 27.8575 3.5059 25.6307 4.5561C23.4047 5.60708 21.6993 7.48738 20.8963 9.77722C20.0877 12.0678 18.0037 13.6958 15.545 13.9584C13.0872 14.2162 10.8371 15.4267 9.29695 17.3204C7.75599 19.2141 7.05249 21.6328 7.34287 24.0382C7.62844 26.4452 6.47172 28.7979 4.37405 30.0808C2.27397 31.3574 0.78274 33.4043 0.233255 35.7649C-0.317032 38.1255 0.120149 40.6032 1.44613 42.6462C2.76891 44.6939 2.76891 47.3053 1.44613 49.353C0.119347 51.3968 -0.317835 53.8753 0.231651 56.2359C0.781938 58.5973 2.27317 60.645 4.37244 61.9216C6.47172 63.2045 7.62764 65.5572 7.34287 67.9641C7.05249 70.3695 7.75599 72.7883 9.29695 74.682C10.8371 76.5756 13.0872 77.7862 15.545 78.044C18.0029 78.3058 20.0869 79.9329 20.8963 82.222C21.6993 84.5126 23.4047 86.3929 25.6315 87.4439C27.8583 88.4949 30.4212 88.6285 32.7499 87.8157C35.081 87.0068 37.6801 87.5878 39.4232 89.3085C41.1607 91.0308 43.5295 92 46.001 92C48.4724 92 50.8412 91.0308 52.5787 89.3085C54.3218 87.5885 56.9201 87.0076 59.252 87.8157C61.5799 88.6285 64.1428 88.4941 66.3688 87.4431C68.5956 86.3929 70.3002 84.5126 71.1032 82.222C71.9126 79.9322 73.9966 78.3042 76.4553 78.0416C78.9123 77.7838 81.1624 76.5732 82.7034 74.6796C84.2443 72.7859 84.9478 70.3672 84.6566 67.9618C84.3719 65.5548 85.5278 63.2021 87.6263 61.9192C89.7263 60.6426 91.2176 58.5949 91.7679 56.2343C92.3181 53.8729 91.881 51.3944 90.5534 49.3506C89.2322 47.3037 89.2322 44.6939 90.5534 42.6462ZM88.1284 50.8654C89.0429 52.2741 89.3445 53.9822 88.9651 55.6094C88.5865 57.2366 87.5581 58.6476 86.111 59.528C83.0659 61.3894 81.3878 64.8033 81.8017 68.2967C82.0023 69.9545 81.517 71.6218 80.4549 72.9266C79.3928 74.2315 77.8422 75.0656 76.1488 75.2432C72.5808 75.6252 69.5574 77.9874 68.3839 81.3109C67.8304 82.8894 66.6552 84.1856 65.1206 84.9096C63.5861 85.6336 61.8197 85.7263 60.2154 85.1659C56.8318 83.9922 53.0616 84.8357 50.5324 87.3315C49.3356 88.5185 47.7032 89.1866 45.9994 89.1866C44.2964 89.1866 42.6639 88.5185 41.4663 87.3315C38.9387 84.8341 35.1669 83.9907 31.7833 85.1659C30.179 85.7263 28.4126 85.6336 26.8781 84.9096C25.3435 84.1856 24.1683 82.8894 23.6157 81.3109C22.4421 77.9874 19.4179 75.6252 15.8507 75.2432C14.1565 75.0656 12.6059 74.2315 11.5438 72.9266C10.4818 71.6218 9.99725 69.9545 10.1978 68.2967C10.6117 64.8033 8.93437 61.3886 5.88854 59.528C4.44063 58.6476 3.41305 57.2366 3.03362 55.6094C2.655 53.9822 2.95662 52.2741 3.87109 50.8654C5.79068 47.8948 5.79068 44.1052 3.87109 41.1338C2.95662 39.7259 2.655 38.0178 3.03362 36.3898C3.41305 34.7626 4.44063 33.3516 5.88854 32.472C8.93357 30.6106 10.6117 27.1967 10.1986 23.7033C9.99805 22.0455 10.4826 20.3782 11.5446 19.0734C12.6067 17.7677 14.1573 16.9337 15.8515 16.756C19.4187 16.3748 22.4429 14.0118 23.6165 10.6883C24.1692 9.10984 25.3443 7.81438 26.8789 7.08962C28.4134 6.36564 30.1798 6.27367 31.7841 6.83415C35.1677 8.00697 38.9387 7.1643 41.4671 4.66851C42.6647 3.48153 44.2972 2.81337 46.0002 2.81337C47.704 2.81337 49.3364 3.48153 50.5332 4.66851C53.0624 7.1643 56.8326 8.00697 60.2162 6.83415C61.8205 6.27367 63.5869 6.36564 65.1214 7.08962C66.656 7.81438 67.8312 9.10984 68.3847 10.6883C69.5582 14.0118 72.5816 16.3748 76.1497 16.756C77.843 16.9337 79.3936 17.7677 80.4557 19.0734C81.5178 20.3782 82.0031 22.0455 81.8025 23.7033C81.3878 27.1967 83.0659 30.6114 86.1118 32.472C87.5589 33.3516 88.5873 34.7626 88.9659 36.3898C89.3453 38.0178 89.0437 39.7259 88.1292 41.1338C86.2088 44.1052 86.2088 47.8941 88.1284 50.8654ZM46.0002 11.733C26.6872 11.733 11.032 27.0756 11.032 46.0004C11.032 64.9252 26.6888 80.267 46.001 80.267C65.314 80.267 80.9691 64.9252 80.9691 45.9996C80.9474 27.0835 65.3035 11.7542 46.0002 11.733ZM46.0002 77.4505C28.2754 77.4497 13.907 63.3695 13.907 46.0004C13.907 28.6313 28.2754 14.5511 46.0002 14.5511C63.7249 14.5503 78.0941 28.6305 78.0941 45.9996C78.0741 63.3609 63.7168 77.4301 46.0002 77.4497V77.4505Z" fill="#F9E547"/>
</svg>
