<svg width="92" height="92" viewBox="0 0 92 92" fill="none" xmlns="http://www.w3.org/2000/svg">
<path d="M45.9993 0C20.6346 0 0 20.6346 0 46.0001C0 71.3649 20.6346 92.0002 45.9993 92.0002C71.3633 92.0002 91.9978 71.3649 91.9978 46.0001C91.9978 20.6346 71.3633 0 45.9993 0ZM45.9993 88.2499C22.7032 88.2499 3.75035 69.2954 3.75035 46.0001C3.75035 22.704 22.7032 3.75035 45.9993 3.75035C69.2946 3.75035 88.2475 22.704 88.2475 46.0001C88.2475 69.2954 69.2946 88.2499 45.9993 88.2499Z" fill="#F9E547"/>
<path d="M69.7565 27.6579L37.0489 60.3647L22.2422 45.5588C21.5099 44.8265 20.3233 44.8265 19.5902 45.5588C18.8579 46.291 18.8579 47.4776 19.5902 48.2107L35.7229 64.3426C36.0891 64.7087 36.569 64.8914 37.0489 64.8914C37.5288 64.8914 38.0087 64.7087 38.3748 64.3426L72.4084 30.3098C73.1407 29.5775 73.1407 28.3901 72.4084 27.6579C71.6762 26.9256 70.4888 26.9256 69.7565 27.6579Z" fill="#F9E547"/>
</svg>
