<svg width="29" height="29" viewBox="0 0 29 29" fill="none" xmlns="http://www.w3.org/2000/svg">
<path d="M21.4149 0H8.56494C4.38279 0 0.980469 3.40232 0.980469 7.58447V20.4347C0.980469 24.6166 4.38279 28.0189 8.56494 28.0189H21.4151C25.5971 28.0189 28.9994 24.6166 28.9994 20.4347V7.58447C28.9994 3.40232 25.5971 0 21.4149 0V0ZM14.9899 21.6707C10.7655 21.6707 7.32872 18.2339 7.32872 14.0095C7.32872 9.78499 10.7655 6.34825 14.9899 6.34825C19.2144 6.34825 22.6511 9.78499 22.6511 14.0095C22.6511 18.2339 19.2144 21.6707 14.9899 21.6707ZM22.8343 8.15501C21.5859 8.15501 20.5705 7.13962 20.5705 5.89122C20.5705 4.64281 21.5859 3.62721 22.8343 3.62721C24.0827 3.62721 25.0983 4.64281 25.0983 5.89122C25.0983 7.13962 24.0827 8.15501 22.8343 8.15501Z" fill="#5A5C5E"/>
<path d="M14.9903 7.99072C11.6718 7.99072 8.97168 10.6906 8.97168 14.0093C8.97168 17.3279 11.6718 20.028 14.9903 20.028C18.309 20.028 21.0089 17.3279 21.0089 14.0093C21.0089 10.6906 18.309 7.99072 14.9903 7.99072Z" fill="#5A5C5E"/>
<path d="M22.8351 5.27002C22.4926 5.27002 22.2139 5.54877 22.2139 5.89123C22.2139 6.23368 22.4926 6.51243 22.8351 6.51243C23.1777 6.51243 23.4565 6.2339 23.4565 5.89123C23.4565 5.54856 23.1777 5.27002 22.8351 5.27002Z" fill="#5A5C5E"/>
</svg>
