<svg width="24" height="24" viewBox="0 0 24 24" fill="none" xmlns="http://www.w3.org/2000/svg">
<g clip-path="url(#clip0)">
<path d="M12 0V2.8125C17.0345 2.8125 21.1875 6.96552 21.1875 12C21.1875 14.5534 20.1894 16.628 18.525 18.4312L17.5406 17.4468L16.5421 22.411L21.5063 21.4125L20.536 20.4421C20.705 20.1854 24 17.1352 24 12C24 5.40472 18.5953 0 12 0V0Z" fill="#5A5C5E"/>
<path d="M12 24V21.1875C6.96552 21.1875 2.8125 17.0343 2.8125 12C2.8125 9.44655 3.81061 7.37179 5.47504 5.56875L6.45941 6.55312C6.48779 6.4114 7.5174 1.29305 7.45789 1.58895C7.31635 1.61751 2.19763 2.64693 2.49371 2.58742L3.46399 3.5577C3.19391 3.98342 0 6.68899 0 12C0 18.5952 5.40472 24 12 24Z" fill="#5A5C5E"/>
</g>
<defs>
<clipPath id="clip0">
<rect width="24" height="24" fill="white"/>
</clipPath>
</defs>
</svg>
