<svg xmlns="http://www.w3.org/2000/svg" xmlns:xlink="http://www.w3.org/1999/xlink" width="24" height="24" viewBox="0 0 24 24">
    <defs>
        <path id="f4ptd2kksa" d="M0 0H24V24H0z"/>
    </defs>
    <g fill-rule="evenodd">
        <g>
            <g>
                <g transform="translate(-1729 -2879) translate(156 2871) translate(1573 8)">
                    <mask id="kpqjgpl81b" fill="#fff">
                        <use xlink:href="#f4ptd2kksa"/>
                    </mask>
                    <g fill-rule="nonzero" mask="url(#kpqjgpl81b)">
                        <path d="M7.929.214c2.84 0 5.142 2.303 5.142 5.143 0 1.811-.936 3.404-2.35 4.32 2.61.929 4.183 3.255 4.663 6.892.047.352-.201.675-.553.721-.352.047-.675-.2-.722-.553-.557-4.225-2.613-6.237-6.307-6.237-3.694 0-5.75 2.012-6.308 6.237-.046.352-.369.6-.72.553-.353-.046-.6-.369-.554-.721.49-3.714 2.12-6.061 4.83-6.95-1.366-.923-2.264-2.488-2.264-4.262 0-2.84 2.302-5.143 5.143-5.143zm0 1.286c-2.13 0-3.858 1.727-3.858 3.857S5.798 9.214 7.93 9.214c2.13 0 3.857-1.727 3.857-3.857S10.059 1.5 7.929 1.5z" transform="translate(4.286 3.429)"/>
                    </g>
                </g>
            </g>
        </g>
    </g>
</svg>
