<svg width="310" height="103" viewBox="0 0 310 103" fill="none" xmlns="http://www.w3.org/2000/svg">
<g style="mix-blend-mode:luminosity" clip-path="url(#clip0)">
<path fill-rule="evenodd" clip-rule="evenodd" d="M85.5196 40.1203C85.5167 37.5346 85.0567 34.9681 84.1593 32.53C83.3763 30.1629 81.9786 28.0258 80.0977 26.3198C78.9579 25.2524 77.5928 24.432 76.0945 23.9141C74.5695 23.3484 72.9488 23.0576 71.3139 23.0562C69.5373 23.0157 67.7711 23.3268 66.1252 23.97C64.5622 24.6394 63.1598 25.6107 62.0054 26.8234C60.3491 28.4395 59.0879 30.3887 58.313 32.53C57.4587 34.8477 57.0249 37.2889 57.0304 39.7473C56.9838 42.3914 57.4178 45.023 58.313 47.5241C59.1916 49.8684 60.676 51.9603 62.6272 53.6037C63.7647 54.5775 65.0833 55.3367 66.5139 55.8416C68.0112 56.3497 69.5897 56.6021 71.1779 56.5876C72.9001 56.604 74.6094 56.3 76.2111 55.6924C77.7769 55.1019 79.1943 54.1993 80.3698 53.0442C82.0327 51.3902 83.3052 49.4121 84.101 47.2443C85.0135 44.97 85.4939 42.5572 85.5196 40.1203ZM92.4184 39.8219C92.4231 42.9701 91.8031 46.0903 90.5917 49.016C89.4737 51.8342 87.722 54.3812 85.4613 56.4757C83.5885 58.2299 81.368 59.6057 78.9313 60.5219C76.4946 61.438 73.8912 61.8758 71.275 61.8094C68.6214 61.8273 65.9868 61.3785 63.5017 60.4853C61.0951 59.5793 58.8967 58.2298 57.0304 56.513C54.7838 54.4148 53.0456 51.8681 51.9389 49.0533C50.7616 46.0746 50.1622 42.9144 50.1705 39.7287C50.1372 36.752 50.6436 33.7924 51.6668 30.9822C52.7093 28.3068 54.3096 25.8637 56.3697 23.8022C58.2767 21.8948 60.572 20.384 63.1131 19.3637C65.6746 18.3164 68.4324 17.7832 71.2167 17.7971C73.9921 17.7576 76.7476 18.2522 79.3204 19.2518C81.792 20.1988 84.0198 21.6496 85.85 23.5038C87.9856 25.6476 89.6451 28.1855 90.7278 30.9635C91.8133 33.8317 92.3531 36.8638 92.3213 39.9151" fill="#CC1517"/>
<path d="M85.5196 40.1203C85.5167 37.5346 85.0567 34.9681 84.1593 32.53C83.3763 30.1629 81.9786 28.0258 80.0977 26.3198C78.9579 25.2524 77.5928 24.432 76.0945 23.9141C74.5695 23.3484 72.9488 23.0576 71.3139 23.0562C69.5373 23.0157 67.7711 23.3268 66.1252 23.97C64.5622 24.6394 63.1598 25.6107 62.0054 26.8234C60.3491 28.4395 59.0879 30.3887 58.313 32.53C57.4587 34.8477 57.0249 37.2889 57.0304 39.7473C56.9838 42.3914 57.4178 45.023 58.313 47.5241C59.1916 49.8684 60.676 51.9603 62.6272 53.6037C63.7647 54.5775 65.0833 55.3367 66.5139 55.8416C68.0112 56.3497 69.5897 56.6021 71.1779 56.5876C72.9001 56.604 74.6094 56.3 76.2111 55.6924C77.7769 55.1019 79.1943 54.1993 80.3698 53.0442C82.0327 51.3902 83.3052 49.4121 84.101 47.2443C85.0135 44.97 85.4939 42.5572 85.5196 40.1203V40.1203ZM92.4184 39.8219C92.4231 42.9701 91.8031 46.0903 90.5917 49.016C89.4737 51.8342 87.722 54.3812 85.4613 56.4757C83.5885 58.2299 81.368 59.6057 78.9313 60.5219C76.4946 61.438 73.8912 61.8758 71.275 61.8094C68.6214 61.8273 65.9868 61.3785 63.5017 60.4853C61.0951 59.5793 58.8967 58.2298 57.0304 56.513C54.7838 54.4148 53.0456 51.8681 51.9389 49.0533C50.7616 46.0746 50.1622 42.9144 50.1705 39.7287C50.1372 36.752 50.6436 33.7924 51.6668 30.9822C52.7093 28.3068 54.3096 25.8637 56.3697 23.8022C58.2767 21.8948 60.572 20.384 63.1131 19.3637C65.6746 18.3164 68.4324 17.7832 71.2167 17.7971C73.9921 17.7576 76.7476 18.2522 79.3204 19.2518C81.792 20.1988 84.0198 21.6496 85.85 23.5038C87.9856 25.6476 89.6451 28.1855 90.7278 30.9635C91.8019 33.8023 92.3415 36.8018 92.3213 39.8219H92.4184Z" stroke="white" stroke-width="0.07" stroke-miterlimit="3.86"/>
<path fill-rule="evenodd" clip-rule="evenodd" d="M216.232 60.7595H209.431C209.431 60.3306 209.431 57.6078 209.431 52.6097C209.431 47.6117 209.431 43.4902 209.431 40.2266C209.431 37.3919 209.431 34.2589 209.431 30.902C209.431 27.5451 209.431 23.4423 209.314 18.8732H216.116C216.116 22.8641 215.999 26.5754 215.941 30.0628C215.883 33.5502 215.941 36.59 215.941 39.2942C215.941 45.7282 215.941 50.8754 215.941 54.7917C215.941 58.7081 216.077 60.6849 216.077 60.7781L216.232 60.7595ZM216.466 10.854H208.887V3.72998H216.466V10.854Z" fill="#CC1517"/>
<path d="M216.229 60.7595H209.428C209.428 60.3306 209.428 57.6078 209.428 52.6097C209.428 47.6117 209.428 43.4902 209.428 40.2266C209.428 37.3919 209.428 34.2589 209.428 30.902C209.428 27.5451 209.428 23.4423 209.311 18.8732H216.113C216.113 22.8641 215.996 26.5754 215.938 30.0628C215.88 33.5502 215.938 36.59 215.938 39.2942C215.938 45.7282 215.938 50.8754 215.938 54.7917C215.938 58.7081 216.229 60.6662 216.229 60.7595ZM216.618 10.8354H209.039V3.72998H216.618V10.8354Z" stroke="white" stroke-width="0.07" stroke-miterlimit="3.86"/>
<path fill-rule="evenodd" clip-rule="evenodd" d="M262.475 40.1197C262.476 37.5368 262.029 34.9718 261.154 32.5294C260.349 30.1678 258.947 28.0342 257.073 26.3192C255.93 25.2554 254.566 24.4355 253.07 23.9134C251.545 23.3461 249.924 23.0552 248.289 23.0556C246.544 22.978 244.802 23.2722 243.189 23.917C241.576 24.5619 240.132 25.5415 238.961 26.7854C237.352 28.4265 236.115 30.3695 235.327 32.4921C234.473 34.8098 234.039 37.251 234.044 39.7094C234.01 42.3557 234.457 44.9874 235.366 47.4861C236.258 49.8236 237.741 51.9124 239.68 53.5658C240.819 54.5381 242.137 55.2972 243.567 55.8037C246.724 56.847 250.162 56.7942 253.283 55.6545C254.832 55.054 256.235 54.1524 257.403 53.0063C259.072 51.3494 260.356 49.373 261.173 47.2064C262.031 44.9217 262.465 42.5107 262.456 40.0824L262.475 40.1197ZM269.355 39.784C269.366 42.931 268.753 46.0513 267.547 48.9781C266.429 51.7963 264.678 54.3433 262.417 56.4378C260.587 58.1357 258.437 59.4838 256.082 60.4101C253.607 61.3429 250.967 61.8052 248.308 61.7715C245.655 61.7898 243.02 61.341 240.535 60.4474C238.131 59.5371 235.933 58.1881 234.064 56.4751C231.813 54.376 230.069 51.8299 228.953 49.0154C227.782 46.0355 227.189 42.8753 227.204 39.6907C227.17 36.714 227.677 33.7545 228.7 30.9442C229.747 28.2438 231.384 25.7894 233.5 23.7456C235.4 21.8386 237.689 20.3277 240.224 19.3071C245.415 17.258 251.23 17.2179 256.451 19.1952C258.92 20.1469 261.147 21.5971 262.981 23.4472C265.124 25.5819 266.779 28.1227 267.839 30.9069C268.934 33.7727 269.474 36.8064 269.432 39.8586" fill="#CC1517"/>
<path d="M262.473 40.1202C262.474 37.5373 262.027 34.9723 261.152 32.5299C260.347 30.1683 258.945 28.0347 257.071 26.3197C255.928 25.2559 254.564 24.4361 253.068 23.914C251.543 23.3466 249.922 23.0558 248.287 23.0561C246.542 22.9785 244.8 23.2727 243.187 23.9176C241.575 24.5625 240.131 25.542 238.959 26.786C237.35 28.427 236.113 30.37 235.325 32.4926C234.471 34.8103 234.037 37.2515 234.042 39.7099C234.008 42.3562 234.455 44.9879 235.364 47.4867C236.256 49.8241 237.739 51.9129 239.678 53.5663C240.817 54.5386 242.135 55.2977 243.565 55.8042C246.722 56.8475 250.16 56.7947 253.281 55.655C254.83 55.0545 256.233 54.1529 257.401 53.0068C259.07 51.3499 260.354 49.3735 261.171 47.2069C262.031 44.9351 262.471 42.5371 262.473 40.1202V40.1202ZM269.372 39.8218C269.383 42.9688 268.77 46.0891 267.565 49.0159C266.447 51.8341 264.695 54.3811 262.434 56.4756C260.604 58.1735 258.454 59.5216 256.099 60.4479C253.624 61.3806 250.984 61.843 248.326 61.8093C245.672 61.8276 243.038 61.3788 240.553 60.4852C238.148 59.5749 235.951 58.2259 234.081 56.5129C231.831 54.4138 230.087 51.8677 228.97 49.0532C227.8 46.0734 227.207 42.9131 227.221 39.7286C227.188 36.7519 227.694 33.7923 228.718 30.982C229.765 28.2817 231.401 25.8273 233.518 23.7834C235.418 21.8765 237.706 20.3656 240.242 19.3449C245.432 17.2959 251.248 17.2558 256.468 19.233C258.937 20.1848 261.164 21.6349 262.998 23.485C265.141 25.6197 266.796 28.1606 267.856 30.9447C268.916 33.7917 269.429 36.7992 269.372 39.8218Z" stroke="white" stroke-width="0.07" stroke-miterlimit="3.86"/>
<path fill-rule="evenodd" clip-rule="evenodd" d="M308.287 60.7595H301.466C301.466 60.3306 301.466 57.6078 301.466 52.6097C301.466 47.6117 301.466 43.4902 301.466 40.2266C301.466 37.3919 301.466 34.2589 301.466 30.902C301.466 27.5451 301.466 23.4423 301.349 18.8732H308.17C308.17 22.8641 308.034 26.5754 307.976 30.0628C307.918 33.5502 307.976 36.59 307.976 39.2942C307.976 45.7282 307.976 50.8754 307.976 54.7917C307.976 58.7081 308.112 60.6849 308.112 60.7781L308.287 60.7595ZM308.501 10.854H300.902V3.72998H308.501V10.854Z" fill="#CC1517"/>
<path d="M308.296 60.7595H301.475C301.475 60.3306 301.475 57.6078 301.475 52.6097C301.475 47.6117 301.475 43.4902 301.475 40.2266C301.475 37.3919 301.475 34.2589 301.475 30.902C301.475 27.5451 301.475 23.4423 301.358 18.8732H308.179C308.179 22.8641 308.043 26.5754 307.985 30.0628C307.926 33.5502 307.985 36.59 307.985 39.2942C307.985 45.7282 307.985 50.8754 307.985 54.7917C307.985 58.7081 308.296 60.6662 308.296 60.7595ZM308.684 10.8354H301.086V3.72998H308.684V10.8354Z" stroke="white" stroke-width="0.07" stroke-miterlimit="3.86"/>
<path fill-rule="evenodd" clip-rule="evenodd" d="M33.6779 44.7626C33.7008 43.4801 33.4357 42.208 32.9006 41.0327C32.3232 39.8306 31.5343 38.7329 30.5686 37.7877C29.4249 36.7197 28.0425 35.9161 26.5265 35.4379C24.732 34.8486 22.8456 34.5584 20.9491 34.5801H17.0624H13.3895L12.6899 29.6007C15.155 29.5799 17.6133 29.349 20.0357 28.9107C21.5884 28.5358 23.0613 27.9047 24.3888 27.0458C25.6073 26.2176 26.6276 25.1495 27.3815 23.9127C28.1677 22.5902 28.5703 21.0898 28.5475 19.5674C28.5881 17.9964 28.1196 16.4521 27.2066 15.1475C26.3113 13.8899 25.0931 12.875 23.6698 12.2009C22.1918 11.5659 20.6284 11.1328 19.0252 10.9141C17.0978 10.6132 15.148 10.4635 13.1952 10.4666C11.8349 10.4666 10.5911 10.4666 9.44458 10.4666H7.28749C7.19032 14.4761 7.13202 18.7655 7.11259 23.2973V33.1441C7.11259 37.8996 7.11259 42.6738 7.11259 47.4854V55.1316L9.40572 55.2435H12.2041C15.2655 55.3183 18.3288 55.2124 21.3766 54.9264C23.8925 54.6819 26.3382 53.986 28.5864 52.875C30.1034 52.0804 31.3817 50.9243 32.2981 49.5181C33.2116 48.0551 33.6764 46.3745 33.639 44.6693L33.6779 44.7626ZM41.0237 44.4642C41.0603 47.1103 40.2756 49.7071 38.7694 51.9239C37.1741 54.2561 34.9516 56.1312 32.337 57.3508C29.7349 58.624 26.9622 59.5465 24.0973 60.0923C20.7044 60.6703 17.2629 60.945 13.8171 60.9128C10.9798 60.9128 7.98709 60.9128 5.03322 60.7823L0 60.5772C0 55.2621 0.1166 50.2641 0.155466 45.6577V32.1557C0.155466 24.0494 0.1166 17.6279 0.0388666 12.891V5.43125L4.78059 5.2261C7.59194 5.10177 10.3061 5.03961 12.9231 5.03961C15.6615 5.01433 18.3976 5.20143 21.1046 5.59909C23.2797 5.8693 25.4132 6.38898 27.4593 7.14698C29.9001 7.99719 32.0419 9.49024 33.639 11.455C35.1664 13.4224 35.9542 15.8284 35.8739 18.2806C35.8993 21.0541 34.8933 23.7453 33.0366 25.8709C31.3615 27.9014 29.136 29.45 26.6042 30.3467V30.7383C28.6089 30.9138 30.5744 31.3791 32.4342 32.1184C34.2772 32.8152 35.9509 33.8691 37.3508 35.2141C38.5268 36.3496 39.4638 37.692 40.1103 39.1678C40.7874 40.856 41.1109 42.6558 41.0626 44.4642" fill="#CC1517"/>
<path d="M33.6779 44.7626C33.7008 43.4802 33.4357 42.2081 32.9006 41.0328C32.3232 39.8306 31.5343 38.7329 30.5686 37.7878C29.4249 36.7198 28.0425 35.9161 26.5265 35.438C24.732 34.8486 22.8456 34.5585 20.9491 34.5801H17.0624H13.3895L12.6899 29.6007C15.155 29.5799 17.6133 29.349 20.0357 28.9107C21.5884 28.5358 23.0613 27.9048 24.3888 27.0458C25.6073 26.2176 26.6276 25.1495 27.3815 23.9127C28.1677 22.5902 28.5703 21.0898 28.5475 19.5674C28.5881 17.9964 28.1196 16.4521 27.2066 15.1475C26.3113 13.8899 25.0931 12.875 23.6698 12.2009C22.1918 11.5659 20.6284 11.1328 19.0252 10.9141C17.0978 10.6132 15.148 10.4635 13.1952 10.4666C11.8349 10.4666 10.5911 10.4666 9.44458 10.4666H7.28749C7.19032 14.4762 7.13202 18.7655 7.11259 23.2973V33.1441C7.11259 37.8997 7.11259 42.6739 7.11259 47.4854V55.1316L9.40572 55.2435H12.2041C15.2655 55.3184 18.3288 55.2125 21.3766 54.9265C23.8925 54.682 26.3382 53.9861 28.5864 52.8751C30.1034 52.0804 31.3817 50.9244 32.2981 49.5182C33.2077 48.086 33.6853 46.4398 33.6779 44.7626ZM41.0626 44.5575C41.0992 47.2036 40.3144 49.8004 38.8083 52.0172C37.213 54.3494 34.9905 56.2245 32.3759 57.4441C29.7738 58.7173 27.001 59.6398 24.1362 60.1856C20.7432 60.7636 17.3018 61.0383 13.8559 61.0061C11.0187 61.0061 8.02595 61.0061 5.07209 60.8756L0 60.5772C0 55.2622 0.1166 50.2642 0.155466 45.6578V32.1557C0.155466 24.0495 0.1166 17.6279 0.0388666 12.891V5.43125L4.78059 5.2261C7.59194 5.10177 10.3061 5.03961 12.9231 5.03961C15.6615 5.01433 18.3976 5.20143 21.1046 5.59909C23.2797 5.8693 25.4132 6.38898 27.4593 7.14698C29.9001 7.99719 32.0419 9.49024 33.639 11.455C35.1664 13.4224 35.9542 15.8284 35.8739 18.2806C35.8993 21.0541 34.8933 23.7453 33.0366 25.8709C31.3615 27.9015 29.136 29.45 26.6042 30.3467V30.7383C28.6089 30.9139 30.5744 31.3791 32.4342 32.1184C34.2772 32.8153 35.9509 33.8691 37.3508 35.2142C38.5268 36.3497 39.4638 37.692 40.1103 39.1678C40.7874 40.8561 41.1109 42.6559 41.0626 44.4642V44.5575Z" stroke="white" stroke-width="0.07" stroke-miterlimit="3.86"/>
<path d="M127.312 23.7631C125.018 24.2669 122.754 24.8895 120.529 25.628C116.378 26.6489 112.498 28.4981 109.142 31.055C109.142 31.372 109.142 32.4164 109.142 34.9154C109.142 37.4144 109.142 39.6523 109.142 41.7783C109.142 45.0419 109.142 48.9023 109.142 53.3782C109.142 57.854 109.278 60.3343 109.278 60.8379H102.456C102.456 60.3716 102.456 58.8237 102.456 56.2128C102.456 53.602 102.456 49.1075 102.456 42.7481C102.456 40.1931 102.456 36.5938 102.456 31.9874C102.456 27.3811 102.456 23.0358 102.34 18.933H109.025V25.2178V25.5907C111.888 23.2877 115.206 21.5625 118.78 20.5181C121.122 19.5083 123.538 18.6668 126.01 18.0005L127.312 23.7631Z" fill="#CC1517"/>
<path d="M127.312 23.7631C125.018 24.2669 122.754 24.8895 120.529 25.628C116.378 26.6489 112.498 28.4981 109.142 31.055C109.142 31.372 109.142 32.4164 109.142 34.9154C109.142 37.4144 109.142 39.6523 109.142 41.7783C109.142 45.0419 109.142 48.9023 109.142 53.3782C109.142 57.854 109.278 60.3343 109.278 60.8379H102.456C102.456 60.3716 102.456 58.8237 102.456 56.2128C102.456 53.6019 102.456 49.1075 102.456 42.7481C102.456 40.1931 102.456 36.5938 102.456 31.9874C102.456 27.3811 102.456 23.0358 102.34 18.933H109.025V25.2178V25.5907C111.888 23.2877 115.206 21.5625 118.78 20.5181C121.122 19.5083 123.538 18.6668 126.01 18.0005L127.312 23.7631Z" stroke="white" stroke-width="0.07" stroke-miterlimit="3.86"/>
<path d="M196.543 60.7622H189.722C189.722 60.4638 189.722 58.5429 189.819 54.9809C189.916 51.4189 189.819 48.062 189.819 44.9103C189.819 43.6608 189.819 41.6467 189.819 38.8306C189.819 36.0146 189.819 33.8513 189.819 32.4526C190.009 29.9936 189.271 27.5512 187.74 25.571C186.951 24.8962 186.027 24.3828 185.025 24.0622C184.022 23.7415 182.962 23.6204 181.91 23.7061C179.973 23.773 178.061 24.1513 176.255 24.825C173.698 25.7578 171.239 26.9191 168.909 28.2938V29.133C168.909 29.562 168.909 30.0841 168.909 30.7555C168.909 32.9934 168.909 35.2686 168.909 37.5811C168.909 39.875 168.909 42.057 168.909 44.1643C168.909 48.7521 168.909 52.5938 168.909 55.7269C168.909 58.86 169.045 60.5384 169.045 60.7995H162.204C162.204 60.5011 162.204 58.9346 162.204 55.8015C162.204 52.6684 162.204 49.181 162.204 45.0222C162.204 43.6608 162.204 41.5721 162.204 38.7933C162.204 36.0146 162.204 33.8886 162.204 32.5831C162.19 31.4071 162.073 30.2344 161.854 29.0771C161.7 28.0701 161.315 27.1084 160.727 26.261C160.151 25.4464 159.35 24.8009 158.415 24.3961C157.124 23.9053 155.74 23.6828 154.353 23.7434C152.392 23.8296 150.469 24.2925 148.698 25.1048C146.133 26.2113 143.658 27.5018 141.294 28.9652C141.294 29.4314 141.294 31.2031 141.294 34.2616C141.294 37.32 141.294 39.8563 141.294 41.7213C141.294 45.0035 141.294 48.9448 141.294 53.5449C141.294 58.1513 141.411 60.5757 141.411 60.8368H134.667C134.667 60.6316 134.667 58.9719 134.667 56.0439C134.667 53.116 134.667 48.062 134.667 41.1245C134.667 38.8493 134.667 35.8095 134.667 31.9491C134.667 28.0887 134.667 23.7807 134.531 18.8946H141.255V23.7061C143.546 22.1929 145.972 20.8762 148.504 19.7711C150.926 18.6237 153.577 17.9878 156.277 17.9062C158.749 17.8174 161.196 18.406 163.331 19.6032C165.102 20.6084 166.506 22.1126 167.354 23.9112C170.236 22.1544 173.28 20.6561 176.449 19.4354C178.714 18.5256 181.128 18.0079 183.581 17.9062C185.286 17.8133 186.992 18.0622 188.592 18.6369C190.191 19.2117 191.648 20.0997 192.87 21.2444C194.021 22.4588 194.908 23.8804 195.482 25.4266C196.056 26.9728 196.304 28.613 196.213 30.252C196.213 33.1613 196.213 35.6416 196.213 37.7117C196.213 39.7817 196.213 41.8145 196.213 44.0338C196.213 48.6775 196.213 52.6124 196.213 55.8015C196.213 58.9905 196.349 60.7249 196.349 60.93" fill="#CC1517"/>
<path d="M196.543 60.7623H189.722C189.722 60.4639 189.722 58.543 189.819 54.981C189.916 51.419 189.819 48.0621 189.819 44.9103C189.819 43.6608 189.819 41.6467 189.819 38.8307C189.819 36.0146 189.819 33.8513 189.819 32.4526C190.009 29.9936 189.271 27.5512 187.74 25.571C186.951 24.8962 186.027 24.3828 185.025 24.0622C184.022 23.7416 182.962 23.6204 181.91 23.7061C179.973 23.7731 178.061 24.1513 176.255 24.825C173.698 25.7578 171.239 26.9192 168.909 28.2938V29.133C168.909 29.562 168.909 30.0842 168.909 30.7555C168.909 32.9934 168.909 35.2687 168.909 37.5812C168.909 39.875 168.909 42.057 168.909 44.1644C168.909 48.7521 168.909 52.5939 168.909 55.7269C168.909 58.86 169.045 60.5385 169.045 60.7995H162.204C162.204 60.5012 162.204 58.9346 162.204 55.8015C162.204 52.6685 162.204 49.181 162.204 45.0222C162.204 43.6608 162.204 41.5721 162.204 38.7934C162.204 36.0146 162.204 33.8886 162.204 32.5832C162.19 31.4072 162.073 30.2344 161.854 29.0771C161.7 28.0701 161.315 27.1085 160.727 26.261C160.151 25.4464 159.35 24.801 158.415 24.3961C157.124 23.9053 155.74 23.6829 154.353 23.7434C152.392 23.8296 150.469 24.2925 148.698 25.1048C146.133 26.2113 143.658 27.5018 141.294 28.9652C141.294 29.4314 141.294 31.2031 141.294 34.2616C141.294 37.3201 141.294 39.8564 141.294 41.7213C141.294 45.0036 141.294 48.9448 141.294 53.545C141.294 58.1513 141.411 60.5758 141.411 60.8368H134.667C134.667 60.6317 134.667 58.9719 134.667 56.044C134.667 53.116 134.667 48.0621 134.667 41.1245C134.667 38.8493 134.667 35.8095 134.667 31.9491C134.667 28.0887 134.667 23.7807 134.531 18.8946H141.255V23.7061C143.546 22.1929 145.972 20.8762 148.504 19.7711C150.926 18.6237 153.577 17.9878 156.277 17.9062C158.749 17.8174 161.196 18.406 163.331 19.6032C165.102 20.6084 166.506 22.1126 167.354 23.9112V23.9112C170.236 22.1544 173.28 20.6561 176.449 19.4354C178.714 18.5256 181.128 18.0079 183.581 17.9062C185.286 17.8133 186.992 18.0622 188.592 18.6369C190.191 19.2117 191.648 20.0997 192.87 21.2444C194.021 22.4588 194.908 23.8804 195.482 25.4266C196.056 26.9729 196.304 28.613 196.213 30.252C196.213 33.1613 196.213 35.6416 196.213 37.7117C196.213 39.7818 196.213 41.8146 196.213 44.0338C196.213 48.6775 196.213 52.6125 196.213 55.8015C196.213 58.9906 196.543 60.5571 196.543 60.7623Z" stroke="white" stroke-width="0.07" stroke-miterlimit="3.86"/>
<path d="M287.859 60.7632H281.058C281.058 60.4461 281.058 56.3992 281.058 48.6784C281.058 40.9576 281.155 34.505 281.155 29.3951C281.155 26.1128 281.155 21.9353 281.155 16.956C281.155 11.9766 281.155 6.30725 281.038 0.171631H287.84C287.84 4.42367 287.743 9.34708 287.723 14.9419C287.704 20.5366 287.723 25.2363 287.723 29.0594C287.723 37.4391 287.723 44.7559 287.723 51.0096C287.723 57.2757 287.723 60.558 287.723 60.8564" fill="#CC1517"/>
<path d="M287.859 60.7632H281.058C281.058 60.4461 281.058 56.3992 281.058 48.6784C281.058 40.9576 281.155 34.505 281.155 29.3951C281.155 26.1128 281.155 21.9353 281.155 16.956C281.155 11.9766 281.155 6.30725 281.038 0.171631H287.84C287.84 4.42367 287.743 9.34708 287.723 14.9419C287.704 20.5367 287.723 25.2363 287.723 29.0594C287.723 37.4391 287.723 44.7559 287.723 51.0096C287.84 57.1825 287.859 60.4648 287.859 60.7632Z" stroke="white" stroke-width="0.07" stroke-miterlimit="3.86"/>
<path d="M182.682 99.7776L179.301 102.37C178.893 101.997 177.494 100.505 175.084 98.0059C172.674 95.5069 168.924 91.5159 163.89 86.1449V85.9211C164.842 85.6556 165.76 85.293 166.631 84.8395C167.656 84.3284 168.615 83.7024 169.487 82.9745C170.187 82.3617 170.777 81.6436 171.236 80.8485C171.784 79.804 172.038 78.6406 171.975 77.473C172.018 76.2796 171.634 75.108 170.886 74.1534C170.12 73.1783 169.063 72.4499 167.855 72.0647C166.797 71.701 165.692 71.4813 164.571 71.412C163.424 71.412 162.336 71.3001 161.384 71.3001H159.129C159.129 74.4891 159.129 77.3052 159.129 79.7482V84.9141C159.129 87.2266 159.129 90.3597 159.129 94.2387C159.129 98.1178 159.129 100.673 159.129 101.698H154.699C154.699 100.691 154.699 98.7332 154.699 95.8426C154.699 92.9519 154.699 89.3153 154.699 84.9887V80.3263C154.699 78.0511 154.699 73.911 154.562 67.9246H157.283H161.753C163.285 67.9333 164.816 68.0204 166.339 68.1857C167.83 68.3585 169.288 68.7288 170.673 69.286C172.374 69.9183 173.856 70.9976 174.948 72.4004C175.992 73.8093 176.537 75.5023 176.503 77.2306C176.537 78.3261 176.345 79.4174 175.938 80.4415C175.531 81.4657 174.917 82.4026 174.132 83.1983C172.82 84.5724 171.316 85.7649 169.662 86.7417V86.8722C172.137 89.5577 174.838 92.3303 177.766 95.1898L182.682 99.7776Z" fill="#CC1517"/>
<path d="M182.682 99.7776L179.301 102.37C178.893 101.997 177.494 100.505 175.084 98.0059C172.674 95.5069 168.924 91.5159 163.89 86.1449V85.9211C164.842 85.6556 165.76 85.293 166.631 84.8395C167.656 84.3284 168.615 83.7024 169.487 82.9745C170.187 82.3617 170.777 81.6436 171.236 80.8485C171.784 79.804 172.038 78.6406 171.975 77.473C172.018 76.2796 171.634 75.108 170.886 74.1534C170.12 73.1783 169.063 72.4499 167.855 72.0647C166.797 71.701 165.692 71.4813 164.571 71.412C163.424 71.412 162.336 71.3001 161.384 71.3001H159.129C159.129 74.4891 159.129 77.3052 159.129 79.7482V84.9141C159.129 87.2266 159.129 90.3597 159.129 94.2387C159.129 98.1178 159.129 100.673 159.129 101.698H154.699C154.699 100.691 154.699 98.7332 154.699 95.8426C154.699 92.9519 154.699 89.3153 154.699 84.9887V80.3263C154.699 78.0511 154.699 73.911 154.562 67.9246H157.283H161.753C163.285 67.9333 164.816 68.0204 166.339 68.1857C167.83 68.3585 169.288 68.7288 170.673 69.286C172.374 69.9183 173.856 70.9976 174.948 72.4004C175.992 73.8093 176.537 75.5023 176.503 77.2306C176.537 78.3261 176.345 79.4174 175.938 80.4415C175.531 81.4657 174.917 82.4026 174.132 83.1983C172.82 84.5724 171.316 85.7649 169.662 86.7417V86.8722C172.137 89.5577 174.838 92.3303 177.766 95.1898L182.682 99.7776Z" stroke="white" stroke-width="0.16" stroke-miterlimit="3.86"/>
<path fill-rule="evenodd" clip-rule="evenodd" d="M210.321 89.351C210.325 87.7469 210.028 86.1552 209.447 84.6514C208.927 83.1715 208.032 81.8386 206.843 80.7723C206.107 80.1066 205.233 79.5981 204.277 79.2804C203.299 78.9131 202.257 78.7295 201.207 78.7396C200.078 78.7154 198.955 78.9055 197.903 79.299C196.892 79.7395 195.986 80.3742 195.241 81.164C194.216 82.1809 193.428 83.395 192.928 84.726C192.371 86.1508 192.087 87.6611 192.093 89.1832C192.068 90.8359 192.358 92.4791 192.948 94.032C193.536 95.4733 194.483 96.754 195.707 97.7618C196.438 98.3837 197.29 98.8592 198.214 99.1605C199.17 99.478 200.176 99.6357 201.188 99.6268C202.29 99.6375 203.385 99.4477 204.413 99.0673C205.41 98.6957 206.317 98.1306 207.076 97.4075C208.144 96.395 208.961 95.1648 209.466 93.8082C210.035 92.3987 210.325 90.8998 210.321 89.3883V89.351ZM214.733 89.2018C214.736 91.1631 214.346 93.1067 213.586 94.9271C212.843 96.6836 211.716 98.267 210.282 99.5708C209.099 100.626 207.722 101.46 206.221 102.033C204.619 102.636 202.909 102.934 201.188 102.909C199.491 102.911 197.807 102.627 196.213 102.07C194.521 101.462 192.984 100.514 191.707 99.288C190.43 98.0623 189.442 96.5879 188.809 94.9644C188.042 93.113 187.653 91.1379 187.662 89.1459C187.642 87.2938 187.978 85.4542 188.653 83.7189C189.313 82.1015 190.303 80.6268 191.564 79.3811C192.825 78.1354 194.333 77.1438 195.999 76.4643C197.654 75.8244 199.422 75.4952 201.207 75.4946C202.98 75.4775 204.74 75.7812 206.396 76.3897C207.978 76.9684 209.406 77.8796 210.574 79.0566C211.966 80.3349 213.053 81.8873 213.761 83.607C214.474 85.3914 214.824 87.2908 214.791 89.2018" fill="#CC1517"/>
<path d="M210.321 89.351C210.325 87.7469 210.028 86.1552 209.447 84.6514C208.927 83.1715 208.032 81.8386 206.843 80.7723C206.107 80.1066 205.233 79.5981 204.277 79.2804C203.299 78.9131 202.257 78.7295 201.207 78.7396C200.078 78.7154 198.955 78.9055 197.903 79.299C196.892 79.7395 195.986 80.3742 195.241 81.164C194.216 82.1809 193.428 83.395 192.928 84.726C192.37 86.1508 192.087 87.6611 192.093 89.1832C192.068 90.8359 192.358 92.4791 192.948 94.032C193.536 95.4733 194.483 96.754 195.707 97.7618C196.437 98.3837 197.29 98.8592 198.214 99.1605C199.17 99.478 200.176 99.6357 201.188 99.6268C202.29 99.6375 203.385 99.4477 204.413 99.0673C205.41 98.6957 206.317 98.1306 207.076 97.4075C208.144 96.3949 208.961 95.1648 209.466 93.8082C210.04 92.387 210.33 90.875 210.321 89.351V89.351ZM214.733 89.1645C214.735 91.1258 214.346 93.0694 213.586 94.8898C212.843 96.6463 211.716 98.2297 210.282 99.5335C209.099 100.588 207.722 101.423 206.221 101.995C204.618 102.599 202.909 102.897 201.188 102.872C199.491 102.874 197.807 102.59 196.213 102.033C194.521 101.425 192.984 100.476 191.707 99.2507C190.43 98.025 189.442 96.5507 188.809 94.9271C188.042 93.0757 187.653 91.1006 187.662 89.1086C187.642 87.2565 187.978 85.4169 188.653 83.6816C189.317 82.0711 190.309 80.6036 191.57 79.3645C192.831 78.1254 194.337 77.1395 195.999 76.4643C197.654 75.8244 199.422 75.4952 201.207 75.4946C202.98 75.4775 204.74 75.7812 206.396 76.3897C207.978 76.9684 209.406 77.8796 210.574 79.0566C211.966 80.3349 213.053 81.8873 213.761 83.607C214.45 85.3835 214.779 87.2696 214.733 89.1645V89.1645Z" stroke="white" stroke-width="0.16" stroke-miterlimit="3.86"/>
<path d="M244.867 98.8481L244.536 102.298H242.923C240.641 102.311 238.362 102.105 236.122 101.683C234.159 101.305 232.257 100.678 230.467 99.8178C228.313 98.7912 226.478 97.2417 225.142 95.3234C223.859 93.4669 223.182 91.285 223.199 89.0572C223.187 87.0693 223.789 85.1227 224.928 83.4624C226.09 81.7277 227.653 80.2729 229.495 79.2104C231.373 78.1386 233.421 77.37 235.558 76.9352C237.962 76.4098 240.419 76.1471 242.885 76.1519H244.051L244.264 79.5834H243.39C241.601 79.565 239.813 79.6898 238.046 79.9564C236.576 80.1799 235.136 80.555 233.751 81.0753C231.979 81.6965 230.438 82.8059 229.32 84.2644C228.27 85.632 227.699 87.2838 227.688 88.9826C227.628 90.7867 228.165 92.5625 229.223 94.0552C230.27 95.425 231.67 96.5109 233.284 97.2069C234.714 97.806 236.215 98.232 237.754 98.4751C239.491 98.7267 241.245 98.8514 243.001 98.8481H244.867Z" fill="#CC1517"/>
<path d="M244.867 98.8481L244.536 102.298H242.923C240.641 102.311 238.362 102.105 236.122 101.683C234.159 101.305 232.257 100.678 230.467 99.8178C228.313 98.7912 226.478 97.2417 225.142 95.3234C223.859 93.4669 223.182 91.285 223.199 89.0572C223.187 87.0693 223.789 85.1227 224.928 83.4624C226.09 81.7277 227.653 80.2729 229.495 79.2104C231.373 78.1386 233.421 77.37 235.558 76.9352C237.962 76.4098 240.419 76.1471 242.885 76.1519H244.051L244.264 79.5834H243.39C241.601 79.565 239.813 79.6898 238.046 79.9564C236.576 80.1799 235.136 80.555 233.751 81.0753C231.979 81.6965 230.438 82.8059 229.32 84.2644C228.27 85.632 227.699 87.2838 227.688 88.9826C227.628 90.7867 228.165 92.5625 229.223 94.0552C230.27 95.425 231.67 96.5109 233.284 97.2069C234.714 97.806 236.215 98.232 237.754 98.4751C239.491 98.7267 241.245 98.8514 243.001 98.8481H244.867Z" stroke="white" stroke-width="0.16" stroke-miterlimit="3.86"/>
<path d="M274.384 98.8478L273.996 102.298H272.46C270.177 102.312 267.899 102.105 265.659 101.683C263.689 101.305 261.781 100.678 259.984 99.8176C257.831 98.7909 255.995 97.2415 254.659 95.3231C253.376 93.4666 252.699 91.2848 252.716 89.057C252.702 87.0661 253.311 85.117 254.465 83.4622C255.62 81.7283 257.176 80.2733 259.013 79.2102C260.89 78.1384 262.939 77.3698 265.076 76.935C267.486 76.4087 269.95 76.1459 272.422 76.1517H273.568L273.782 79.5832H272.907C271.118 79.5656 269.331 79.6903 267.563 79.9561C266.1 80.1773 264.666 80.5526 263.288 81.0751C261.503 81.7202 259.955 82.8553 258.838 84.3387C257.793 85.7081 257.229 87.3601 257.225 89.057C257.15 90.8601 257.681 92.6385 258.74 94.1296C259.791 95.5037 261.198 96.5902 262.821 97.2813C264.243 97.883 265.738 98.3091 267.272 98.5495C269.008 98.8011 270.762 98.9258 272.519 98.9224H274.287L274.384 98.8478Z" fill="#CC1517"/>
<path d="M274.384 98.8478L273.996 102.298H272.46C270.177 102.312 267.899 102.105 265.659 101.683C263.689 101.305 261.781 100.678 259.984 99.8176C257.831 98.7909 255.995 97.2415 254.659 95.3231C253.376 93.4666 252.699 91.2848 252.716 89.057C252.702 87.0661 253.311 85.117 254.465 83.4622C255.62 81.7283 257.176 80.2733 259.013 79.2102C260.89 78.1384 262.939 77.3698 265.076 76.935C267.486 76.4087 269.95 76.1459 272.422 76.1517H273.568L273.782 79.5832H272.907C271.118 79.5656 269.331 79.6903 267.563 79.9561C266.1 80.1773 264.666 80.5526 263.288 81.0751C261.503 81.7202 259.955 82.8553 258.838 84.3387C257.793 85.7081 257.229 87.3601 257.225 89.057C257.15 90.8601 257.681 92.6385 258.74 94.1296C259.791 95.5037 261.198 96.5902 262.821 97.2813C264.243 97.883 265.738 98.3091 267.272 98.5495C269.008 98.8011 270.762 98.9258 272.519 98.9224H274.287L274.384 98.8478Z" stroke="white" stroke-width="0.16" stroke-miterlimit="3.86"/>
<path fill-rule="evenodd" clip-rule="evenodd" d="M305.411 89.3548C305.411 87.7525 305.122 86.1624 304.556 84.6551C304.028 83.1786 303.135 81.8473 301.952 80.7761C301.216 80.1104 300.342 79.6019 299.386 79.2842C298.409 78.9169 297.366 78.7333 296.316 78.7433C295.187 78.7191 294.064 78.9093 293.012 79.3028C291.999 79.7386 291.091 80.374 290.35 81.1677C289.319 82.18 288.53 83.3954 288.037 84.7297C287.47 86.1521 287.187 87.6641 287.202 89.1869C287.177 90.8397 287.467 92.4829 288.057 94.0357C288.645 95.477 289.592 96.7578 290.816 97.7656C291.542 98.3833 292.387 98.8585 293.304 99.1643C294.26 99.4803 295.266 99.638 296.277 99.6305C297.386 99.6427 298.487 99.4529 299.523 99.071C300.518 98.6971 301.424 98.1323 302.185 97.4112C303.239 96.3846 304.06 95.1589 304.595 93.8119C305.131 92.3949 305.407 90.8995 305.411 89.3921V89.3548ZM309.842 89.2056C309.849 91.1691 309.453 93.1147 308.676 94.9309C307.945 96.689 306.824 98.2735 305.391 99.5746C304.204 100.634 302.82 101.469 301.31 102.036C299.709 102.644 297.999 102.942 296.277 102.913C294.587 102.915 292.909 102.631 291.322 102.074C289.785 101.514 288.374 100.678 287.163 99.6119C285.737 98.3089 284.623 96.7246 283.898 94.9682C283.148 93.113 282.765 91.1396 282.771 89.1496C282.745 87.2988 283.075 85.4591 283.743 83.7227C284.419 82.0416 285.466 80.521 286.813 79.2655C288.032 78.0548 289.502 77.102 291.127 76.4681C292.775 75.8251 294.537 75.4958 296.316 75.4984C298.089 75.483 299.849 75.7866 301.505 76.3935C303.085 76.9766 304.512 77.8872 305.683 79.0604C307.057 80.3453 308.119 81.9054 308.792 83.6294C309.512 85.4126 309.869 87.312 309.842 89.2242" fill="#CC1517"/>
<path d="M305.411 89.3548C305.411 87.7525 305.122 86.1624 304.556 84.6552C304.028 83.1786 303.135 81.8473 301.952 80.7761C301.216 80.1104 300.342 79.6019 299.386 79.2842C298.408 78.9169 297.366 78.7333 296.316 78.7433C295.187 78.7192 294.064 78.9093 293.012 79.3028C291.999 79.7386 291.091 80.374 290.35 81.1677C289.319 82.18 288.53 83.3954 288.037 84.7298C287.47 86.1522 287.187 87.6641 287.202 89.1869C287.177 90.8397 287.467 92.4829 288.057 94.0358C288.645 95.477 289.592 96.7578 290.816 97.7656C291.542 98.3834 292.387 98.8585 293.304 99.1643C294.26 99.4804 295.266 99.638 296.277 99.6305C297.386 99.6428 298.487 99.4529 299.522 99.0711C300.518 98.6971 301.424 98.1323 302.185 97.4113C303.239 96.3846 304.06 95.1589 304.595 93.812C305.135 92.3832 305.411 90.8748 305.411 89.3548ZM309.842 89.1683C309.849 91.1318 309.453 93.0774 308.676 94.8936C307.945 96.6517 306.824 98.2362 305.391 99.5373C304.204 100.597 302.82 101.432 301.31 101.999C299.709 102.607 297.999 102.905 296.277 102.876C294.587 102.878 292.909 102.594 291.322 102.036C289.785 101.477 288.374 100.641 287.163 99.5746C285.737 98.2716 284.623 96.6873 283.898 94.9309C283.148 93.0758 282.765 91.1023 282.771 89.1123C282.745 87.2615 283.075 85.4219 283.743 83.6854C284.419 82.0043 285.466 80.4837 286.813 79.2282C288.036 78.031 289.505 77.091 291.127 76.4681C292.775 75.8251 294.537 75.4958 296.316 75.4984C298.089 75.483 299.849 75.7866 301.505 76.3935C303.085 76.9766 304.512 77.8872 305.683 79.0604C307.057 80.3453 308.119 81.9055 308.792 83.6294C309.505 85.3951 309.861 87.2748 309.842 89.1683V89.1683Z" stroke="white" stroke-width="0.16" stroke-miterlimit="3.86"/>
</g>
<defs>
<clipPath id="clip0">
<rect width="310" height="103" fill="white"/>
</clipPath>
</defs>
</svg>
