<svg width="285" height="286" viewBox="0 0 285 286" fill="none" xmlns="http://www.w3.org/2000/svg">
<g style="mix-blend-mode:luminosity">
<path fill-rule="evenodd" clip-rule="evenodd" d="M158.508 120.545C158.508 121.527 158.968 122.869 160.532 122.869C161.617 122.869 165.598 120.254 165.598 116.622C165.598 114.806 164.876 114.444 164.44 114.444C164.007 114.444 158.508 114.806 158.508 120.545Z" fill="black"/>
<path fill-rule="evenodd" clip-rule="evenodd" d="M269.334 99.4033C268.237 99.0161 266.495 99.154 263.674 100.331C262.837 100.679 262.589 100.785 260.823 101.712C254.106 105.239 246.904 114.392 240.944 124.035C232.454 123.2 213.981 118.969 212.109 99.8722C211.278 91.3881 221.301 68.2299 262.05 80.812C257.712 73.4008 253.142 71.9882 251.264 71.2835L251.031 72.1069C255.602 74.107 257.832 76.5774 259.705 78.9307C227.705 70.1068 207.626 82.3996 209.059 101.283C210.462 119.778 231.543 124.189 240.314 125.066C236.581 131.218 233.375 137.494 231.146 142.573C230.776 143.417 230.464 144.31 230.222 145.226C227.164 150.242 220.32 159.461 217.111 158.041C216.886 157.94 214.527 156.879 216.536 153.076C220.47 145.694 224.535 138.382 228.728 131.145C226.889 132.184 224.702 133.106 222.057 131.722C221.848 132.161 221.361 133.092 220.714 134.335C220.92 132.328 220.503 130.787 219.069 130.222C216.251 129.111 203.937 131.974 198.89 144.982C189.054 157.646 186.103 157.582 184.635 157.582C184.274 157.582 183.116 157.437 183.55 154.824C183.807 153.279 189.303 142.675 194.306 133.169H203.405L204.072 131.871H194.986C197.856 126.424 200.473 121.502 201.715 119.091C199.107 121.996 195.997 121.778 194.404 121.269C192.659 124.819 190.882 128.353 189.073 131.871H183.916L183.249 133.169H188.404C187.634 134.661 186.854 136.148 186.062 137.629C180.733 146.487 176.957 149.417 174.285 151.06C174.906 149.81 175.246 148.701 175.299 147.997C175.582 144.015 173.424 137.584 172.024 133.693L172.042 133.69C171.609 132.528 171.609 131.439 171.969 130.495C172.33 129.55 173.852 127.372 174.357 126.355C174.866 125.338 175.14 123.014 173.779 122.796C171.968 122.505 169.868 125.338 170.086 128.172C170.18 129.39 170.247 130.473 170.288 131.376C169.046 133.669 165.471 139.694 161.296 145.387C160.557 144.95 159.108 145.037 158 145.892C156.409 147.126 155.322 149.45 155.322 151.34C155.322 151.741 155.337 152.161 155.371 152.589C152.532 155.548 149.778 157.585 147.578 157.585C146.827 157.585 145.554 155.627 147.217 152.429C147.217 152.429 149.822 145.601 158.725 130.931C156.119 132.093 153.801 133.255 152.21 131.222C147.702 139.954 145.274 144.064 144.081 147.379C140.862 151.76 134.794 159.103 131.725 158.291C129.939 157.82 131.49 154.449 132.038 153.576C133.292 151.585 139.033 144.355 139.243 141.317C139.443 138.403 138.776 136.932 133.747 130.439C135.001 127.879 136.654 123.386 135.171 122.772C133.396 122.039 130.889 125.393 131.413 127.697C131.731 129.096 132.009 129.954 132.343 130.6C131.018 133.842 122.902 151.813 106.53 155.41C110.451 148.389 114.599 141.533 118.495 135.893C118.236 135.703 117.957 135.543 117.662 135.417L117.656 135.412L117.646 135.409C117.384 135.302 117.174 135.258 116.967 135.197L116.966 135.2C108.18 132.762 101.194 141.441 92.0034 155.006C82.3514 151.902 82.347 142.862 82.5466 139.01C83.9349 112.368 105.77 93.044 116.142 93.9209L116.077 93.9669C106.421 101.055 101.592 111.104 102.486 117.564C103.379 124.024 107.314 129.589 112.68 129.589C118.044 129.589 128.506 123.935 130.205 108.324C131.005 100.975 128.024 94.9506 120.508 93.0618C123 91.3689 125.923 89.8495 129.346 88.6135C129.452 88.7931 129.56 88.9637 129.67 89.121C132.072 92.5826 137.719 103.593 161.262 103.593C177.087 103.593 179.204 94.1865 179.204 92.5306C179.204 89.48 175.857 82.3017 155.51 82.3017C147.106 82.3017 138.434 83.8448 130.744 86.523C130.529 84.5971 130.699 81.7082 131.741 78.7378C143.157 79.5034 156.596 78.2081 158.818 70.9956C160.557 65.3529 153.519 63.0858 147.638 64.2654C146.593 64.4761 132.52 67.1557 128.713 76.7451C127.628 76.5776 126.546 76.3956 125.466 76.1991C110.624 73.5076 97.8378 67.1364 85.588 59.9581C73.8512 53.0809 64.007 46.3729 58.2185 44.2082C65.317 46.6786 70.625 47.4279 92.8624 49.7677C105.463 51.0927 130.852 50.6179 136.521 50.0942C142.19 49.5704 166.953 48.1979 178.942 48.4591C190.932 48.7217 197.418 56.3081 198.134 57.9431C198.273 58.2607 198.388 58.5767 198.495 58.8898C193.525 61.651 190.259 64.6051 188.976 66.3767C186.564 69.7122 187.46 73.15 189.236 74.0269C192.866 75.8163 199.99 67.991 199.99 62.1258C199.99 61.2549 199.871 60.3884 199.647 59.5337C200.037 59.329 200.432 59.1257 200.837 58.9224C207.875 55.3911 217.91 53.5602 228.335 53.6255C238.76 53.6907 245.474 57.5485 248.732 59.8379C256.41 65.2313 249.122 70.4971 242.996 67.4895C242.825 67.4058 242.655 67.3212 242.485 67.2358C242.294 66.3812 241.309 65.298 239.897 64.4983C238.025 63.4389 236.117 63.2787 235.632 64.1422C235.147 65.0058 235.808 66.6156 237.679 67.6765C239.201 68.54 241.058 68.77 241.957 68.359C250.367 72.5135 252.601 68.8753 253.164 66.2476C253.75 63.5012 252.252 58.2711 243.975 54.4771C235.698 50.6847 226.348 51.066 215.432 52.9726C209 54.0973 203.566 56.1864 199.295 58.458C196.456 50.9859 184.842 44.7334 165.257 44.7334C151.965 44.7334 115.604 47.6104 111.89 47.6757C83.4648 48.1757 60.5413 44.6681 57.4792 43.947C59.1204 44.7942 65.0213 48.1149 67.2569 49.6401C69.4924 51.1654 90.862 65.5221 98.6406 68.6617C105.97 71.6203 117.106 76.9662 128.166 78.401C127.239 81.9115 127.747 85.0526 128.679 87.2752C124.777 88.7738 121.171 90.5691 118.042 92.6078C117.064 92.4935 116.079 92.437 115.094 92.4386C109.103 92.4386 91.3987 97.7326 81.9212 116.395C73.1977 133.572 75.3076 152.423 90.896 156.642C89.6126 158.551 88.2849 160.548 86.9009 162.617C85.167 165.218 83.4173 167.808 81.6521 170.388C79.8933 170.146 78.1269 169.962 76.3559 169.838C73.4993 169.67 71.1883 170.887 69.6699 173.362C69.643 173.406 69.625 173.455 69.6169 173.506C69.6088 173.556 69.6108 173.608 69.6227 173.659C69.6347 173.709 69.6563 173.756 69.6865 173.798C69.7167 173.84 69.7547 173.875 69.7985 173.902C69.8423 173.929 69.8909 173.947 69.9417 173.955C69.9924 173.963 70.0443 173.961 70.0942 173.949C70.1442 173.937 70.1913 173.915 70.2329 173.885C70.2745 173.855 70.3098 173.817 70.3367 173.773C71.7132 171.529 73.7462 170.832 76.3337 170.982C77.4175 171.046 79.0483 171.219 80.9098 171.472C80.1794 172.526 79.4431 173.581 78.6979 174.63C66.3165 192.041 56.5521 200.799 49.1993 205.206C42.5902 203.595 36.5695 203.062 30.7085 203.27C27.0003 203.403 24.1053 204.27 21.7588 205.532C16.6489 201.394 14.3232 194.958 14.3232 190.038C14.3232 177.496 20.3409 170.216 25.4803 166.028C31.2408 161.336 37.5217 158.992 40.393 158.992C45.5369 158.992 47.6941 160.789 48.8533 161.753L49.05 161.918C49.1309 161.978 49.2319 162.005 49.3319 161.993C49.432 161.98 49.5235 161.929 49.5873 161.851C49.6511 161.773 49.6824 161.673 49.6745 161.572C49.6667 161.471 49.6204 161.377 49.5453 161.309L49.3531 161.151C48.1185 160.122 45.8193 158.207 40.393 158.207C33.6346 158.207 13.0738 164.953 13.0738 190.144C13.0738 195.198 15.6169 201.738 20.9234 206.016C17.4769 208.129 15.2828 211.108 13.3636 213.721L12.6554 214.68C12.5936 214.763 12.5673 214.868 12.5822 214.971C12.5972 215.074 12.6522 215.167 12.7352 215.23C12.8185 215.291 12.9226 215.317 13.0247 215.302C13.1269 215.287 13.2189 215.231 13.2808 215.148L13.9935 214.184C15.713 212.184 18.0757 208.982 21.9096 206.762C25.0737 209 29.1102 210.451 34.0648 210.451C36.7321 210.451 41.5404 210.451 48.6522 206.423C55.2761 208.176 62.5151 211.047 70.9192 215.264C97.5391 228.621 110.67 229.452 120.665 222.169C120.707 222.139 120.742 222.101 120.769 222.057C120.796 222.013 120.814 221.965 120.822 221.914C120.83 221.863 120.828 221.811 120.816 221.761C120.804 221.711 120.783 221.664 120.752 221.622C120.722 221.58 120.684 221.545 120.641 221.518C120.597 221.491 120.548 221.473 120.498 221.465C120.447 221.457 120.395 221.459 120.345 221.471C120.295 221.483 120.248 221.504 120.207 221.534C111.056 228.199 92.1557 224.094 71.5935 213.776C63.6581 209.794 56.6749 207.126 50.255 205.467C57.6285 200.873 67.2687 192.047 79.3352 175.08C80.1602 173.921 80.9704 172.756 81.7748 171.587C83.6422 171.857 85.6796 172.202 87.6047 172.596C88.3839 172.755 89.1454 172.915 89.8802 173.068C86.7442 178.766 84.38 184.175 84.38 187.555C84.38 197.246 88.3499 198.458 89.9571 198.458C91.551 198.458 99.0517 199.06 117.361 166.679C119.689 168.917 121.941 171.808 121.739 173.028C121.53 174.286 113.976 186.643 113.343 188.141C112.521 190.088 111.018 198.458 116.17 198.458C120.242 198.458 126.696 191.975 129.097 188.515L129.486 188.026C129.297 188.799 129.136 189.579 129.004 190.364C128.666 192.441 129.349 198.458 133.833 198.458C137.769 198.458 141.266 194.624 144.006 191.187C137.571 203.927 130.181 218.159 127.165 222.514C128.858 221.914 131.643 220.714 133.934 221.914C137.198 215.229 141.952 205.81 146.7 196.587C146.927 197.094 147.254 197.545 147.733 197.864C148.438 198.326 149.333 198.4 150.399 198.09C152.68 197.427 157.021 194.885 161.691 189.361C161.415 190.514 161.277 191.696 161.281 192.882C161.281 196.974 163.389 198.458 164.827 198.458C168.626 198.458 172.361 196.125 177.591 189.723C177.351 190.704 177.228 191.71 177.224 192.72C177.224 196.815 179.333 198.458 180.77 198.458C184.206 198.458 187.88 196.232 192.986 190.161C192.885 192.699 194.065 198.458 198.192 198.458C200.124 198.458 201.888 198.093 203.594 197.029L203.591 197.063C203.591 202.146 207.869 203.928 211.633 203.928C222.462 203.928 229.506 191.894 230.903 186.051C231.484 183.616 231.088 180.579 230.383 177.757C232.164 177.602 234.064 177.519 236.091 177.519C246.038 177.519 253.912 186.972 253.912 195.881C253.912 212.414 233.488 233.446 205.329 233.446C188.467 233.446 181.175 225.552 181.175 221.524H180.393C180.393 223.413 181.917 226.625 186.22 229.465C189.515 231.642 195.504 234.232 205.329 234.232C233.936 234.232 255.818 216.294 255.818 195.881C255.818 186.83 248.734 175.65 235.503 175.65C233.536 175.65 231.662 175.742 229.874 175.917C229.086 173.289 228.144 171.052 227.686 169.97C229.237 168.973 231.258 165.327 231.676 162.882C231.982 161.094 230.967 160.584 230.538 160.505C228.384 160.119 226.602 165.415 226.478 166.924C226.377 168.17 226.527 169.098 226.72 169.801C225.236 172.411 223.62 174.943 221.878 177.387C210.258 180.668 204.044 188.165 203.618 196.177C201.984 196.965 201.867 197.001 200.918 197.096C194.819 197.707 197.71 189.836 201.291 182.404C218.312 179.668 218.973 169.074 215.81 167.305C207.638 162.735 196.601 174.648 193.516 187.226C189.266 192.564 184.821 196.931 181.709 196.931C180.958 196.931 179.685 194.973 181.348 191.775C181.348 191.775 185.235 183.249 194.137 168.58C192.258 169.417 188.509 170.003 187.623 168.869C183.603 176.653 180.842 181.573 179.182 185.282C174.467 191.53 169.265 197.088 165.765 197.088C165.014 197.088 163.741 195.13 165.402 191.932C165.402 191.932 169.373 183.247 178.273 168.578C177.51 168.92 172.976 170.421 171.761 168.868C168.047 176.058 165.39 180.598 163.678 184.131C158.115 192.346 152.568 195.818 149.961 196.578C149.355 196.754 148.892 196.743 148.589 196.547C148.086 196.216 147.884 195.336 147.76 194.518C153.501 183.399 159.068 172.886 161.812 168.176C159.973 169.213 157.786 170.138 155.141 168.753C154.99 169.072 154.489 170.104 153.723 171.663C153.974 169.69 153.635 168.176 152.345 167.568C148.146 165.591 135.967 171.123 130.863 183.709C128.611 187.06 120.451 197.95 116.774 196.979C114.988 196.507 116.747 192.682 117.296 191.809C118.549 189.818 125.076 180.988 125.284 177.948C125.485 175.021 124.811 173.549 118.313 165.701C118.625 164.345 120.384 159.897 120.73 158.993C121.103 158.02 120.656 157.348 119.312 157.348C117.968 157.348 115.654 161.692 115.504 163.039C115.402 163.973 115.798 164.799 116.225 165.393C112.706 171.954 95.3509 200.22 90.0621 196.815C88.8748 196.05 88.6042 193.714 90.0621 189.6C91.4135 185.787 93.7806 180.347 96.7451 174.197C102.865 174.86 104.933 174.055 106.853 172.23C106.928 172.158 106.972 172.059 106.975 171.955C106.978 171.851 106.94 171.749 106.869 171.673C106.797 171.599 106.699 171.555 106.595 171.552C106.492 171.55 106.392 171.588 106.316 171.659C104.78 173.118 101.012 173.377 97.307 173.038C99.9866 167.55 102.804 162.13 105.757 156.784C119.213 153.892 128.055 143.065 132.884 131.998L133.042 131.654C134.058 132.814 135.875 135.277 135.692 136.378C135.482 137.635 128.921 148.046 128.383 149.579C127.758 151.361 126.817 159.846 131.411 159.743C135.176 159.655 140.549 154.355 143.235 150.822C143.135 151.613 143.09 152.44 143.09 153.358C143.09 157.45 145.197 159.096 146.636 159.096C148.568 159.096 151.432 157.849 155.534 153.827C156.045 156.597 157.662 159.312 162.196 159.312C167.059 159.312 170.591 156.466 172.758 153.533C174.637 152.333 177.872 150.14 181.089 146.963C177.835 155.269 181.295 159.167 184.997 159.167C188.503 159.167 194.083 153.11 198.007 147.641C197.689 148.769 197.421 149.954 197.216 151.214C196.876 153.291 197.559 159.311 202.045 159.311C206.278 159.311 210.007 154.871 212.828 151.266C212.279 152.923 212.001 154.263 212.17 155.024C212.976 158.716 215.158 159.311 216.883 159.311C218.417 159.311 222.968 159.198 229.627 148.751C229.246 154.17 231.369 159.311 237.242 159.311C245.405 159.311 249.094 151.446 250.127 147.407L249.437 147.175C245.056 157.15 241.42 157.975 237.551 157.975C228.464 157.975 238.441 139.079 246.35 125.145C257.239 124.446 266.079 119.879 271.291 109.199C274.053 103.558 271.154 100.044 269.334 99.4033ZM191.389 73.2999C189.122 74.1471 187.823 71.6722 188.342 69.2255C188.89 66.6542 192.878 63.2238 198.804 59.9877C200.31 66.6453 194.751 72.0431 191.389 73.2999ZM140.932 68.8457C149.819 65.0265 151.015 65.7268 153.27 66.1542C156.443 66.7521 160.602 70.8205 153.539 74.2302C147.68 77.0582 142.431 78.4024 132.34 77.2422C133.829 73.9586 136.475 70.7612 140.932 68.8457ZM171.244 85.6238C176.875 88.3153 178.409 91.0884 177.949 92.9802C177.495 94.8438 173.837 102.581 161.497 102.581C148.444 102.581 133.546 97.6614 131.025 88.0393C150.028 81.729 165.717 82.9827 171.244 85.6238ZM129.04 107.249C128.861 118.824 119.83 128.424 112.498 128.424C107.948 128.424 105.035 124.099 106.15 116.131C106.697 112.215 108.923 101.991 118.679 94.3927C122.762 95.2503 129.196 97.1569 129.04 107.249ZM34.0619 209.676C29.4429 209.676 25.708 208.354 22.7775 206.304C24.9481 205.2 27.5562 204.419 30.7336 204.304C36.1274 204.112 41.5981 204.675 47.5478 206.152C41.0096 209.676 36.5695 209.676 34.0619 209.676ZM227.352 179.872C222.462 199.97 211.221 201.955 207.966 201.955C205.361 201.955 204.492 198.422 204.373 197.078C204.373 196.956 204.376 196.829 204.382 196.698C211.175 193.336 216.444 187.549 222.273 179.131C224.063 178.668 225.879 178.313 227.711 178.07C227.622 178.632 227.507 179.232 227.352 179.872ZM227.195 171.67C227.579 172.731 227.952 174.157 227.885 176.165C226.505 176.354 225.134 176.606 223.777 176.918C224.885 175.264 226.019 173.513 227.195 171.67ZM220.138 179.761C213.45 188.524 206.8 193.955 204.483 195.63C205.104 191.208 208.612 183.534 220.138 179.761ZM215.615 172.887C212.652 178.527 205.649 180.309 202.19 180.598C211.142 162.956 218.399 167.593 215.615 172.887ZM137.169 183.68C143.416 173.01 149.058 167.379 151.771 168.741C153.613 169.663 152.147 175.877 146.374 185.266C141.204 193.676 136.518 197.255 134.178 196.609C132.88 196.251 131.762 192.916 137.169 183.68ZM116.473 135.893C114.372 138.607 106.433 147.635 105.191 149.457C104.797 150.034 102.973 152.543 100.555 156.064C97.4933 156.131 94.9457 155.824 92.8255 155.247C101.162 143.177 108.736 134.133 116.473 135.893ZM90.5042 171.955C89.6052 171.782 88.6826 171.602 87.8102 171.423C86.0552 171.068 84.29 170.765 82.517 170.516C84.2082 168.04 85.8854 165.555 87.5485 163.06C88.9309 160.987 90.3222 158.919 91.7225 156.858C92.8314 157.113 94.0024 157.299 95.24 157.409C96.7215 157.536 98.1586 157.567 99.5559 157.53C96.7496 161.67 93.3652 166.881 90.5042 171.955ZM161.691 157.511C159.86 157.511 157.391 156.234 157.091 152.239C160.636 148.438 165.007 142.711 170.361 134.258C170.762 141.157 171.294 157.511 161.691 157.511ZM202.389 157.465C201.125 157.004 199.972 153.771 205.377 144.537C211.627 133.866 215.779 130.016 218.494 131.376C220.333 132.301 218.953 138.071 214.006 146.614C209.06 155.155 203.893 158.013 202.389 157.465ZM266.974 113.754C262.005 120.854 252.143 123.336 247.002 124.011C257.127 106.367 266.35 100.734 269.085 101.283C270.258 101.519 273.073 105.049 266.974 113.754Z" fill="black"/>
<path fill-rule="evenodd" clip-rule="evenodd" d="M27.5163 190.475C27.1777 192.556 27.7499 198.471 32.2344 198.471C36.5 198.471 41.4221 193.695 44.3674 190.049C43.7523 191.548 43.396 192.612 43.396 193.06C43.396 196.842 46.4329 198.404 48.1554 198.404C49.2747 198.404 53.2757 198.031 57.4511 190.368L56.8759 188.638C54.1406 195.124 49.5822 197.62 47.7961 196.829C47.5684 196.731 45.9775 195.78 47.9898 191.98C49.943 188.284 64.3175 161.12 69.4924 152.232C67.6531 153.272 65.4663 154.196 62.8212 152.812C62.2165 154.084 56.8789 164.25 51.9509 174.077C52.5778 171.15 52.3811 168.793 50.5817 168.084C47.3629 166.814 30.5074 172.123 27.5163 190.475ZM45.4955 185.456C40.5498 193.999 34.4936 196.732 32.9899 196.183C31.7243 195.72 31.016 192.176 36.4231 182.939C42.67 172.27 47.6557 168.333 50.3703 169.696C52.2096 170.621 50.4413 176.915 45.4955 185.456ZM69.7867 163.67V164.853C71.6097 164.853 78.2617 163.992 80.1927 155.165C80.6777 152.952 80.0789 151.253 78.7984 150.966C77.8329 150.751 74.6141 151.505 74.0774 155.058C73.5407 158.612 74.5077 159.33 76.0069 159.33C76.0099 160.655 74.2933 163.452 69.7867 163.67ZM185.449 208.326V207.843H181.608V215.334H182.189V211.656H185.132V211.172H182.189V208.326H185.449ZM191.352 209.776C191.352 208.776 190.704 207.843 188.877 207.843H186.962V215.334H187.54V211.743H188.548C189.446 211.743 189.733 211.865 190.627 213.279L191.933 215.334H192.612L190.924 212.743C190.573 212.217 190.277 211.786 189.928 211.601C190.882 211.248 191.352 210.645 191.352 209.776ZM188.779 211.26H187.54V208.326H188.755C190.125 208.326 190.728 208.94 190.728 209.786C190.728 210.688 190.092 211.26 188.779 211.26ZM198.39 212.743L199.574 215.334H200.174L196.726 207.788H196.408L192.96 215.334H193.561L194.745 212.743H198.39ZM196.561 208.733L198.169 212.26H194.964L196.561 208.733ZM207.87 215.334H208.352V207.843H207.771V214.389L202.111 207.843H201.617V215.334H202.198V208.788L207.87 215.334ZM214.176 208.283C215.063 208.283 215.906 208.512 216.836 209.007V208.369C215.927 207.952 215.04 207.743 214.209 207.743C212.161 207.743 210.291 209.303 210.291 211.601C210.291 213.797 211.985 215.435 214.265 215.435C215.128 215.435 216.05 215.191 216.913 214.73V214.128C215.896 214.663 215.096 214.896 214.253 214.896C212.304 214.896 210.915 213.534 210.915 211.601C210.913 209.7 212.315 208.283 214.176 208.283ZM222.659 208.326V207.843H218.587V215.334H222.747V214.853H219.166V211.81H222.571V211.326H219.166V208.326H222.659ZM233.211 167.782C233.211 168.272 233.307 168.757 233.494 169.21C233.681 169.662 233.955 170.074 234.3 170.42C234.645 170.767 235.055 171.042 235.506 171.23C235.957 171.417 236.441 171.514 236.929 171.514C237.417 171.514 237.901 171.418 238.352 171.23C238.803 171.043 239.213 170.768 239.559 170.421C239.904 170.075 240.178 169.664 240.365 169.211C240.552 168.758 240.648 168.273 240.648 167.783C240.648 166.793 240.257 165.844 239.56 165.144C238.862 164.444 237.917 164.051 236.93 164.051C235.944 164.05 234.998 164.443 234.301 165.143C233.603 165.843 233.211 166.792 233.211 167.782ZM238.215 166.124C238.572 166.321 238.754 166.641 238.754 167.083C238.754 167.422 238.66 167.666 238.469 167.813C238.267 167.969 238.024 168.062 237.77 168.083C237.977 168.116 238.174 168.195 238.348 168.314C238.584 168.509 238.705 168.81 238.705 169.224V169.586C238.705 169.626 238.705 169.667 238.711 169.704C238.718 169.745 238.728 169.784 238.741 169.823L238.778 169.939H237.764C237.725 169.754 237.703 169.566 237.697 169.377C237.698 169.209 237.674 169.042 237.628 168.881C237.603 168.813 237.564 168.75 237.514 168.699C237.463 168.647 237.401 168.608 237.333 168.583C237.217 168.544 237.095 168.522 236.973 168.519L236.739 168.504H236.517V169.939H235.469V165.905C236.119 165.904 236.77 165.907 237.421 165.913C237.741 165.939 238.005 166.008 238.215 166.124Z" fill="black"/>
<path fill-rule="evenodd" clip-rule="evenodd" d="M236.517 167.782H236.929C237.175 167.782 237.368 167.733 237.507 167.633C237.646 167.534 237.716 167.372 237.716 167.15C237.716 166.93 237.606 166.776 237.389 166.688C237.191 166.624 236.984 166.596 236.777 166.603H236.517V167.782Z" fill="black"/>
</g>
</svg>
