<svg width="303" height="107" viewBox="0 0 303 107" fill="none" xmlns="http://www.w3.org/2000/svg">
<g style="mix-blend-mode:luminosity">
<path fill-rule="evenodd" clip-rule="evenodd" d="M297.245 28.8179C298.093 28.8179 298.926 29.0364 299.743 29.475C300.558 29.9137 301.186 30.5381 301.644 31.3569C302.1 32.1723 302.323 33.0204 302.323 33.9114C302.323 34.7853 302.105 35.623 301.647 36.435C301.209 37.2417 300.576 37.8748 299.774 38.3134C298.969 38.7693 298.122 38.9895 297.245 38.9895C296.358 38.9895 295.518 38.7693 294.711 38.3134C293.901 37.8748 293.275 37.2417 292.829 36.435C292.372 35.623 292.153 34.7853 292.153 33.9114C292.153 33.0204 292.377 32.1723 292.835 31.3569C293.294 30.5381 293.923 29.9137 294.744 29.475C295.556 29.0364 296.392 28.8179 297.245 28.8179ZM38.0428 62.8102C38.7001 62.1873 36.1956 60.9617 35.515 59.8604C34.3579 57.9929 34.2571 55.3671 32.5658 53.962C24.9551 47.6409 16.0787 43.0027 8.12943 37.1093C7.79072 36.8599 7.71744 35.9258 8.12943 35.8467C28.8982 31.7973 55.8483 28.0249 76.1958 35.7211C78.2709 36.5055 75.2397 39.1546 74.4032 41.2051C73.049 44.5251 74.5482 44.9672 73.5503 47.0194C67.0694 60.3522 58.5463 75.0278 51.5249 88.0885C48.2835 86.064 48.0463 83.71 48.5758 80.8093C48.733 79.9385 46.4336 81.185 46.322 82.0631C46.0452 84.2309 46.6493 85.4196 46.4692 87.6672C36.2172 87.2459 25.7999 88.2861 15.7131 86.4034C14.1696 86.1151 15.6311 83.1403 14.8704 81.7688C14.146 80.4659 13.7141 79.7052 12.2249 79.7866C10.4302 79.8846 8.43185 81.41 8.01246 83.157C7.3144 86.0506 7.5394 90.5749 10.0015 92.2466C19.9115 98.9757 35.1099 97.2312 46.3516 96.9362C46.07 98.9017 44.2834 100.913 44.784 102.835C45.2099 104.47 46.4632 106.626 48.1545 106.626C50.1495 106.626 51.6534 104.475 52.7889 102.835C54.2571 100.712 53.3036 98.301 54.2874 95.9142C63.5604 94.798 73.0074 91.3039 79.3319 87.2459C79.7835 86.9557 82.054 90.1467 86.9968 85.9907C92.2314 81.5873 98.7991 75.4396 100.818 74.1851C102.967 72.8519 96.3888 87.5356 102.2 88.6894C112.903 90.8167 120.54 78.776 122.305 78.157C122.322 82.8499 124.586 87.8231 127.783 86.8246C134.417 84.753 139.067 78.1053 142.529 72.0785C146.864 64.5311 148.473 57.3439 151.017 47.9466C152.794 49.095 154.793 50.027 155.707 50.357C149.201 61.297 145.694 70.5861 144.994 81.7688C144.846 84.153 148.674 87.119 150.955 86.4034C157.201 84.446 162.871 79.327 166.965 75.0278C167.148 80.1695 171.839 85.134 175.874 84.6004C185.679 83.307 192.744 77.7767 196.395 70.1514C200.17 62.2634 200.174 50.9764 194.351 44.2722C191.105 40.5394 183.742 40.2143 179.605 41.8605C163.057 48.4465 170.922 53.374 170.211 54.8045C166.102 63.0791 160.669 70.7655 153.483 75.8704C155.298 64.3799 162.264 58.3102 164.858 48.9068C165.723 45.7688 166.081 41.3204 163.594 39.2165C161.127 37.1282 157.083 40.2229 153.904 39.638C151.556 39.2062 149.963 36.0617 147.584 36.2681C145.792 36.4229 144.07 38.6884 144.214 40.4792C145.229 53.1248 140.665 64.1346 131.878 72.4998C134.058 66.7526 137.388 59.6514 137.894 52.6987C138.041 50.6795 134.245 47.8713 132.838 49.3281C127.23 55.1338 123.877 70.4853 109.245 76.7131C112.474 65.6178 117.959 55.5451 119.902 44.1535C120.126 42.8427 116.12 41.2602 115.143 42.165C107.839 48.9392 101.124 64.7644 95.7632 64.9168C97.2651 59.9208 100.119 47.618 96.5985 41.9723C90.7417 32.5817 82.1192 28.1831 71.3262 25.7336C57.9933 22.7077 14.4533 20.7862 1.38835 30.7893C-1.17785 32.7537 0.14657 39.177 2.659 41.2051C12.0912 48.8174 22.5549 53.3001 33.8297 62.3882C34.927 63.2733 37.5316 63.2941 38.0428 62.8102ZM219.827 40.6959C217.863 35.7348 231.038 8.93573 232.445 10.8245C234.829 14.0224 220.823 43.2177 219.827 40.6959ZM224.462 46.6203C224.522 49.7098 226.183 54.8617 227.811 54.3449C224.203 60.7494 218.922 70.654 213.903 70.8267C211.243 70.9174 213.239 59.6683 215.449 54.6022C219.065 53.0959 222.631 48.6784 224.462 46.6203ZM206.435 48.4217C204.803 50.2723 200.993 49.1628 200.511 53.5729C200.134 57.0415 202.759 57.3049 204.375 58.9802C203.831 61.9413 200.962 81.3355 209.525 82.1579C215.028 82.6853 220.374 78.4185 224.203 74.4318C229.214 69.2201 231.946 64.4881 235.02 55.6332C237.225 54.9349 239.35 53.372 239.656 54.8596C236.439 59.1374 235.213 77.139 243.717 78.825C250.161 80.1017 256.483 74.644 258.971 69.7967C263.98 60.0304 266.135 50.494 262.832 38.3788C267.35 39.146 270.277 36.4023 273.393 35.5456C278.529 34.1316 278.22 38.7796 277.255 40.6959C272.758 49.6272 266.137 56.4831 263.863 65.418C262.996 68.829 263.507 73.4352 266.18 75.7199C268.726 77.8923 273.052 76.7245 276.224 75.6634C279.432 74.5911 283.96 73.4956 287.072 72.9992C289.833 72.5604 292.566 73.2538 293.736 72.6295C296.736 71.027 296.416 62.0624 293.325 62.1753C286.853 62.4144 273.601 66.8911 272.877 65.9334C272.211 65.0566 283.213 49.3496 286.422 40.1816C289.05 32.666 284.817 26.53 276.997 26.2754C271.932 26.1086 267.083 29.776 262.06 29.1069C258.707 28.6614 257.106 23.9893 253.82 23.1842C252.131 22.7714 250.163 24.4365 249.442 26.0174C248.586 27.8907 248.027 30.2371 249.184 31.9401C251.058 34.6941 257.164 41.0606 256.652 52.2848C256.371 58.4856 251.694 71.7835 246.093 70.054C237.934 67.5341 252.202 51.0913 254.077 49.4525C254.288 47.5864 252.793 40.9453 250.569 40.3897C249.112 40.0268 248.379 41.6799 247.125 42.4987C246.148 43.1369 245.419 44.2636 244.29 44.5595C241.705 45.2338 238.567 45.9735 236.051 45.0738C236.393 41.0038 232.76 39.2286 229.87 39.4092C230.37 32.1087 236.976 26.2926 238.111 19.0643C239.1 12.7529 242.429 -0.367149 236.051 0.00785828C226.596 0.563484 221.162 12.2729 216.222 20.3527C211.051 28.8041 208.636 38.4149 206.435 48.4217ZM85.3982 40.6959L61.7065 84.9902C69.9473 83.5306 79.4831 78.3748 86.4291 65.9334C90.6726 58.3323 91.9223 44.7298 85.3982 40.6959ZM177.335 52.0274C179.31 49.9672 182.308 48.4418 184.546 49.4525C189.254 51.5771 191.499 57.3231 188.924 64.1313C186.718 69.9613 180.23 75.859 176.562 74.6898C173.782 73.8029 173.98 70.5525 175.276 67.479C176.557 64.437 178.769 62.2613 179.137 58.9802C179.409 56.5543 177.851 54.3449 177.335 52.0274ZM297.245 29.6625C296.53 29.6625 295.829 29.8483 295.153 30.2095C294.481 30.5777 293.954 31.1006 293.562 31.7766C293.185 32.463 292.996 33.1717 292.996 33.9114C292.996 34.6356 293.184 35.3409 293.56 36.0101C293.93 36.6878 294.455 37.2108 295.134 37.5806C295.805 37.9574 296.512 38.1449 297.245 38.1449C297.971 38.1449 298.675 37.9574 299.352 37.5806C300.023 37.2108 300.551 36.6878 300.918 36.0101C301.291 35.3409 301.477 34.6356 301.477 33.9114C301.477 33.1717 301.289 32.463 300.914 31.7766C300.529 31.1006 300.001 30.5777 299.328 30.2095C298.647 29.8483 297.947 29.6625 297.245 29.6625ZM295.009 36.7136V31.2417H296.893C297.531 31.2417 298 31.295 298.291 31.3965C298.571 31.498 298.799 31.6717 298.972 31.928C299.146 32.174 299.227 32.4424 299.227 32.7245C299.227 33.1253 299.088 33.4779 298.799 33.7755C298.515 34.0714 298.136 34.2348 297.663 34.2692C297.856 34.3518 298.018 34.4464 298.128 34.5634C298.355 34.7784 298.614 35.1396 298.941 35.642L299.607 36.7136H298.528L298.043 35.8553C297.663 35.1723 297.354 34.7492 297.121 34.5806C296.953 34.4516 296.717 34.3914 296.413 34.3914H295.89V36.7136H295.009ZM295.89 33.6396H296.963C297.479 33.6396 297.828 33.5588 298.018 33.4074C298.2 33.256 298.295 33.0565 298.295 32.7984C298.295 32.6436 298.243 32.4905 298.155 32.365C298.064 32.2428 297.945 32.1396 297.782 32.0777C297.624 32.014 297.331 31.9917 296.894 31.9917H295.89V33.6396Z" fill="#2A3E92"/>
</g>
</svg>
