<svg width="296" height="129" viewBox="0 0 296 129" fill="none" xmlns="http://www.w3.org/2000/svg">
<g style="mix-blend-mode:luminosity">
<path d="M112.168 20.7273C105.455 22.0392 100.137 24.4006 94.4694 28.686C75.0703 43.2914 71.8444 71.7588 87.32 92.3551C98.6979 107.529 119.056 112.645 136.188 104.599C145.561 100.183 152.187 93.492 156.677 83.9154C164.524 67.2985 161.821 48.67 149.615 34.1521C144.863 28.5548 136.232 23.3073 128.603 21.427C123.808 20.2463 116.353 19.9402 112.168 20.7273ZM127.295 24.0945C131.393 25.1439 136.755 27.7677 140.025 30.3477C145.692 34.8955 150.792 42.3294 153.277 49.807C155.195 55.5792 155.805 60.1707 155.5 66.8612C154.934 78.7992 151.01 87.7636 142.945 95.591C135.534 102.719 128.777 105.561 119.448 105.561C113.651 105.517 110.512 104.818 105.281 102.369C85.2711 92.9236 76.7704 64.8497 87.4508 43.5538C89.2382 40.0117 90.7203 37.9565 94.3386 34.1958C103.58 24.5317 115.002 21.0334 127.295 24.0945Z" fill="#D7261D"/>
</g>
<g style="mix-blend-mode:luminosity">
<path d="M267.184 44.1218C265.832 45.5211 265.484 47.795 266.399 49.5005C266.835 50.3313 269.756 51.8618 270.148 51.4245C270.235 51.3371 269.887 51.1184 269.32 50.9435C266.879 50.2001 265.702 47.7076 266.617 45.2588C266.966 44.4279 269.015 43.291 270.279 43.291C271.674 43.291 273.766 45.6086 273.766 47.0954C273.766 48.5822 272.72 50.2001 271.412 50.7249C270.758 50.9872 270.671 51.1184 271.238 51.1184C272.197 51.1621 274.202 48.7133 274.202 47.4452C274.202 45.6523 273.418 44.253 272.066 43.5096C270.104 42.5039 268.622 42.6788 267.184 44.1218Z" fill="#D7261D"/>
</g>
<g style="mix-blend-mode:luminosity">
<path d="M268.665 47.2269C268.665 48.5388 268.752 49.1073 268.839 48.4076C268.927 47.7517 269.319 47.2269 269.624 47.2269C269.973 47.2269 270.54 47.7517 270.888 48.4076C271.237 49.1073 271.542 49.4134 271.542 49.1947C271.586 48.9323 271.411 48.4951 271.193 48.1452C270.932 47.7517 270.976 47.2269 271.281 46.7459C271.673 46.1337 271.673 45.8276 271.281 45.4341C270.888 45.0405 270.801 45.128 271.019 45.8713C271.194 46.6147 271.063 46.7896 270.147 46.7896C269.319 46.7896 268.97 46.5273 268.839 45.7839C268.752 45.2591 268.665 45.9151 268.665 47.2269Z" fill="#D7261D"/>
</g>
<g style="mix-blend-mode:luminosity">
<path d="M162.821 51.7748C163.78 60.4331 163.911 81.2043 163.213 99.5704L162.952 106.698H166.09H169.229L168.924 99.1331C168.793 95.0226 168.619 89.163 168.575 86.1457L168.488 80.6796L174.591 80.4172C179.299 80.1986 181.217 79.9362 183.048 79.2365C189.718 76.6128 192.857 71.9776 192.857 64.7186C192.857 59.9959 191.68 56.8037 188.933 54.005C185.141 50.0694 180.781 49.0637 167.703 49.0199L162.516 48.9762L162.821 51.7748ZM179.038 52.6931C181.871 53.524 184.923 56.2352 186.361 59.2087C187.277 61.0891 187.495 62.226 187.538 64.9809C187.582 69.3976 186.405 72.3274 183.658 74.7762C180.999 77.1376 178.209 77.9684 172.891 78.0121L168.488 78.0559L168.357 65.287C168.27 53.4365 168.314 52.5182 169.011 52.3433C170.842 51.8623 176.989 52.0809 179.038 52.6931Z" fill="#D7261D"/>
</g>
<g style="mix-blend-mode:luminosity">
<path d="M18.4427 78.2745L18.5298 107.135H31.3027H44.0321L44.0757 106.042C44.1192 105.43 44.1628 104.512 44.1628 103.943C44.2064 102.806 44.7296 102.85 32.1746 103.419L24.415 103.768V76.6128V49.4135H21.3634H18.3555L18.4427 78.2745Z" fill="#D7261D"/>
</g>
<g style="mix-blend-mode:luminosity">
<path d="M45.5534 50.8128C45.2483 51.5999 42.3275 59.1213 39.1016 67.5609C35.8757 75.9568 31.8215 86.4955 30.0777 90.9558C25.9364 101.626 26.1107 100.576 28.3776 100.576C29.4238 100.576 30.5137 100.401 30.7752 100.226C31.0368 100.051 31.6035 98.7396 31.9959 97.2965C33.1729 93.0985 36.5732 82.7785 38.2297 78.2745C40.8453 71.1904 45.4227 60.6955 45.7714 61.089C47.1664 62.6633 53.7054 80.8545 58.1955 95.6348C60.0265 101.538 61.5958 106.567 61.7266 106.742C61.8574 106.961 63.514 107.135 65.4757 107.135C68.3092 107.135 68.9195 107.004 68.7452 106.523C68.6144 106.173 64.0371 93.186 58.5879 77.6623L48.6486 49.4135H47.3844C46.4253 49.4135 46.033 49.7196 45.5534 50.8128Z" fill="#D7261D"/>
</g>
<g style="mix-blend-mode:luminosity">
<path d="M203.188 50.3755C202.97 50.944 198.087 63.669 192.333 78.7118C180.911 108.404 181.435 106.611 184.748 106.654C185.707 106.698 186.143 106.48 186.143 106.042C186.143 105.08 192.725 85.3148 194.818 80.0236C198.305 71.1904 202.883 60.7829 203.188 61.1328C204.583 62.7507 211.427 81.8165 215.83 96.3345C217.486 101.844 218.925 106.523 219.099 106.742C219.23 106.961 220.887 107.135 222.848 107.135C225.987 107.135 226.292 107.048 226.031 106.348C225.9 105.955 221.323 92.9674 215.874 77.4874L206.021 49.4135H204.801C203.929 49.4135 203.449 49.7196 203.188 50.3755Z" fill="#D7261D"/>
</g>
<g style="mix-blend-mode:luminosity">
<path d="M228.124 78.2746L228.211 107.136H240.984H253.713V104.905V102.632L251.011 102.894C249.485 103.069 245.082 103.331 241.202 103.462L234.096 103.769L234.009 76.7004L233.878 49.6322L230.958 49.5011L227.993 49.3699L228.124 78.2746Z" fill="#D7261D"/>
</g>
<g style="mix-blend-mode:luminosity">
<path d="M255.327 49.9382C255.24 50.2443 250.881 61.4389 245.737 74.7762C240.549 88.1135 236.19 99.3955 236.059 99.789C235.797 100.489 236.059 100.576 238.064 100.576H240.418L241.683 96.0721C244.342 86.6267 251.055 68.6104 254.238 62.3572L255.109 60.6518L256.592 64.1063C259.948 71.8026 265.31 87.545 270.193 104.074L271.065 106.917L274.596 107.048C276.514 107.135 278.127 107.004 278.127 106.829C278.127 106.654 275.468 98.7833 272.242 89.4253C268.972 80.0236 264.526 67.2111 262.346 60.8704L258.379 49.4135H256.984C256.199 49.4135 255.458 49.6758 255.327 49.9382Z" fill="#D7261D"/>
</g>
</svg>
