<svg  viewBox="0 0 269 74" fill="none" xmlns="http://www.w3.org/2000/svg">
<g style="mix-blend-mode:luminosity">
<path d="M114.475 1.34842C114.254 2.05845 114.02 2.80106 113.955 2.99648L113.837 3.35475L112.023 3.38732L110.215 3.41989L111.412 4.31232C112.075 4.80088 112.719 5.28292 112.849 5.38715L113.09 5.57606L112.576 7.17202C112.296 8.04491 112.062 8.80054 112.062 8.83963C112.062 8.91779 113.356 8.03839 114.358 7.27625C114.807 6.93751 114.891 6.89843 115.008 6.96357C115.086 7.00265 115.737 7.45864 116.452 7.97325C117.167 8.49438 117.759 8.90477 117.772 8.89174C117.785 8.88522 117.577 8.20125 117.311 7.38698C117.044 6.56621 116.81 5.81708 116.79 5.72588C116.745 5.54349 116.699 5.57606 118.761 4.06479L119.632 3.41989L117.85 3.40035L116.062 3.38732L115.515 1.77183C115.216 0.885915 114.95 0.143307 114.924 0.110737C114.904 0.0846804 114.703 0.644892 114.475 1.34842Z" fill="#7F1914"/>
<path d="M99.151 3.00945C98.9104 3.73903 98.6568 4.48815 98.5852 4.67054L98.4616 5.01579H96.7056C95.743 5.01579 94.9561 5.03533 94.9561 5.06139C94.9561 5.09396 95.4959 5.50435 96.1528 5.98639C96.8162 6.46192 97.447 6.93093 97.5641 7.02864L97.7722 7.20452L97.5056 8.01878C97.1544 9.08058 96.7121 10.5137 96.7316 10.5332C96.7511 10.5462 98.9234 8.9959 99.4047 8.63111L99.6063 8.47477L100.029 8.80699C100.439 9.12618 101.967 10.2205 102.318 10.4485L102.494 10.5658L102.247 9.81667C102.104 9.40628 101.87 8.65065 101.714 8.13604L101.44 7.20452L101.655 7.02213C101.779 6.92442 102.396 6.4554 103.034 5.97987C103.665 5.50435 104.185 5.09396 104.192 5.06139C104.192 5.03533 103.405 5.01579 102.435 5.01579C101.473 5.01579 100.679 5.00276 100.679 4.98322C100.679 4.93111 99.6388 1.73269 99.6128 1.70663C99.5998 1.69361 99.3917 2.27987 99.151 3.00945Z" fill="#7F1914"/>
<path d="M130.188 1.75878C130.169 1.81089 129.921 2.57955 129.642 3.46546L129.134 5.08096L127.365 5.09398L125.59 5.11353L126.162 5.53043C127.131 6.25349 128.152 6.9961 128.308 7.10033L128.452 7.19804L127.899 8.85913C127.593 9.7711 127.352 10.5332 127.359 10.5593C127.372 10.5788 128.016 10.1294 128.803 9.56265L130.221 8.53342L130.851 8.96987C131.196 9.21089 131.847 9.6799 132.308 10.0121C132.764 10.3443 133.134 10.5919 133.134 10.5658C133.134 10.5332 132.887 9.75807 132.588 8.83959L132.048 7.17198L132.412 6.93096C132.614 6.80068 133.258 6.33817 133.85 5.90173L134.923 5.11353L133.134 5.08096L131.346 5.04839L130.786 3.35472C130.474 2.42321 130.208 1.70666 130.188 1.75878Z" fill="#7F1914"/>
<path d="M84.5829 8.08405C84.3423 8.81363 84.0886 9.56926 84.0171 9.75166L83.8935 10.0969H82.0919H80.2969L80.9798 10.5985C81.357 10.8786 82.0074 11.3541 82.4236 11.6603C82.8399 11.9664 83.1846 12.2531 83.1846 12.3052C83.1846 12.3508 82.9505 13.1129 82.6643 13.9923C82.3781 14.8652 82.1505 15.5948 82.157 15.6013C82.17 15.6143 82.8204 15.1583 83.6008 14.5916C84.713 13.7839 85.0512 13.5689 85.1293 13.621C85.1878 13.6536 85.8317 14.1161 86.5666 14.6502C87.3015 15.1779 87.9064 15.6078 87.9194 15.6013C87.9324 15.5883 87.7048 14.8587 87.4186 13.9728C87.1259 13.0934 86.8918 12.3312 86.8918 12.2922C86.8918 12.2205 87.4056 11.8297 89.2007 10.5203L89.786 10.0969H87.9649H86.1439L85.63 8.50747C85.3439 7.62807 85.0967 6.87895 85.0707 6.83335C85.0447 6.79426 84.8236 7.35447 84.5829 8.08405Z" fill="#7F1914"/>
<path d="M144.724 6.9831C144.645 7.17201 143.917 9.44543 143.793 9.88187L143.715 10.162L141.901 10.175L140.093 10.1945L141.309 11.0935C141.985 11.582 142.629 12.0706 142.74 12.1683L142.954 12.3442L142.428 13.9597C142.135 14.8521 141.914 15.5947 141.933 15.6078C141.946 15.6273 142.597 15.1843 143.371 14.6241L144.776 13.6014L146.18 14.6241C146.954 15.1843 147.605 15.6208 147.624 15.6012C147.65 15.5752 146.805 12.8979 146.616 12.3963C146.597 12.3572 146.876 12.1032 147.234 11.8426C147.592 11.582 148.249 11.1 148.691 10.7808L149.491 10.1945L147.702 10.162L145.914 10.1294L145.393 8.56603C144.743 6.6118 144.808 6.76814 144.724 6.9831Z" fill="#7F1914"/>
<path d="M0 23.8025V24.0891L0.767456 24.1282C4.11695 24.291 5.23561 24.4083 6.43883 24.7014C7.40791 24.9359 7.64205 25.1118 7.79814 25.7502C7.88269 26.1085 7.9022 27.9845 7.91521 41.7879C7.93472 52.0932 7.91521 57.6497 7.87618 58.0926C7.83716 58.4574 7.76562 58.8418 7.71359 58.946C7.57701 59.2 7.07621 59.5192 6.56891 59.669C5.5543 59.9752 4.33158 60.099 1.73653 60.1641L0 60.2097V60.4963V60.7764H18.8937H37.7875V51.8847V42.993H37.4688H37.1436L37.1111 43.2666C37.0916 43.4229 37.0655 44.0418 37.046 44.6541C36.9225 48.6407 35.9209 52.2495 34.2364 54.7574C32.3177 57.6171 29.0983 59.428 25.0399 59.9426C24.1554 60.0534 19.6872 60.0534 18.5035 59.9426C16.767 59.7733 15.7654 59.5388 15.3882 59.2065C15.2125 59.0567 15.1475 58.9329 15.0825 58.6072C15.0109 58.2815 14.9914 55.2525 14.9719 43.0581C14.9589 33.8016 14.9784 27.4895 15.0174 26.825C15.102 25.3528 15.1475 25.2486 15.8824 24.8903C16.754 24.4669 18.0677 24.265 20.4547 24.2064C21.2416 24.1803 22.3018 24.1477 22.8156 24.1282L23.7391 24.0891V23.8025V23.5159H11.8696H0V23.8025Z" fill="#7F1914"/>
<path d="M39.1533 23.8025V24.0826L39.6541 24.1282C39.9273 24.1477 40.4021 24.1673 40.7142 24.1673C41.5467 24.1673 43.693 24.3497 44.519 24.493C46.0799 24.7601 46.6848 25.0402 46.8409 25.5548C46.9059 25.7763 46.9254 29.0659 46.9254 42.1462C46.9254 60.5484 46.9775 58.8548 46.4051 59.2977C45.6897 59.8384 44.1288 60.0794 40.7988 60.1706L39.1533 60.2097V60.4963V60.7764H57.917H76.6806V52.2104V43.6444H76.2969H75.9197L75.8742 44.1785C75.8091 45.0058 75.5294 46.8623 75.3148 47.9307C74.4563 52.1388 72.9409 55.272 70.8922 57.0504C68.928 58.7506 66.4956 59.7277 63.5428 59.9947C62.3266 60.099 57.3902 60.0794 56.6487 59.9622C55.439 59.7668 54.4894 59.3694 54.2813 58.972C54.0602 58.5356 54.0472 58.1122 54.0472 49.7546V41.4947H54.8146C57.3707 41.4947 59.7836 41.8335 60.8762 42.3481C61.4421 42.6152 61.6632 42.791 62.0534 43.3057C63.055 44.628 63.803 47.1229 64.3558 50.9792C64.4469 51.6046 64.5184 52.2039 64.5184 52.3081C64.5184 52.5035 64.5249 52.5035 64.8761 52.5035H65.2338V41.1039V29.7042H64.8891H64.5379L64.4599 30.4338C64.3428 31.4565 64.0306 33.3456 63.803 34.3944C63.1396 37.4039 62.1705 39.3451 61.0323 39.9183C60.0307 40.4199 58.2747 40.7 55.7512 40.7587L54.0407 40.7977L54.0602 33.2479C54.0797 24.721 54.0407 25.3594 54.6 24.9359C55.0423 24.5972 55.5951 24.4539 57.2016 24.252C57.956 24.1542 58.6324 24.1347 61.2014 24.1347C64.5119 24.1347 64.9607 24.1673 65.9948 24.4669C68.967 25.3268 71.328 27.8087 72.8434 31.665C73.5653 33.5085 73.91 35.0979 74.0531 37.3388L74.0921 37.9771H74.4433H74.7945V30.7465V23.5159H56.9739H39.1533V23.8025Z" fill="#7F1914"/>
<path d="M92.4199 23.555C89.6168 23.822 87.4185 24.6493 85.3177 26.2388C82.8202 28.1213 80.9861 30.7791 80.2512 33.5736C79.9 34.9285 79.835 35.5083 79.835 37.3257C79.8415 38.7653 79.861 39.0976 79.9911 39.8337C80.4073 42.1983 81.2398 43.9571 82.7422 45.6703C84.6478 47.8329 88.0103 49.3572 95.7564 51.559C101.025 53.0507 104.732 54.5164 106.527 55.8062C108.634 57.324 109.948 59.3042 110.345 61.5581C110.501 62.4636 110.488 63.8771 110.312 64.7305C109.948 66.4958 109.284 67.6814 107.873 69.0884C106.273 70.6778 104.478 71.6224 102.338 71.9937C101.642 72.1109 101.382 72.124 99.9644 72.0914C98.2149 72.0523 97.2003 71.9285 95.8345 71.5963C91.0021 70.4042 87.8347 67.3491 85.3632 61.493C84.5763 59.63 83.6072 56.4315 82.9438 53.5458C82.6056 52.0671 82.6381 52.1257 82.1959 52.2495L81.9487 52.3146V62.5548C81.9487 71.1794 81.9617 72.7754 82.0398 72.6972C82.0853 72.6451 83.0999 71.3097 84.2901 69.7333C85.4803 68.1569 86.4884 66.828 86.5274 66.7889C86.586 66.7238 86.7095 66.8345 87.0868 67.297C89.6103 70.3782 93.0313 72.1175 97.6881 72.6711C98.8458 72.8145 101.577 72.834 102.501 72.7102C105.246 72.3454 107.463 71.466 109.519 69.9287C112.653 67.5836 114.54 63.9618 114.845 59.7016L114.897 58.9851L114.943 59.441C115.216 62.0662 115.6 63.5579 116.413 65.2386C117.096 66.6261 117.863 67.6944 118.995 68.7953C122.097 71.8178 126.129 73.1336 131.15 72.7623C136.171 72.3845 139.833 70.6974 142.578 67.4794C142.942 67.056 143.261 66.7303 143.287 66.7564C143.306 66.7824 144.015 67.7074 144.854 68.8213C145.693 69.9287 146.721 71.2902 147.137 71.8439L147.898 72.8405V62.5808V52.3146L147.657 52.2495C147.209 52.1257 147.209 52.1192 147.052 52.8097C146.792 53.9627 146.272 56.0342 145.973 57.096C144.093 63.7794 141.323 68.0918 137.518 70.2414C135.254 71.5247 132.328 72.163 129.069 72.0914C127.834 72.0653 127.541 72.0393 126.955 71.896C126.025 71.6745 125.434 71.453 124.549 70.997C123.541 70.4759 122.708 69.8636 121.921 69.0819C120.185 67.3426 119.391 65.4666 119.391 63.0889C119.391 61.2389 119.905 59.5648 120.887 58.1773C121.336 57.5454 122.344 56.5292 123.06 55.9886C125.004 54.5229 128.185 53.2527 134.285 51.5004C135.71 51.09 137.284 50.621 137.784 50.4581C142.103 49.0641 144.88 47.7548 146.331 46.4129C148.737 44.1916 149.882 41.5534 150.025 37.8599C150.181 33.743 148.789 30.1928 145.934 27.4504C143.345 24.962 140.347 23.6722 136.841 23.5354C134.266 23.4377 131.333 23.8611 129.316 24.6233C128.471 24.9425 128.191 25.1053 125.928 26.597C124.308 27.6653 124.146 27.7565 124.042 27.6653C122.24 26.0694 119.372 23.581 119.333 23.581C119.307 23.581 119.281 27.2354 119.281 31.6976C119.281 38.166 119.3 39.8076 119.365 39.7815C120.009 39.5275 119.983 39.547 120.029 39.2278C120.1 38.7132 120.387 37.4625 120.621 36.6678C121.291 34.3553 122.656 31.7562 124.146 29.9648C126.819 26.7534 129.726 24.9229 133.102 24.3236C135.105 23.9719 137.55 24.1347 139.449 24.7535C141.316 25.3659 143.196 26.6231 144.171 27.9064C144.587 28.4601 145.069 29.4893 145.277 30.2579C145.433 30.8572 145.452 31.0136 145.452 32.1796C145.459 33.3196 145.446 33.5085 145.303 34.0361C144.548 36.9088 142.324 38.9477 138.142 40.6023C136.308 41.3254 134.591 41.8465 131.053 42.7324C125.349 44.172 121.577 45.4814 119.73 46.6734C118.383 47.5463 117.161 49.0055 116.322 50.7578C115.567 52.3277 115.229 53.7282 114.943 56.4446L114.897 56.9006L114.845 56.184C114.598 52.6729 113.427 49.7611 111.476 47.8134C111.099 47.4356 110.559 46.9666 110.273 46.7777C108.348 45.5074 104.621 44.1981 98.5076 42.6608C92.8557 41.2407 90.0525 40.1724 87.8022 38.5764C87.0803 38.0618 86.0657 37.0782 85.6429 36.4789C84.6088 35.0067 84.1535 33.2153 84.3486 31.3784C84.6348 28.7467 86.0722 26.8055 88.7713 25.4245C91.62 23.9719 95.3792 23.7308 98.5856 24.7926C99.4441 25.0792 100.907 25.7893 101.688 26.2974C103.626 27.5676 105.694 29.7173 107.034 31.8604C108.348 33.9514 109.337 36.5506 109.785 39.0976L109.863 39.5275L110.195 39.6643C110.371 39.7425 110.533 39.7946 110.546 39.7815C110.559 39.7685 110.559 36.1011 110.553 31.6389L110.533 23.5159L108.127 25.6004C106.807 26.7534 105.688 27.7044 105.649 27.724C105.61 27.7435 105.187 27.4829 104.712 27.1572C103.437 26.2713 101.694 25.1639 101.155 24.9099C100.127 24.4148 98.3125 23.9197 96.745 23.7178C95.5223 23.555 93.3045 23.4768 92.4199 23.555Z" fill="#7F1914"/>
<path d="M150.044 23.8025V24.0891L150.454 24.1282C150.675 24.1477 151.078 24.1803 151.345 24.1998C152.912 24.3301 154.499 24.9294 155.618 25.8284C156.47 26.5124 157.075 27.4243 157.452 28.5708C157.836 29.7694 157.816 29.0463 157.816 41.7227C157.816 52.6729 157.81 53.4351 157.699 54.2624C157.484 55.8388 157.101 57.0569 156.548 57.9363C155.709 59.2652 153.751 60.0404 150.909 60.1706L150.044 60.2097V60.4964V60.7765H158.434H166.824V60.4964V60.2097L165.913 60.1641C163.221 60.0404 161.237 59.2587 160.242 57.9428C159.572 57.0569 159.143 55.6824 158.844 53.4807C158.746 52.7511 158.733 51.5199 158.714 41.3449C158.701 35.0719 158.714 29.9844 158.746 29.9257C158.792 29.8476 158.87 29.8997 159.156 30.2058C159.481 30.5641 174.017 49.7872 179.884 57.6302L182.433 61.037H183.116H183.793L183.819 46.1979C183.838 35.365 183.864 31.196 183.923 30.7465C184.267 27.9259 184.924 26.369 186.153 25.4375C186.986 24.8057 188.196 24.3692 189.555 24.2194L190.205 24.1477L190.186 23.8285L190.16 23.5159H182.459H174.759V23.796V24.0761L175.916 24.1542C176.547 24.1933 177.315 24.278 177.62 24.3301C181.035 24.9685 182.479 26.7403 182.967 30.8768C183.032 31.4696 183.051 33.5671 183.051 40.9867C183.051 49.7416 183.045 50.3539 182.941 50.4581C182.836 50.5689 182.81 50.5559 182.537 50.2497C182.199 49.8784 177.009 43.1363 168.125 31.5412L161.979 23.5159H156.015H150.044V23.8025Z" fill="#7F1914"/>
<path d="M191.161 23.822L191.181 24.1347L191.701 24.1477C193.913 24.2129 196.339 24.5516 197.152 24.9099C197.581 25.0988 197.75 25.3072 197.86 25.7828C197.984 26.3234 197.984 58.262 197.86 58.6724C197.743 59.0632 197.236 59.4997 196.722 59.6625C195.74 59.9622 194.348 60.112 191.948 60.1706L190.173 60.2097V60.4963V60.7764H208.904H227.635V52.2104V43.6444H227.31C226.933 43.6444 226.985 43.5011 226.796 44.9993C226.087 50.4907 224.435 54.6337 222.055 56.881C220.578 58.2685 218.569 59.2847 216.383 59.7277C215.031 60.0013 214.595 60.0273 211.115 60.0273C207.909 60.0273 207.74 60.0208 207.18 59.884C206.049 59.6169 205.346 59.2587 205.184 58.8678C205.112 58.6984 205.093 57.0504 205.08 50.0738L205.06 41.4947H205.73C208.429 41.4947 211.031 41.8856 212.097 42.4458C213.027 42.9344 213.743 44.1199 214.374 46.2175C214.81 47.6701 215.304 50.3213 215.447 51.9954L215.492 52.5035H215.837H216.188V41.1039V29.7042H215.837H215.492L215.447 30.2058C215.375 31.0396 215.089 32.9287 214.881 33.971C214.205 37.3844 213.197 39.3777 211.85 39.9704C210.732 40.4655 208.527 40.7782 206.127 40.7782H205.06L205.08 33.2349C205.099 27.4569 205.119 25.6395 205.184 25.4571C205.275 25.203 205.685 24.7861 205.964 24.6819C206.224 24.5777 207.206 24.3692 207.961 24.2585C208.832 24.1217 213.762 24.0565 215.018 24.1608C217.45 24.3627 219.382 25.2942 221.066 27.0726C221.736 27.7826 222.256 28.5317 222.913 29.7368C224.24 32.1731 224.91 34.4921 225.066 37.2085L225.112 37.9771H225.43H225.749V30.7465V23.5159H208.442H191.142L191.161 23.822Z" fill="#7F1914"/>
<path d="M230.237 23.796V24.0826L231.031 24.1217C231.46 24.1478 232.143 24.1673 232.54 24.1673C234.751 24.1673 237.17 24.5061 237.873 24.9034C238.263 25.1249 238.361 25.3008 238.432 25.9261C238.478 26.2909 238.497 31.867 238.484 42.5045C238.465 57.3631 238.458 58.5552 238.354 58.8483C238.166 59.402 237.749 59.7017 236.988 59.858C236.143 60.0274 233.457 60.1902 231.428 60.1902H230.237V60.4834V60.7765H241.944H253.651V60.529V60.2749L251.069 60.2358C248.292 60.1902 247.57 60.1381 246.855 59.9232C246.328 59.7668 245.918 59.4085 245.775 58.9851C245.703 58.7767 245.684 57.0895 245.664 50.1064L245.645 41.4948H249.437C254.139 41.4948 254.698 41.5534 255.928 42.1592C257.053 42.7129 257.593 43.5532 257.879 45.2078C257.924 45.4619 257.976 47.1555 258.009 49.3768C258.061 53.2592 258.132 54.4318 258.406 56.0733C258.718 57.9559 259.095 58.8874 259.914 59.7733C260.89 60.8221 262.197 61.3107 264.122 61.3237C265.319 61.3302 265.905 61.2195 266.691 60.8416C267.908 60.2489 268.435 59.4476 268.753 57.7214C268.857 57.1547 268.89 56.6335 268.916 54.764L268.948 52.5036H268.714H268.48V53.2332C268.48 54.6402 268.239 56.9658 267.986 57.9233C267.752 58.8418 267.296 59.4997 266.75 59.7082C266.145 59.9362 265.235 59.643 264.955 59.1284C264.766 58.7702 264.701 58.0666 264.643 55.7932C264.526 51.1878 264.148 48.9339 263.147 46.7908C262.184 44.7388 260.766 43.2601 258.789 42.2439C258.08 41.8856 256.624 41.358 256.077 41.2668C255.732 41.2147 255.648 41.104 255.941 41.104C256.064 41.104 256.61 41.0323 257.157 40.9411C263.531 39.8923 266.848 36.8242 266.639 32.1666C266.587 30.9615 266.282 30.0691 265.553 28.9812C263.888 26.5059 261.079 24.6624 257.866 23.9458C256.045 23.5355 256.793 23.5615 242.907 23.5355L230.237 23.5094V23.796ZM253.066 24.2585C255.824 24.6233 257.417 25.4701 258.373 27.0856C259.193 28.4601 259.57 30.2645 259.57 32.8311C259.57 35.7038 258.978 37.4886 257.599 38.8045C256.838 39.5275 256.24 39.8858 255.251 40.218C253.827 40.6936 252.864 40.7782 248.897 40.7782H245.651L245.664 32.9744L245.684 25.177L245.834 24.8643C246.068 24.3953 246.367 24.252 247.245 24.1738C248.383 24.0761 252.103 24.1282 253.066 24.2585Z" fill="#7F1914"/>
<path d="M3.23271 67.4206C2.84248 67.5248 2.3807 67.7854 2.15957 68.0329C1.93194 68.2935 1.85389 68.5866 1.86039 69.1142C1.8734 69.8894 2.27014 70.2021 3.51238 70.4171C4.26032 70.5473 4.4034 70.606 4.61153 70.8405C4.85217 71.1206 4.86518 71.329 4.66356 71.6873C4.27333 72.3778 3.12214 72.469 2.45875 71.8567C2.30916 71.7264 2.27664 71.6417 2.27664 71.3746C2.27664 71.0685 2.27014 71.062 2.10104 71.0815C1.92543 71.101 1.91893 71.1141 1.8734 71.6352C1.84739 71.9348 1.80836 72.2019 1.78885 72.241C1.73032 72.3322 2.06201 72.4625 2.69289 72.5993C3.51238 72.7817 4.53999 72.6384 5.10582 72.2671C5.7432 71.8502 5.95783 70.6972 5.52207 70.0783C5.32695 69.8047 4.79364 69.5898 4.09772 69.5051C3.18718 69.3943 2.79695 69.1403 2.79695 68.6583C2.79695 68.0068 3.53839 67.6095 4.32536 67.844C4.81315 67.9808 5.00826 68.1827 5.00826 68.528C5.00826 68.7625 5.02778 68.7885 5.16436 68.7885C5.33346 68.7885 5.34647 68.7429 5.43752 67.9938L5.47654 67.6225L5.13184 67.5183C4.71559 67.3945 3.58392 67.3359 3.23271 67.4206Z" fill="#7F1914"/>
<path d="M28.0969 67.4534C27.1278 67.6748 26.2888 68.3067 26.0222 69.0167C25.8336 69.5118 25.8336 70.3717 26.0157 70.9123C26.2888 71.694 26.9197 72.2803 27.7847 72.5409C28.4221 72.7298 29.7294 72.7102 30.3407 72.4953C30.6919 72.3715 30.8155 72.2933 30.9131 72.124C31.0822 71.8308 31.0106 71.7722 30.6659 71.922C30.2106 72.124 29.4822 72.2542 29.105 72.2021C28.4871 72.1174 28.1359 71.9416 27.7132 71.4856C27.2059 70.9449 27.0173 70.4042 27.0758 69.6681C27.1213 69.0558 27.2839 68.6975 27.6872 68.3262C28.0969 67.9419 28.3831 67.8442 29.105 67.8442C29.6253 67.8442 29.7359 67.8637 30.0806 68.0396L30.4708 68.235L30.5033 68.5933C30.5293 68.893 30.5554 68.9516 30.6659 68.9711C30.7895 68.9907 30.809 68.9386 30.8805 68.3588C30.9716 67.6227 31.0041 67.6683 30.3407 67.512C29.7098 67.3622 28.6237 67.3361 28.0969 67.4534Z" fill="#7F1914"/>
<path d="M196.502 67.4533C195.149 67.8181 194.511 68.7822 194.615 70.3065C194.713 71.8243 195.506 72.593 197.067 72.6776C199.064 72.7819 200.157 71.668 200.046 69.6421C200.007 68.9972 199.832 68.5282 199.487 68.1308C199.246 67.8572 198.609 67.5315 198.121 67.4273C197.659 67.3296 196.918 67.3426 196.502 67.4533ZM197.997 67.994C198.349 68.1829 198.492 68.3588 198.726 68.8669C199.149 69.7919 199.012 71.2055 198.446 71.8048C198.147 72.124 197.802 72.2673 197.328 72.2673C196.326 72.2673 195.786 71.5442 195.715 70.1111C195.656 68.8408 196.079 68.0135 196.892 67.8051C197.204 67.7269 197.646 67.8051 197.997 67.994Z" fill="#7F1914"/>
<path d="M218.173 67.4403C217.165 67.7008 216.475 68.3783 216.254 69.3228C216.163 69.7202 216.176 70.4563 216.28 70.8406C216.527 71.7917 217.1 72.3714 218.01 72.6059C218.244 72.6646 218.44 72.7167 218.446 72.7232C218.459 72.7362 218.264 72.8535 218.01 72.9903C217.47 73.2899 217.275 73.4723 217.36 73.6091C217.412 73.6938 217.47 73.6808 217.77 73.5179C218.101 73.342 218.127 73.3355 218.505 73.4137C218.713 73.4528 219.09 73.5635 219.331 73.6482C219.578 73.7329 220.02 73.8501 220.326 73.9023L220.865 73.9935L221.262 73.7264C221.626 73.4723 221.711 73.3616 221.613 73.2639C221.587 73.2443 221.49 73.2639 221.386 73.316C221.113 73.4593 220.885 73.4332 220.215 73.1922C219.877 73.075 219.402 72.9186 219.148 72.8535L218.693 72.7297L219.246 72.6841C219.896 72.6255 220.56 72.3324 220.957 71.935C221.6 71.2901 221.88 69.9873 221.587 68.9711C221.412 68.3718 220.859 67.8116 220.176 67.551C219.714 67.3686 218.667 67.3165 218.173 67.4403ZM219.318 67.8506C219.831 68.007 220.228 68.4239 220.41 69.0102C220.566 69.5183 220.592 70.313 220.475 70.9839C220.313 71.9089 219.526 72.4366 218.602 72.2346C217.809 72.0653 217.347 71.2184 217.34 69.9091C217.334 68.8147 217.757 68.0265 218.433 67.8441C218.862 67.7269 218.901 67.7269 219.318 67.8506Z" fill="#7F1914"/>
<path d="M263.459 67.5054C262.997 67.6162 262.887 67.6618 262.887 67.7595C262.887 67.8377 262.932 67.8767 263.036 67.8767C263.336 67.8767 263.953 68.6649 264.636 69.9026L264.903 70.3977V71.2185C264.903 71.6679 264.883 72.0783 264.864 72.1369C264.844 72.1956 264.753 72.2412 264.675 72.2412C264.441 72.2412 264.318 72.3128 264.318 72.4431C264.318 72.5604 264.383 72.5669 265.456 72.5669C266.529 72.5669 266.594 72.5604 266.594 72.4431C266.594 72.3128 266.477 72.2412 266.269 72.2412C266.061 72.2412 266.009 72.0262 266.009 71.1403V70.2935L266.249 69.8505C266.536 69.3229 267.251 68.2025 267.511 67.8702C267.778 67.5315 267.758 67.4729 267.394 67.4989L267.082 67.5185L266.672 68.235C266.451 68.6259 266.145 69.1665 265.996 69.4336L265.723 69.9157L265.3 69.0428C265.066 68.5607 264.773 68.0266 264.649 67.8572C264.435 67.5641 264.181 67.3491 264.077 67.3621C264.051 67.3686 263.771 67.4338 263.459 67.5054Z" fill="#7F1914"/>
<path d="M9.69043 67.5902C9.69043 67.7009 9.74246 67.74 9.93758 67.7791C10.0677 67.8051 10.2172 67.8507 10.2628 67.8898C10.3733 67.9875 10.3798 72.0458 10.2628 72.163C10.2172 72.2086 10.0742 72.2412 9.93758 72.2412C9.71645 72.2412 9.69043 72.2608 9.69043 72.4041V72.5669H10.9262H12.1619V72.4041C12.1619 72.2608 12.1359 72.2412 11.9017 72.2412C11.7131 72.2412 11.6286 72.2086 11.5766 72.1174C11.492 71.9481 11.4855 68.1113 11.5766 67.9419C11.6156 67.8703 11.7457 67.8051 11.9017 67.7791C12.1099 67.7465 12.1619 67.7074 12.1619 67.5967C12.1619 67.4534 12.1489 67.4534 10.9262 67.4534C9.70994 67.4534 9.69043 67.4534 9.69043 67.5902Z" fill="#7F1914"/>
<path d="M16 67.5966C16 67.7139 16.052 67.7465 16.2471 67.7856C16.3772 67.8116 16.5268 67.8572 16.5723 67.8963C16.6309 67.9419 16.6504 68.4435 16.6504 69.9938C16.6504 71.8764 16.6439 72.0328 16.5333 72.1305C16.4683 72.1956 16.3187 72.2412 16.2081 72.2412C16.0325 72.2412 16 72.2673 16 72.4041V72.5669H16.9105H17.8211V72.4041C17.8211 72.2608 17.7951 72.2412 17.5739 72.2412C17.4374 72.2412 17.2943 72.2086 17.2487 72.163C17.1902 72.1044 17.1707 71.6224 17.1707 70.3912L17.1772 68.691L17.4178 68.9516C17.5479 69.1014 18.3349 69.9678 19.1674 70.8863C20.5592 72.4236 20.6893 72.5539 20.9299 72.593C21.073 72.6125 21.2356 72.6516 21.2941 72.6711C21.3852 72.7102 21.3982 72.4757 21.3982 70.3326C21.3982 68.463 21.4177 67.9419 21.4828 67.8898C21.5283 67.8507 21.6909 67.7986 21.847 67.7725C22.0746 67.7334 22.1201 67.7074 22.1006 67.5966C22.0811 67.4794 22.0226 67.4729 21.1511 67.4599C20.247 67.4533 20.2275 67.4533 20.2275 67.5966C20.2275 67.7074 20.2795 67.7465 20.4812 67.779C20.6242 67.8051 20.7803 67.8702 20.8259 67.9224C20.8909 68.0005 20.9169 68.4174 20.9299 69.5639L20.9494 71.1012L20.4226 70.5801C19.8308 70.0004 18.8617 68.9255 18.1333 68.0461L17.652 67.4664L16.826 67.4599C16.013 67.4533 16 67.4533 16 67.5966Z" fill="#7F1914"/>
<path d="M34.665 67.5967C34.665 67.7074 34.7171 67.7465 34.9187 67.7791C35.0618 67.8051 35.2179 67.8703 35.2634 67.9224C35.3284 68.0005 35.3544 68.4565 35.3675 69.7919C35.3935 71.8764 35.374 72.0588 35.1138 72.2868C35.0097 72.3845 34.9252 72.4822 34.9252 72.5148C34.9252 72.5409 35.8162 72.5669 36.9089 72.5669H38.8926V72.2542C38.8926 72.0849 38.9121 71.7917 38.9381 71.6028C38.9771 71.2641 38.9706 71.2511 38.821 71.2771C38.7039 71.2902 38.6584 71.3488 38.6259 71.5247C38.5413 72.0653 38.4308 72.1109 37.2146 72.1109H36.4796L36.4991 71.1143L36.5186 70.1241H37.156C37.8649 70.1241 37.982 70.1893 37.982 70.5606C37.982 70.7039 38.0145 70.743 38.1316 70.743C38.2747 70.743 38.2747 70.7299 38.2747 69.9287C38.2747 69.1275 38.2747 69.1145 38.1316 69.1145C38.0145 69.1145 37.982 69.1535 37.982 69.2838C37.982 69.6616 37.9105 69.7007 37.1625 69.7007H36.4796L36.4991 68.8018L36.5186 67.9094L37.2406 67.8898C38.1706 67.8703 38.2942 67.9094 38.3202 68.2807C38.3332 68.5086 38.3657 68.5673 38.4763 68.5803C38.5934 68.5998 38.6194 68.5477 38.6909 68.0787C38.7365 67.7856 38.7755 67.5315 38.769 67.5055C38.7625 67.4729 37.8389 67.4534 36.7138 67.4534H34.665V67.5967Z" fill="#7F1914"/>
<path d="M151.346 67.5902C151.346 67.7009 151.398 67.74 151.567 67.7726C151.97 67.8507 151.964 67.8312 151.964 70.0264C151.964 72.2217 151.97 72.1956 151.573 72.2673C151.404 72.2998 151.346 72.3454 151.346 72.4366C151.346 72.5604 151.398 72.5669 152.555 72.5669H153.759L153.739 72.4171C153.726 72.2998 153.674 72.2673 153.446 72.2542C153.238 72.2412 153.147 72.1956 153.089 72.0914C152.998 71.9155 152.939 68.893 153.017 68.3002C153.069 67.9159 153.076 67.9094 153.31 67.8507C153.635 67.7726 153.999 67.9159 154.188 68.196C154.363 68.4565 154.39 69.0493 154.246 69.4076C154.129 69.6747 153.824 69.8506 153.511 69.818C153.251 69.7984 153.186 69.8766 153.323 70.059C153.453 70.2414 154.142 70.2284 154.52 70.0329C155.183 69.6942 155.495 69.1601 155.424 68.4761C155.378 68.0331 155.215 67.7595 154.89 67.5902C154.65 67.4664 154.52 67.4534 152.991 67.4534C151.352 67.4534 151.346 67.4534 151.346 67.5902Z" fill="#7F1914"/>
<path d="M158.694 67.5967C158.694 67.7139 158.746 67.7465 158.974 67.7921C159.234 67.8442 159.247 67.8572 159.293 68.1373C159.312 68.3002 159.338 69.134 159.338 69.9939C159.338 72.124 159.325 72.1761 158.876 72.2738C158.753 72.2998 158.694 72.352 158.694 72.4366C158.694 72.5604 158.74 72.5669 159.833 72.5669C160.906 72.5669 160.971 72.5604 160.971 72.4431C160.971 72.3129 160.854 72.2412 160.645 72.2412C160.574 72.2412 160.489 72.1826 160.45 72.1174C160.411 72.0393 160.385 71.238 160.385 69.9743C160.385 67.6879 160.366 67.766 160.88 67.8377C161.289 67.8898 161.608 68.0592 161.719 68.2741C161.842 68.5086 161.842 68.9907 161.725 69.2708C161.615 69.5314 161.153 69.831 160.854 69.831C160.574 69.831 160.554 69.9092 160.763 70.1437C160.938 70.3391 162.096 72.2282 162.18 72.4497C162.213 72.5539 162.31 72.5669 162.928 72.5669C163.559 72.5669 163.637 72.5539 163.637 72.4497C163.631 72.391 163.54 72.2803 163.423 72.2086C163.293 72.124 162.941 71.668 162.499 71.0101C161.836 70.0264 161.79 69.9352 161.907 69.8701C162.577 69.4727 162.857 69.0623 162.857 68.4435C162.857 68.1569 162.824 68.0136 162.72 67.8638C162.447 67.4859 162.291 67.4534 160.405 67.4534H158.694V67.5967Z" fill="#7F1914"/>
<path d="M166.824 67.5967C166.824 67.7074 166.876 67.7465 167.084 67.7791C167.24 67.8051 167.371 67.8703 167.41 67.9419C167.494 68.1048 167.494 71.9481 167.41 72.1044C167.377 72.1761 167.24 72.2412 167.084 72.2673C166.883 72.2998 166.824 72.3389 166.824 72.4366C166.824 72.5604 166.87 72.5669 167.995 72.5669C169.101 72.5669 169.166 72.5604 169.166 72.4431C169.166 72.352 169.101 72.3064 168.925 72.2608C168.528 72.1696 168.515 72.1109 168.522 70.0264C168.528 69.0037 168.548 68.0983 168.574 68.0071C168.606 67.8833 168.678 67.8312 168.892 67.7856C169.107 67.74 169.166 67.7009 169.166 67.5902C169.166 67.4534 169.14 67.4534 167.995 67.4534C166.837 67.4534 166.824 67.4534 166.824 67.5967Z" fill="#7F1914"/>
<path d="M172.508 67.4794C172.495 67.4925 172.482 67.5576 172.482 67.6227C172.482 67.7009 172.554 67.7465 172.743 67.7791C172.912 67.8051 173.029 67.8703 173.074 67.955C173.126 68.0461 173.139 68.7432 173.126 70.1372L173.1 72.1891L172.925 72.3194C172.821 72.391 172.743 72.4757 172.743 72.5148C172.743 72.5539 173.302 72.5669 174.323 72.5539C175.741 72.5344 175.936 72.5148 176.274 72.3911C177.354 71.9872 177.998 71.0882 178.063 69.8831C178.121 68.7822 177.725 68.0266 176.892 67.6423L176.482 67.4534H174.512C173.425 67.4534 172.528 67.4664 172.508 67.4794ZM175.917 67.9745C176.281 68.1243 176.736 68.6389 176.879 69.0689C177.061 69.603 177.029 70.287 176.801 70.8602C176.476 71.681 176.053 72.0458 175.292 72.1696C174.915 72.2282 174.752 72.2217 174.323 72.137L174.173 72.1109V70.0004V67.8833L174.323 67.8507C174.616 67.7856 175.637 67.8638 175.917 67.9745Z" fill="#7F1914"/>
<path d="M181.458 67.5902C181.458 67.6879 181.517 67.74 181.699 67.7856C182.115 67.8833 182.115 67.9224 182.095 70.1828L182.069 72.1891L181.894 72.3194C181.796 72.391 181.718 72.4757 181.718 72.5083C181.718 72.5409 182.473 72.5669 183.533 72.5669H185.341L185.38 72.124C185.451 71.4139 185.445 71.3292 185.295 71.3292C185.204 71.3292 185.159 71.3879 185.126 71.5703C185.107 71.7071 185.042 71.8829 184.996 71.9611C184.905 72.1044 184.866 72.1109 184.027 72.1109H183.149V71.1013V70.0916H183.63C184.3 70.0916 184.424 70.1502 184.482 70.4759C184.521 70.7039 184.547 70.743 184.684 70.743H184.84V69.9548C184.84 69.1926 184.834 69.1731 184.703 69.1926C184.612 69.2057 184.541 69.2903 184.489 69.4402L184.417 69.6682L183.786 69.6877L183.149 69.7072V68.9386C183.149 67.8182 183.116 67.8768 183.793 67.8768C184.099 67.8768 184.463 67.8963 184.593 67.9159C184.827 67.955 184.84 67.968 184.879 68.2741C184.912 68.5152 184.951 68.5933 185.035 68.5933C185.12 68.5933 185.159 68.5152 185.185 68.2481C185.211 68.0657 185.243 67.8051 185.269 67.6814L185.308 67.4534H183.383C181.478 67.4534 181.458 67.4534 181.458 67.5902Z" fill="#7F1914"/>
<path d="M203.441 67.5902C203.441 67.6944 203.493 67.74 203.65 67.7726C204.105 67.8638 204.092 67.8052 204.092 70.0265C204.092 72.2478 204.105 72.1761 203.656 72.2738C203.506 72.3064 203.441 72.352 203.441 72.4432C203.441 72.5604 203.5 72.567 204.651 72.567H205.854L205.835 72.4171C205.822 72.2999 205.77 72.2673 205.575 72.2543C205.178 72.2217 205.132 72.0979 205.132 71.0231V70.0916H205.575C206.154 70.0916 206.329 70.1828 206.355 70.502C206.375 70.717 206.394 70.743 206.55 70.743H206.726V69.9613V69.1796H206.55C206.394 69.1796 206.375 69.2057 206.355 69.4207L206.336 69.6682L205.737 69.6877L205.132 69.7073V68.9386C205.132 67.8182 205.093 67.8768 205.809 67.8768C206.667 67.8768 206.693 67.8899 206.693 68.2742C206.693 68.5543 206.713 68.5934 206.823 68.5934C206.986 68.5934 207.006 68.5478 207.038 67.942L207.064 67.4469L205.249 67.4534C203.448 67.4534 203.441 67.4534 203.441 67.5902Z" fill="#7F1914"/>
<path d="M225.099 67.5967C225.099 67.7074 225.151 67.753 225.333 67.7856C225.495 67.8182 225.58 67.8768 225.625 67.9875C225.658 68.0722 225.684 68.8669 225.684 69.7528C225.684 70.6844 225.717 71.4661 225.756 71.6094C225.847 71.9481 226.36 72.4692 226.692 72.5604C226.835 72.606 227.219 72.6581 227.544 72.6777C228.552 72.7428 229.326 72.4106 229.671 71.7657C229.801 71.5116 229.814 71.3814 229.846 69.7594C229.879 67.9159 229.892 67.8638 230.204 67.7856C230.315 67.7595 230.367 67.7009 230.367 67.5967C230.367 67.4534 230.354 67.4534 229.554 67.4534C228.767 67.4534 228.741 67.4599 228.741 67.5967C228.741 67.7074 228.793 67.7465 229.001 67.7791C229.164 67.8051 229.287 67.8703 229.333 67.9484C229.378 68.0331 229.391 68.652 229.378 69.6877C229.359 71.1599 229.346 71.3162 229.229 71.5182C228.994 71.9155 228.799 72.0132 228.168 72.0328C227.681 72.0523 227.564 72.0328 227.31 71.9025C226.79 71.6354 226.757 71.5312 226.738 69.7333C226.725 68.7822 226.744 68.1048 226.783 67.994C226.835 67.8638 226.907 67.8116 227.108 67.7791C227.323 67.7465 227.375 67.7074 227.375 67.5967C227.375 67.4534 227.362 67.4534 226.237 67.4534C225.105 67.4534 225.099 67.4534 225.099 67.5967Z" fill="#7F1914"/>
<path d="M235.915 67.7269C235.837 67.8963 235.479 68.7887 235.115 69.7007C234.244 71.9155 234.1 72.1891 233.834 72.2607C233.684 72.2933 233.619 72.3454 233.619 72.4366C233.619 72.5604 233.665 72.5669 234.432 72.5669C235.2 72.5669 235.245 72.5604 235.245 72.4366C235.245 72.3389 235.2 72.3063 235.057 72.3063C234.712 72.3063 234.679 72.1695 234.887 71.5507L235.07 70.997L236.013 71.0165L236.956 71.0361L237.112 71.4856C237.339 72.1826 237.307 72.3063 236.897 72.3063C236.787 72.3063 236.741 72.3454 236.741 72.4366C236.741 72.5604 236.787 72.5669 237.879 72.5669C238.959 72.5669 239.017 72.5604 239.017 72.4431C239.017 72.3584 238.959 72.3063 238.822 72.2738C238.712 72.2477 238.582 72.163 238.523 72.0783C238.471 71.9937 238.003 70.9188 237.489 69.6942L236.559 67.4534L236.305 67.4338C236.058 67.4143 236.045 67.4208 235.915 67.7269ZM236.253 69.4076C236.383 69.7268 236.552 70.1306 236.617 70.3L236.741 70.6127H235.993C235.505 70.6127 235.245 70.5866 235.245 70.541C235.245 70.3977 235.928 68.7301 235.967 68.7757C235.993 68.8018 236.123 69.0819 236.253 69.4076Z" fill="#7F1914"/>
<path d="M242.27 67.5967C242.27 67.7074 242.322 67.753 242.497 67.7856C242.627 67.8051 242.757 67.8833 242.79 67.9484C242.829 68.0136 242.855 68.9125 242.855 70.1176V72.1696L242.692 72.2933C242.601 72.365 242.53 72.4562 242.53 72.4953C242.53 72.5474 243.063 72.5669 244.351 72.5669H246.172V72.1891C246.172 71.9872 246.191 71.7071 246.211 71.5703C246.25 71.3423 246.243 71.3292 246.087 71.3292C245.925 71.3292 245.847 71.4595 245.847 71.7657C245.847 72.0653 245.704 72.1109 244.8 72.1109H243.961V70.0329C243.961 67.7856 243.948 67.8638 244.338 67.7791C244.494 67.7465 244.546 67.7009 244.546 67.5967C244.546 67.4534 244.533 67.4534 243.408 67.4534C242.276 67.4534 242.27 67.4534 242.27 67.5967Z" fill="#7F1914"/>
<path d="M249.618 67.5967C249.618 67.7139 249.67 67.7465 249.898 67.7921L250.171 67.8507L250.191 70.0069C250.21 72.3975 250.249 72.1696 249.8 72.2673C249.677 72.2933 249.618 72.352 249.618 72.4366C249.618 72.5604 249.664 72.5669 250.756 72.5669C251.829 72.5669 251.895 72.5604 251.895 72.4431C251.895 72.3129 251.777 72.2412 251.563 72.2412C251.485 72.2412 251.413 72.1761 251.374 72.0718C251.303 71.896 251.283 68.3523 251.348 68.0201C251.381 67.8572 251.426 67.8182 251.641 67.7856C251.849 67.753 251.895 67.7204 251.895 67.5967C251.895 67.4534 251.895 67.4534 250.756 67.4534C249.631 67.4534 249.618 67.4534 249.618 67.5967Z" fill="#7F1914"/>
<path d="M255.212 68.0527C255.212 68.6454 255.212 68.6585 255.368 68.6585C255.498 68.6585 255.524 68.6194 255.557 68.3588C255.57 68.196 255.622 68.0266 255.661 67.9875C255.706 67.9354 255.966 67.9094 256.337 67.9094H256.935V70.0199C256.935 72.3194 256.955 72.1891 256.565 72.2738C256.441 72.2998 256.383 72.352 256.383 72.4366C256.383 72.5604 256.428 72.5669 257.521 72.5669C258.613 72.5669 258.659 72.5604 258.659 72.4366C258.659 72.3129 258.594 72.2803 258.236 72.2282C258.113 72.2086 258.106 72.15 258.087 70.0395L258.074 67.8768H258.613C259.303 67.8768 259.439 67.9615 259.439 68.3719C259.439 68.6585 259.446 68.665 259.622 68.6454C259.797 68.6259 259.797 68.6259 259.817 68.0396L259.836 67.4534H257.521H255.212V68.0527Z" fill="#7F1914"/>
<path d="M50.9578 67.9094L49.7871 68.3132L49.8131 68.5022C49.8196 68.6064 49.8456 68.7106 49.8587 68.7367C49.8912 68.7888 50.483 68.5673 50.6911 68.4305C50.7627 68.3784 50.8928 68.3328 50.9708 68.3328H51.1204V70.1502C51.1204 72.2934 51.1529 72.1957 50.405 72.2543C50.2229 72.2673 50.1708 72.3064 50.1578 72.4171L50.1383 72.567H51.6342C53.0586 72.567 53.1366 72.5605 53.1366 72.4432C53.1366 72.3194 52.9155 72.2413 52.5512 72.2413C52.4537 72.2413 52.3366 72.2022 52.2976 72.1501C52.2391 72.0849 52.2196 71.44 52.2326 69.792C52.2326 68.5412 52.213 67.5185 52.1805 67.512C52.1545 67.5055 51.6017 67.6879 50.9578 67.9094Z" fill="#7F1914"/>
<path d="M58.3071 67.6618C57.7738 67.7791 57.3835 68.0396 57.1949 68.4044C57.0714 68.652 57.0779 69.2708 57.2144 69.5509C57.273 69.6747 57.4356 69.8571 57.5787 69.9483C57.8063 70.0981 57.8258 70.1241 57.7217 70.1893C56.8502 70.6909 56.6616 71.6419 57.3055 72.2542C57.8388 72.7623 58.938 72.847 59.5884 72.4301C60.1347 72.0784 60.3558 71.668 60.3558 71.0166C60.3558 70.5541 60.1672 70.1437 59.8485 69.9483C59.7249 69.8636 59.5884 69.7789 59.5558 69.7528C59.5168 69.7333 59.6014 69.616 59.7314 69.5053C60.0306 69.2382 60.1607 68.9907 60.1607 68.691C60.1607 68.1895 59.8355 67.8051 59.3022 67.6814C59.016 67.6162 58.5412 67.6097 58.3071 67.6618ZM59.0095 68.0983C59.4062 68.2676 59.5623 68.6064 59.4453 69.0428C59.4127 69.1731 59.3087 69.3555 59.2241 69.4336C59.081 69.5704 59.042 69.577 58.8274 69.5053C58.7038 69.4662 58.4697 69.3555 58.3136 69.2708C57.7478 68.9581 57.7413 68.3458 58.3006 68.0983C58.5607 67.9875 58.7494 67.9875 59.0095 68.0983ZM58.5672 70.4368C58.8209 70.528 59.2632 70.8016 59.3607 70.9319C59.4908 71.1078 59.5233 71.4791 59.4323 71.7461C59.3152 72.0979 59.068 72.2673 58.6843 72.2673C58.0664 72.2608 57.6892 71.8829 57.6892 71.2706C57.6892 70.8928 57.7543 70.7365 58.0014 70.4629C58.1055 70.3521 58.2095 70.3 58.2746 70.3261C58.3266 70.3456 58.4632 70.3977 58.5672 70.4368Z" fill="#7F1914"/>
<path d="M65.2862 67.7009C64.0895 68.0396 63.8293 69.3815 64.8374 70.0329L64.9935 70.1306L64.7009 70.3065C64.3822 70.4954 64.0635 71.0035 64.0635 71.3227C64.0635 72.1956 64.8439 72.7623 65.8976 72.6776C66.8796 72.593 67.5756 71.8894 67.5756 70.984C67.5756 70.4954 67.2634 70.0394 66.7821 69.818L66.613 69.7398L66.8927 69.4923C67.2309 69.1926 67.3414 68.9386 67.3024 68.5673C67.2569 68.209 67.0357 67.8898 66.7431 67.766C66.4179 67.6292 65.6569 67.5967 65.2862 67.7009ZM66.3203 68.1699C66.691 68.4109 66.7301 69.0623 66.3984 69.4141C66.2163 69.6095 66.1967 69.6095 65.7155 69.3815C65.2602 69.1666 65.0391 68.919 65.0391 68.6259C65.0391 68.1308 65.826 67.8507 66.3203 68.1699ZM65.8455 70.4824C66.4114 70.7495 66.5805 70.8993 66.6715 71.1924C66.7366 71.4009 66.7236 71.4856 66.613 71.7396C66.4504 72.1109 66.2163 72.2673 65.826 72.2673C64.883 72.2673 64.5057 71.1794 65.1886 70.4303C65.2602 70.3521 65.3447 70.287 65.3773 70.287C65.4033 70.287 65.6179 70.3782 65.8455 70.4824Z" fill="#7F1914"/>
<path d="M71.4059 67.6813C71.3994 67.7009 71.3929 68.0917 71.3864 68.5477L71.3799 69.3815L71.5425 69.362C71.6791 69.3424 71.7051 69.2903 71.7701 68.9841L71.8352 68.6259L72.9603 68.6063L74.079 68.5933L73.8709 68.9646C73.7538 69.173 73.214 70.0459 72.6742 70.9058C72.1343 71.7656 71.7116 72.4952 71.7376 72.5213C71.7636 72.5473 71.9717 72.5669 72.1929 72.5539L72.6091 72.5343L73.0774 71.5116C73.331 70.9449 73.8579 69.9156 74.2351 69.2186C74.6123 68.5216 74.9245 67.8832 74.9245 67.7986V67.6487H73.1684C72.1994 67.6422 71.4059 67.6618 71.4059 67.6813Z" fill="#7F1914"/>
</g>
</svg>
