<svg width="246" height="54" viewBox="0 0 246 54" fill="none" xmlns="http://www.w3.org/2000/svg">
<g style="mix-blend-mode:luminosity">
<path fill-rule="evenodd" clip-rule="evenodd" d="M245.795 53.4688H0V0H245.795V53.4688Z" fill="#33348E"/>
<path fill-rule="evenodd" clip-rule="evenodd" d="M16.1214 10.371L15.7982 10.5326L15.6904 10.8006V36.5418L15.7982 36.8624L16.1214 36.9701H29.1253L29.3946 36.8624L29.5562 36.5418V34.9272L29.5023 34.6605L29.5562 34.445L29.3946 34.1218C29.2869 34.0141 29.233 33.9063 29.1253 33.9063H20.4201V10.8006L20.3662 10.5326L19.9905 10.371L19.7211 10.4788L19.5595 10.371H16.1214ZM46.2151 19.2378V32.6727C44.8711 34.0141 43.259 34.6618 41.4854 34.6618C39.8734 34.6618 38.6923 34.1231 38.0998 32.9394C37.7227 32.2956 37.5624 31.1658 37.6163 29.3396V19.2378L37.4547 18.9685L37.0777 18.8069H33.5304L33.1547 18.9685L32.9931 19.2378V30.6297C32.9931 32.9394 33.5304 34.6605 34.6051 35.6287C35.9478 36.9701 37.8291 37.6691 40.4081 37.6691C42.8255 37.6691 44.7068 36.9714 46.2111 35.6287V36.5418L46.4266 36.8624L46.6946 36.9701H50.3483L50.7253 36.8624L50.7792 36.5418V19.2378L50.7253 18.9685L50.3483 18.8069H46.6946L46.4266 18.9685L46.2151 19.2378ZM74.8032 20.1522L73.2989 21.4949C72.8154 20.4741 72.0088 19.7752 71.0418 19.2378C70.0749 18.8082 68.8925 18.5389 67.5484 18.5389C65.1311 18.5389 63.0881 19.3456 61.4761 20.8499V19.7752L61.2619 19.3981L60.9388 19.2365H57.339L56.9619 19.3981L56.908 19.7752V36.9701L56.9619 37.3472L57.339 37.5062H60.9388L61.2619 37.3472L61.4761 36.9701V24.1803C62.6046 22.4606 64.1628 21.6552 65.9377 21.6552C67.8191 21.6552 69.0002 22.4619 69.2695 24.0726L69.3234 36.9701L69.4311 37.3472L69.8082 37.5062H73.3541L73.6234 37.3472L73.8389 36.9701V24.1803C75.3432 22.4606 76.8475 21.6552 78.5672 21.6552C80.287 21.6552 81.3617 22.3542 81.631 23.9123L81.6849 26.2233V36.9701L81.899 37.3472L82.2222 37.5062H85.822L86.0913 37.3472L86.2529 36.9701V26.0617C86.2529 23.4288 85.9297 21.6552 85.2859 20.8499V20.7421C84.319 19.2378 82.4915 18.5389 80.0728 18.5389C78.1337 18.5389 76.3075 19.0762 74.8032 20.1522ZM95.4915 14.6711C94.8464 14.6711 94.2552 14.4018 93.7717 13.8644C93.3421 13.4348 93.0728 12.8975 93.0728 12.1447C93.0728 11.5534 93.3421 11.0161 93.7717 10.5326C94.2552 9.99528 94.8464 9.72595 95.4915 9.72595C96.1366 9.72595 96.7265 9.99528 97.2113 10.5326C97.6409 11.0161 97.9102 11.5534 97.9102 12.1447C97.9102 12.8975 97.6409 13.4348 97.2113 13.8644C96.7265 14.4018 96.1366 14.6711 95.4915 14.6711ZM93.7179 19.2378L93.3421 19.3456L93.1805 19.6688V36.9714L93.3421 37.3485L93.7179 37.5075H97.2651L97.6409 37.3485L97.7486 36.9714V19.6688L97.6409 19.3469L97.2651 19.2391H93.7179V19.2378ZM115.213 18.5389C112.688 18.5389 110.537 19.3456 108.765 20.9576V19.7765L108.657 19.3994L108.281 19.2378H104.789C104.628 19.2378 104.52 19.3456 104.466 19.3994L104.251 19.7765V36.9714L104.466 37.3485L104.789 37.5075H108.281L108.657 37.3485L108.765 36.9714V24.2355C110 22.5696 111.721 21.7643 113.762 21.7643C115.642 21.7643 116.826 22.3555 117.362 23.6982C117.416 24.2355 117.524 25.4179 117.524 27.1929V36.9714L117.632 37.3485L117.953 37.5075H121.555L121.932 37.3485L122.093 36.9714V24.8806L121.824 22.3541V22.3003C121.554 21.2795 120.911 20.4728 120.104 19.8829C118.76 18.9698 117.093 18.5389 115.213 18.5389ZM129.883 24.987L130.044 24.7729C131.495 22.8915 133.482 21.9245 135.902 21.9245C137.568 21.9245 138.856 22.4619 139.664 23.4301C140.092 23.9675 140.254 24.8806 140.361 26.1169L136.492 25.795C133.375 25.6873 131.065 26.3862 129.347 27.8366C127.841 29.0729 127.034 30.6311 127.034 32.297C127.034 33.909 127.627 35.3607 128.97 36.5431C130.42 37.6691 132.3 38.209 134.612 38.209C137.03 38.209 138.91 37.6165 140.47 36.2738V37.0792L140.629 37.4024L140.899 37.5075H144.499L144.822 37.4024L144.93 37.0792V26.6529L144.768 23.8059C144.516 22.7715 144.018 21.813 143.317 21.0115V20.9576C141.812 19.3994 139.664 18.5941 136.708 18.5941C132.14 18.5941 129.345 20.4216 128.271 24.0739V24.3432L128.378 24.5048L128.537 24.7203L129.612 24.9883H129.883V24.987ZM140.47 29.178V33.3703C138.91 34.5527 137.407 35.1978 135.902 35.1978C134.72 35.1978 133.806 34.9285 133 34.3925C132.195 33.7461 131.872 33.0484 131.872 32.134C131.764 31.221 132.141 30.522 132.946 29.8783C133.806 29.0729 135.148 28.7497 136.867 28.7497L140.47 29.178ZM155.569 20.8499V19.7752L155.407 19.3981L155.033 19.2365H151.379L151.002 19.3981L150.948 19.7752V36.9701L151.002 37.3472L151.379 37.5062H155.033L155.407 37.3472L155.569 36.9701V24.0726C156.589 22.8915 157.719 22.299 159.276 22.299C159.869 22.299 160.891 22.5683 162.232 22.9979H162.501L162.768 22.8363L162.822 22.567V19.7739L162.768 19.5045L162.501 19.3429C161.75 19.0736 161.05 18.8595 160.243 18.8595C158.525 18.8621 156.914 19.5072 155.569 20.8499ZM179.75 22.7312C180.502 23.1608 181.308 23.9675 182.116 25.1499L182.383 25.4192H182.652L183.781 25.0435L184.155 24.8819V24.5048C183.781 23.1608 183.242 22.0336 182.436 21.1192L181.04 20.0445C179.48 19.0776 177.6 18.5941 175.452 18.5941C172.334 18.5389 169.755 19.5072 167.874 21.4949C165.992 23.3763 165.079 25.6859 165.079 28.642C165.079 31.4903 165.992 33.8538 167.874 35.6287C169.755 37.3485 172.171 38.2077 175.127 38.2077C177.598 38.2077 179.695 37.6152 181.306 36.4341C182.542 35.521 183.51 34.1757 184.154 32.2956V32.0263L184.046 31.8673L183.78 31.7057L182.651 31.4364H182.382L182.115 31.598C181.576 32.565 180.771 33.3716 179.695 34.0154C178.513 34.6618 177.332 34.9823 175.988 34.9823C174.322 34.9823 172.873 34.4463 171.69 33.3703C170.454 32.134 169.809 30.4143 169.809 28.2636C169.809 26.2233 170.453 24.6099 171.69 23.4288V23.375C172.873 22.1926 174.377 21.6552 176.097 21.6552C177.333 21.6565 178.622 22.0323 179.75 22.7312Z" fill="white"/>
<path fill-rule="evenodd" clip-rule="evenodd" d="M190.767 38.8528C191.788 36.8638 191.949 34.4464 191.518 31.7071C191.036 29.2871 192.38 27.9996 195.441 27.9996C197.323 27.9996 199.364 28.4818 201.728 29.4501C203.933 30.3631 205.813 31.4391 207.158 32.6754C210.65 36.0059 212.477 38.9619 212.531 41.5409C212.531 44.1198 210.758 46.2166 207.104 47.7196C204.04 49.0636 201.728 49.7087 200.01 49.7087C198.559 49.7087 197.161 49.3343 195.712 48.5289C194.368 47.8825 192.756 46.6476 190.767 44.9265C189.8 43.9595 189.263 43.1529 189.263 42.3475C189.263 41.9192 189.424 41.4344 189.691 40.8432L190.767 38.8528Z" fill="#E7AB57"/>
<path fill-rule="evenodd" clip-rule="evenodd" d="M218.657 15.3688L218.927 17.2501C218.927 18.0029 218.657 18.539 218.013 18.9699L215.863 20.1523C213.284 21.3873 211.295 23.538 209.792 26.4927C209.145 27.6751 208.448 28.2663 207.426 28.2663C205.814 28.2663 203.88 26.8711 201.621 23.915C199.657 21.4952 198.064 18.7964 196.894 15.9074C195.873 13.5965 195.442 11.6087 195.442 9.9428C195.442 5.15927 198.021 2.84961 203.344 2.84961C204.418 2.84961 205.653 3.01121 207.159 3.38696C210.759 4.0859 213.284 5.37604 214.68 7.14836C215.701 8.32946 217.045 11.0162 218.657 15.3688Z" fill="#4284B5"/>
<path fill-rule="evenodd" clip-rule="evenodd" d="M229.028 21.1193L229.941 23.3764C230.908 25.9554 232.897 27.9445 235.638 29.4488C236.713 30.0925 237.25 30.7928 237.25 31.7611C237.25 33.4808 235.855 35.3608 233.058 37.4038C230.266 39.498 227.684 40.6265 225.105 41.0036L221.344 41.378C215.701 41.378 212.799 39.2838 212.799 35.1992C212.907 33.8552 213.014 32.6741 213.284 31.7072C214.251 27.9997 215.593 25.5258 217.207 24.1831C218.44 23.1084 221.342 21.926 225.695 20.5833L227.31 20.314C228.115 20.3127 228.651 20.582 229.028 21.1193Z" fill="#9E5F5E"/>
</g>
</svg>
