<svg viewBox="0 0 411 76" fill="none" xmlns="http://www.w3.org/2000/svg">
<g style="mix-blend-mode:luminosity">
<path fill-rule="evenodd" clip-rule="evenodd" d="M58.4444 1.24715C41.6478 -1.49772 26.4629 0.60489 13.2235 8.55836C-0.278215 16.7511 -4.4378 30.7852 5.54085 42.4819C15.0835 51.1012 26.2965 46.7053 31.1775 41.1583C38.6329 32.6847 39.5185 21.0768 45.9309 12.36C49.0435 7.14771 52.6221 2.59909 58.4444 1.24715ZM16.4554 74.7973C33.2523 77.5421 48.437 75.4394 61.6764 67.4861C75.1781 59.2934 79.3376 45.2593 69.359 33.5626C59.8164 24.9433 48.6034 29.3389 43.7224 34.8862C36.2669 43.3595 35.3816 54.9675 28.9689 63.6844C25.8562 68.8965 22.2778 73.4453 16.4554 74.7973Z" fill="#D40F45"/>
<path fill-rule="evenodd" clip-rule="evenodd" d="M133.597 16.2523L131.446 20.9588L131.33 20.9445C113.622 20.4921 94.9127 25.8877 94.4549 38.4233C94.1067 45.3362 99.1143 48.7753 104.388 49.294C107.279 50.0912 112.062 46.602 105.852 43.7507C103.221 42.5852 101.643 40.7435 101.948 37.5552C102.908 31.1727 115.751 26.0222 128.786 26.3053L128.994 26.3199L117.025 52.4968C114.425 58.4026 110.22 63.2088 103.698 63.4166C98.9692 63.3159 95.5282 61.329 93.731 56.5628C92.1041 52.0858 84.8089 54.9367 86.5456 59.6993C89.0834 66.2859 95.0057 70.0062 103.466 69.9221C114.185 69.6621 121 62.6613 124.906 52.613L136.786 26.8667L136.919 26.876C145.652 28.7699 151.669 31.8818 150.338 38.2887C148.997 43.4392 144.849 45.876 135.699 43.0986C133.387 42.1828 129.49 45.5171 133.122 47.8862C141.202 52.639 155.862 49.4632 158.226 38.6965C159.604 29.5321 152.096 24.4538 139.073 21.9111L141.362 16.9493C142.072 15.2734 141.343 13.9071 138.697 13.6968C135.895 13.4971 134.459 14.3854 133.597 16.2523ZM150.482 56.9345L158.324 57.0159L158.622 57.0543V57.053C156.438 54.9083 156.067 52.8871 156.486 50.8041C157.671 45.6185 161.369 41.8871 169.117 40.4992C176.542 39.3607 182.038 40.9165 185.413 42.911L178.792 55.9141C178.59 56.3733 178.625 57.0336 179.531 57.0513H188.852C188.465 56.3339 187.903 55.716 187.92 55.209C187.972 53.6876 191.287 52.7669 192.423 53.9448C194.547 56.0525 196.175 57.5426 199.012 57.7049C201.152 57.6397 202.731 56.61 202.916 54.9786C202.982 53.4311 201.075 52.4133 198.272 51.6362C195.17 50.444 193.468 48.4407 193.548 45.7176C193.918 41.21 197.919 39.2635 203.472 39.2531C207.348 39.2739 209.557 39.6951 211.848 41.9559C213.011 42.9851 213.268 44.571 212.605 45.4767C211.753 46.6413 209.576 46.8797 207.931 45.457C206.328 43.815 205.23 43.4361 203.216 43.3589C201.17 43.4083 199.934 44.3179 199.884 45.7176C199.9 47.3125 201.898 48.37 204.448 49.2771C208.398 50.5224 210.262 52.3067 210.051 54.6809C209.936 55.5238 209.708 56.215 209.197 56.8681H218.809C217.402 55.2756 216.672 54.3646 216.758 51.5073C217.811 45.5764 222.739 41.3086 231.066 40.1658C236.461 39.6654 241.249 40.7059 245.824 42.907L239.553 55.5257C239.187 56.3126 239.365 56.9243 240.26 56.9437H247.333C248.076 56.944 248.57 56.394 249.03 55.5257L261.243 29.6523C262.899 26.4651 269.605 27.7387 267.825 32.3488L263.876 41.0676C265.921 40.1212 267.966 39.7881 270.011 39.9639C274.733 40.1816 279.785 42.9076 278.976 49.65C278.621 52.5207 276.828 55.064 274.25 56.9008H286.331C284.754 55.6172 283.826 53.2063 284.095 50.661C285.622 44.2219 292.049 40.2703 300.538 40.049C305.276 40.2784 309.722 40.889 313.123 42.8588L307.007 55.1199C306.511 56.2036 306.663 56.9726 307.864 57.0175H315.146C316.289 56.9786 316.9 56.058 317.466 54.7909L328.776 30.4414C330.446 26.0349 337.427 27.4941 335.435 32.4404L331.199 42.1589C333.771 40.5994 336.189 40.1599 339.19 40.2268C343.641 40.5865 346.224 42.7986 344.714 46.8415L341.008 55.1131C340.585 56.0407 340.803 56.8482 341.593 56.8216H352.842C351.125 54.9986 350.256 52.9476 350.407 50.6217C350.634 44.6474 357.451 40.5725 365.673 40.4601C368.537 40.4489 370.478 41.0583 372.714 41.9842C375.684 43.3477 373.28 47.2434 370.066 45.8794C364.062 43.6226 357.26 45.7381 356.944 50.9597C356.873 54.6811 359.65 56.6975 364.04 56.8869H378.289C378.841 56.8789 379.281 56.7761 379.399 56.3411C378.068 54.7992 377.25 52.9606 377.345 50.5931C377.919 44.6311 384.579 40.7213 392.519 40.4868C395.567 40.3164 398.509 40.8752 400.851 42.2496C402.593 43.3061 403.019 46.0207 401.481 47.1372L389.291 55.9409C388.809 56.2548 389.129 56.873 389.84 56.9349L408.939 56.9183C411.676 56.8957 411.606 61.6013 408.807 61.6529H390.154C387.963 61.6557 385.674 61.0969 384.131 59.6122C382.494 60.7765 380.791 61.6962 378.83 61.6529H362.197C359.978 61.6689 357.949 61.104 356.109 59.7749C354.615 61.1297 353.125 61.6378 351.632 61.6529H338.114C334.051 61.6047 332.001 58.8331 333.645 55.0536L336.78 47.7657C337.618 46.145 337.654 45.2736 336.15 45.2573C333.939 45.2332 328.972 46.4385 327.479 50.7986L323.918 57.9958C322.59 60.5764 320.36 61.581 317.365 61.6529H307.363C304.449 61.7431 302.379 60.9892 301.23 59.308C299.675 60.8593 297.291 61.7054 294.59 61.6529H260.23C257.782 61.5427 256.607 60.7346 255.565 58.9391C254.105 61.1867 252.144 61.6418 250.11 61.6529H239.449C237.229 61.6828 235.451 61.1321 233.901 59.1927C232.185 61.2513 230.047 61.6748 227.759 61.6529H197.725C194.958 61.6387 192.722 61.0075 190.98 59.3672C190.284 60.8079 189 61.6592 186.86 61.6529H178.331C176.333 61.4512 174.595 60.8008 173.41 59.1883C172.196 60.8867 170.433 61.6296 168.254 61.6529H149.836C146.835 61.3976 146.568 56.8117 150.482 56.9345ZM177.543 44.9841L172.986 53.6877C171.741 55.7799 170.316 57.163 167.861 57.1566C165.05 57.0266 163.041 54.9914 163.066 52.3113C163.535 46.6519 171.2 42.3308 177.543 44.9841ZM237.683 44.9841L233.127 53.6877C231.881 55.7799 230.456 57.163 228.002 57.1566C225.191 57.0266 223.181 54.9914 223.206 52.3113C223.675 46.6519 231.34 42.3308 237.683 44.9841ZM305.021 44.9841L300.465 53.6877C299.219 55.7799 297.795 57.163 295.341 57.1566C292.528 57.0266 290.519 54.9914 290.545 52.3113C291.013 46.6519 298.678 42.3308 305.021 44.9841ZM258.89 52.113L261.166 46.971C262.182 44.8788 264.962 44.1786 267.416 44.1851C270.227 44.3152 272.466 45.7174 272.212 49.0303C270.522 59.6757 256.076 59.1872 258.89 52.113ZM385.506 53.4153L395.172 45.9288C395.598 45.6685 395.631 44.9448 395.065 44.7676C392.267 43.9891 389.022 44.5609 386.798 45.9125C383.604 47.9514 382.256 51.7315 385.506 53.4153ZM195.326 63.1403H196.714C197.965 63.1403 198.702 64.0451 198.353 65.151L197.482 67.9114C197.132 69.0173 195.824 69.922 194.573 69.922H193.185C191.934 69.922 191.197 69.0173 191.546 67.9114L192.417 65.151C192.766 64.0451 194.075 63.1403 195.326 63.1403ZM360.507 63.1403H361.897C363.146 63.1403 363.883 64.0451 363.536 65.151L362.664 67.9114C362.314 69.0173 361.006 69.922 359.754 69.922H358.367C357.117 69.922 356.378 69.0173 356.728 67.9114L357.599 65.151C357.949 64.0451 359.258 63.1403 360.507 63.1403Z" fill="#070700"/>
</g>
</svg>
