<svg  viewBox="0 0 299 40" fill="none" xmlns="http://www.w3.org/2000/svg">
<g style="mix-blend-mode:luminosity">
<path d="M13.7577 22.7631L13.4586 21.6166C14.4057 21.0683 15.5023 20.3704 16.25 19.4732C19.3405 16.1335 19.5897 10.6503 17.9448 6.46322C17.0974 4.31981 15.0038 2.47549 12.9103 1.67794C10.8167 0.930245 8.42408 0.880395 6.03144 0.880395H0V39.2125H4.13727V22.464C5.83206 22.464 7.52684 22.464 9.17178 22.464L14.5552 39.2623H19.1411L13.7577 22.7631ZM4.08743 17.9778V5.36659C5.38344 5.36659 6.77914 5.36659 8.17485 5.36659C10.717 5.36659 13.1097 5.71553 14.1564 8.3574C14.9041 10.7999 15.0537 14.1895 13.2592 16.283C10.9164 18.6258 7.42715 17.7784 4.08743 17.9778ZM235.824 4.61889C233.681 1.32902 230.042 -0.714699 226.154 0.232387C223.313 0.780701 220.721 3.47242 219.525 6.0146C216.434 12.2953 216.235 19.872 217.281 27.0997C218.278 32.0844 220.521 38.2155 226.154 39.7109C228.946 40.3589 231.687 39.5614 233.731 37.7669C237.818 33.829 238.915 28.5951 239.363 23.1618C239.663 16.5322 239.114 9.95249 235.824 4.61889ZM235.127 22.3643C234.827 26.4517 234.329 30.4893 231.837 33.7792C230.59 35.2247 228.796 36.0223 226.902 35.5238C223.861 34.6266 222.615 31.3367 221.917 28.645C220.621 22.8129 220.571 16.0836 222.166 10.4011C222.914 8.00846 224.36 5.06751 227.101 4.46935C229.942 3.72165 232.435 6.21399 233.332 8.55678C235.077 12.6941 235.326 17.7784 235.127 22.3643ZM101.438 4.91798L88.1787 34.8758H101.338V39.2125H82.9448V35.474L96.2538 5.51614L96.1541 5.46629H84.3405V0.880395H101.438V4.91798ZM71.3804 5.36659H63.4049L63.3551 39.2125H59.1181V5.36659H51.1426V0.830553H71.4302V5.36659H71.3804ZM34.0951 0.830553H38.2324V39.2125H34.0951V0.830553ZM187.274 16.4326H198.938V0.830553H203.225V39.2125H198.938V21.0184H187.274V39.2125H183.037V0.830553H187.224L187.274 16.4326ZM164.344 28.2961V0.830553H168.531V39.3122H164.394L151.584 7.46015L151.534 39.3122H147.347V0.830553H153.179L164.344 28.2961ZM132.343 5.36659H119.482V16.9809H128.654V21.4671H119.482V34.826H133.09V39.3122H114.946V0.930245H132.343V5.36659ZM298.98 0.780704V5.21705H287.117V16.3827H296.039V20.9686H287.117L287.067 39.3122H282.88V0.780704H298.98ZM269.421 5.21705H257.508V16.3827H266.48V20.9686H257.508L257.458 39.3122H253.271L253.321 0.780704H269.471V5.21705H269.421Z" fill="black"/>
</g>
</svg>
