<svg width="166" height="47" viewBox="0 0 166 47" fill="none" xmlns="http://www.w3.org/2000/svg">
<path fill-rule="evenodd" clip-rule="evenodd" d="M32.592 0.37479H41.1085V45.7385H32.592V0.37479ZM61.7036 0.20166C53.6586 0.20166 47.1054 6.7585 47.1054 14.8035C47.1054 14.8588 47.1054 14.914 47.1054 14.973V45.7385H55.622V14.8035C55.622 11.4514 58.3515 8.71819 61.7036 8.71819C65.0557 8.71819 67.7852 11.4514 67.7852 14.8035V45.7385H76.3054V14.973H76.3018C76.3018 14.914 76.3054 14.8588 76.3054 14.8035C76.3054 6.7585 69.7486 0.20166 61.7036 0.20166ZM81.7756 0.20166C78.6703 0.20166 75.7897 1.17782 73.4175 2.84281C75.5098 5.00142 76.8875 7.33683 77.8084 10.1953C78.8766 9.27441 80.2616 8.71819 81.7756 8.71819C85.1277 8.71819 87.8609 11.4514 87.8609 14.8035V45.7385H96.3775V14.973H96.3738C96.3738 14.914 96.3775 14.8588 96.3775 14.8035C96.3775 6.7585 89.8206 0.20166 81.7756 0.20166ZM116.505 0.20166C108.46 0.20166 101.903 6.7585 101.903 14.8035C101.903 14.8588 101.907 14.914 101.907 14.973H101.903V45.7385H110.419V35.6012H120.818V27.0847H110.419V14.8035C110.419 11.4514 113.153 8.71819 116.505 8.71819C119.853 8.71819 122.586 11.4514 122.586 14.8035V45.7385H131.103V14.973C131.103 14.914 131.103 14.8588 131.103 14.8035C131.103 6.7585 124.546 0.20166 116.505 0.20166ZM150.228 27.3352C147.314 27.7846 145.071 30.3116 145.071 33.3505V45.7385H136.555V33.5826C136.555 33.5053 136.555 33.4279 136.555 33.3505C136.555 29.3391 138.183 25.6997 140.813 23.0585C138.183 20.4174 136.555 16.7743 136.555 12.7665C136.555 12.6891 136.555 12.6118 136.555 12.5344V0.37479H145.071V12.7665C145.071 15.8055 147.314 18.3324 150.228 18.7781H152.077C154.995 18.3324 157.238 15.8055 157.238 12.7665V0.37479H165.755V12.5528C165.755 12.6228 165.755 12.6965 165.755 12.7665C165.755 16.7743 164.123 20.4174 161.493 23.0585C164.123 25.6997 165.755 29.3391 165.755 33.3505C165.755 33.4205 165.755 33.4905 165.755 33.5642V45.7385H157.238V33.3505C157.238 30.3116 154.995 27.7846 152.077 27.3352H150.228ZM20.8044 20.0821C25.3721 22.0787 28.5106 26.2485 28.5106 31.7224C28.5106 39.5059 21.9611 46.0259 14.336 46.0259C6.71093 46.0259 0.511406 40.1873 0.0214844 32.8422H8.64482C9.10159 35.5718 11.3191 37.6604 14.336 37.6604C17.3529 37.6604 19.7178 35.1555 19.7178 31.9802C19.7178 30.2858 18.981 29.0996 17.8133 28.3592C14.767 26.4327 10.6929 27.7551 7.01667 25.7697C2.93522 23.5632 0.201982 19.4817 0.201982 14.3725C0.201982 6.58537 6.55253 0.238496 14.336 0.238496C21.7401 0.238496 27.8438 5.98126 28.4221 13.238H19.9904C19.4636 10.6005 17.1245 8.60399 14.336 8.60399C11.157 8.60399 8.56747 11.1936 8.56747 14.3725C8.56747 16.3249 9.54731 17.6988 11.0392 18.4687C13.8203 19.9053 17.585 18.6787 20.8044 20.0821Z" fill="#ED1C24"/>
</svg>
