<svg  viewBox="0 0 31 31" fill="none" xmlns="http://www.w3.org/2000/svg">
<path d="M29.5712 30.2279L27.2549 8.64757C27.2163 8.30012 26.9075 8.02989 26.56 8.02989H22.2748V6.71731C22.2748 3.01121 19.2636 0 15.5575 0C11.8514 0 8.84022 3.01121 8.84022 6.71731V8.02989H4.43922C4.09177 8.02989 3.78293 8.30012 3.74432 8.64757L1.42801 30.2279C1.38941 30.4209 1.46662 30.6139 1.58243 30.7684C1.69825 30.9228 1.89127 31 2.0843 31H28.9149C29.108 31 29.301 30.9228 29.4168 30.7684C29.5326 30.6139 29.6098 30.4209 29.5712 30.2279ZM21.5799 11.929C21.9274 11.929 22.1976 12.1993 22.1976 12.5467C22.1976 12.8941 21.9274 13.1644 21.5799 13.1644C21.2325 13.1644 20.9623 12.8941 20.9623 12.5467C20.9623 12.1993 21.2325 11.929 21.5799 11.929ZM10.23 6.71731C10.23 3.78331 12.6235 1.38979 15.5575 1.38979C18.4915 1.38979 20.885 3.78331 20.885 6.71731V8.02989H10.23V6.71731ZM9.53511 11.929C9.88256 11.929 10.1528 12.1993 10.1528 12.5467C10.1528 12.8941 9.88256 13.1644 9.53511 13.1644C9.18766 13.1644 8.91743 12.8941 8.91743 12.5467C8.91743 12.1993 9.18766 11.929 9.53511 11.929ZM2.89501 29.5716L5.0569 9.38107H8.84022V10.655C8.06811 10.9253 7.52764 11.6588 7.52764 12.5081C7.52764 13.589 8.41556 14.477 9.4965 14.477C10.5775 14.477 11.4654 13.589 11.4654 12.5081C11.4654 11.6588 10.9249 10.9253 10.1528 10.655V9.38107H20.8078V10.655C20.0357 10.9253 19.4953 11.6588 19.4953 12.5081C19.4953 13.589 20.3832 14.477 21.4641 14.477C22.5451 14.477 23.433 13.589 23.433 12.5081C23.433 11.6588 22.8925 10.9253 22.1204 10.655V9.38107H26.0581L28.22 29.5716H2.89501Z" fill="black"/>
</svg>
