<svg  viewBox="0 0 37 37" fill="none" xmlns="http://www.w3.org/2000/svg">
<g clip-path="url(#clip0)">
<path d="M19.483 0.771673C9.84248 0.346155 1.65384 7.84248 1.22833 17.483C0.80281 27.1235 8.29913 35.3121 17.9396 35.7376C27.5801 36.1631 35.7688 28.6668 36.1943 19.0263C36.6198 9.38582 29.1235 1.19719 19.483 0.771673ZM26.6268 27.6646C26.3302 27.9362 25.9509 28.0627 25.578 28.0462C25.205 28.0298 24.8381 27.8703 24.5668 27.5737L17.6037 19.9677C17.3417 19.6833 17.2052 19.3062 17.2223 18.9189L17.6403 9.44886C17.6759 8.64322 18.3571 8.02083 19.1614 8.05634C19.9658 8.09184 20.5895 8.77182 20.554 9.57746L20.1626 18.4443L26.7177 25.6046C27.2621 26.1996 27.2215 27.1202 26.6268 27.6646Z" fill="#F9E547"/>
</g>
<defs>
<clipPath id="clip0">
<rect width="35" height="35" fill="white" transform="translate(2) rotate(2.52731)"/>
</clipPath>
</defs>
</svg>
