<svg  viewBox="0 0 35 35" fill="none" xmlns="http://www.w3.org/2000/svg">
<path d="M0.730621 6.5048C5.53423 10.5729 13.9631 17.73 16.4404 19.9616C16.773 20.2628 17.1297 20.4159 17.5 20.4159C17.8695 20.4159 18.2256 20.2642 18.5574 19.9645C21.0369 17.7307 29.4658 10.5729 34.2694 6.5048C34.5685 6.25201 34.6141 5.80768 34.372 5.49862C33.8123 4.78447 32.9777 4.375 32.0833 4.375H2.91669C2.02234 4.375 1.18774 4.78447 0.628082 5.49869C0.385953 5.80768 0.431549 6.25201 0.730621 6.5048Z" fill="#F9E547"/>
<path d="M34.5771 8.7094C34.3186 8.58909 34.0145 8.63106 33.7995 8.81481C28.4724 13.3308 21.6735 19.1193 19.5344 21.0468C18.3338 22.1306 16.6675 22.1306 15.4641 21.0454C13.1841 18.9911 5.54914 12.5005 1.20053 8.81474C0.984033 8.63099 0.679287 8.59045 0.422939 8.70933C0.165225 8.82903 0 9.08681 0 9.37091V27.7083C0 29.317 1.30806 30.625 2.91669 30.625H32.0834C33.6919 30.625 35 29.317 35 27.7083V9.37091C35 9.08681 34.8348 8.82834 34.5771 8.7094Z" fill="#F9E547"/>
</svg>
