<svg  viewBox="0 0 35 35" fill="none" xmlns="http://www.w3.org/2000/svg">
<g clip-path="url(#clip0)">
<path d="M26.6095 23.1532C25.4661 22.0243 24.0386 22.0243 22.9024 23.1532C22.0357 24.0126 21.169 24.872 20.3169 25.746C20.0838 25.9863 19.8872 26.0373 19.6031 25.8771C19.0423 25.5712 18.4451 25.3236 17.9062 24.9886C15.3935 23.4081 13.2886 21.3761 11.4241 19.0892C10.4992 17.953 9.67617 16.7367 9.1008 15.3675C8.98427 15.0907 9.00612 14.9086 9.2319 14.6829C10.0986 13.8453 10.9434 12.9859 11.7956 12.1265C12.9827 10.932 12.9827 9.53366 11.7883 8.33194C11.111 7.64732 10.4336 6.97727 9.75629 6.29265C9.0571 5.59346 8.3652 4.887 7.65874 4.1951C6.51528 3.08077 5.08778 3.08077 3.9516 4.20238C3.07762 5.06179 2.24006 5.94306 1.35151 6.7879C0.528514 7.5672 0.113373 8.5213 0.0259749 9.63562C-0.112405 11.4491 0.331868 13.1607 0.958221 14.8285C2.24006 18.2807 4.19195 21.347 6.55898 24.1583C9.75629 27.9601 13.5727 30.968 18.0373 33.1384C20.0474 34.1144 22.1304 34.8645 24.3955 34.9883C25.9541 35.0757 27.3087 34.6824 28.3939 33.4662C29.1368 32.6359 29.9744 31.8784 30.7609 31.0846C31.9263 29.9047 31.9335 28.4772 30.7755 27.3119C29.3917 25.9208 28.0006 24.537 26.6095 23.1532Z" fill="#F9E547"/>
<path d="M25.2183 17.3485L27.9057 16.8897C27.4833 14.4207 26.318 12.1848 24.5482 10.4077C22.6764 8.53588 20.3094 7.35601 17.702 6.99185L17.3233 9.69391C19.3407 9.97795 21.1761 10.8883 22.6255 12.3377C23.9947 13.7069 24.8905 15.4403 25.2183 17.3485Z" fill="#F9E547"/>
<path d="M29.4207 5.66631C26.318 2.56368 22.3924 0.604503 18.0589 0L17.6802 2.70206C21.4237 3.22644 24.8177 4.92342 27.4979 7.59635C30.0397 10.1382 31.7076 13.3501 32.3121 16.8824L34.9996 16.4235C34.2931 12.3304 32.3631 8.61599 29.4207 5.66631Z" fill="#F9E547"/>
</g>
<defs>
<clipPath id="clip0">
<rect width="35" height="35" fill="white"/>
</clipPath>
</defs>
</svg>
