<svg  viewBox="0 0 26 26" fill="none" xmlns="http://www.w3.org/2000/svg">
<path d="M19.0695 2.1623C17.1244 1.02701 14.9999 0.459473 12.6965 0.459473C10.3929 0.459473 8.26849 1.02701 6.32332 2.1623C4.37816 3.29764 2.8379 4.83789 1.70283 6.78279C0.567537 8.72817 0 10.8526 0 13.156C0 15.724 0.699556 18.055 2.09946 20.1488C3.4991 22.2432 5.33399 23.7914 7.60462 24.7941C7.56033 23.6149 7.63202 22.6397 7.81955 21.8682L9.45613 14.9579C9.18056 14.418 9.04289 13.7458 9.04289 12.941C9.04289 12.0043 9.27983 11.2215 9.75371 10.5936C10.2273 9.96519 10.8061 9.65095 11.4896 9.65095C12.0404 9.65095 12.4649 9.8326 12.7626 10.1967C13.0601 10.5603 13.2091 11.0178 13.2091 11.5688C13.2091 11.9106 13.1455 12.3268 13.0191 12.817C12.8921 13.3075 12.7268 13.875 12.5232 14.5199C12.3192 15.1644 12.1733 15.6796 12.085 16.0655C11.9304 16.7377 12.0574 17.3135 12.4652 17.793C12.8728 18.2725 13.413 18.5121 14.0854 18.5121C15.2647 18.5121 16.2318 17.8566 16.9869 16.545C17.7418 15.2334 18.1193 13.6408 18.1193 11.767C18.1193 10.3234 17.6538 9.14935 16.7224 8.24565C15.791 7.34217 14.493 6.89004 12.8291 6.89004C10.9663 6.89004 9.45907 7.48818 8.30764 8.68358C7.15595 9.87956 6.58008 11.3098 6.58008 12.9734C6.58008 13.9654 6.8613 14.7978 7.42319 15.47C7.61049 15.6905 7.67113 15.9273 7.6051 16.1806C7.58283 16.2469 7.53885 16.4121 7.47282 16.6764C7.40683 16.9408 7.36255 17.112 7.34054 17.1889C7.25223 17.5418 7.04296 17.6521 6.7121 17.5196C5.86338 17.1669 5.21854 16.5554 4.77794 15.6846C4.33707 14.8141 4.11675 13.8058 4.11675 12.6595C4.11675 11.921 4.23509 11.1825 4.47203 10.4441C4.70897 9.70562 5.07793 8.99212 5.57974 8.303C6.08099 7.61472 6.6818 7.00535 7.38188 6.47644C8.0817 5.94727 8.93314 5.52333 9.93615 5.20317C10.9389 4.88384 12.0193 4.72394 13.1765 4.72394C14.7415 4.72394 16.1468 5.07115 17.3921 5.76531C18.6374 6.45978 19.5881 7.35818 20.2439 8.46019C20.8995 9.56225 21.2277 10.7413 21.2277 11.9982C21.2277 13.6514 20.9409 15.1393 20.368 16.462C19.7948 17.7846 18.9847 18.8233 17.9376 19.5781C16.8903 20.333 15.7 20.7105 14.3666 20.7105C13.6942 20.7105 13.066 20.5535 12.4819 20.2393C11.8974 19.9251 11.4952 19.5532 11.2749 19.1233C10.779 21.0738 10.4814 22.2371 10.3821 22.6114C10.1726 23.3941 9.7427 24.2976 9.09252 25.3226C10.2718 25.6753 11.4732 25.8515 12.6965 25.8515C14.9999 25.8515 17.1244 25.284 19.0695 24.149C21.0146 23.0136 22.5549 21.4734 23.6902 19.5279C24.8253 17.5827 25.3931 15.4586 25.3931 13.1549C25.3931 10.8513 24.8253 8.72717 23.6902 6.78174C22.5551 4.83789 21.0146 3.29764 19.0695 2.1623Z" fill="#5A5C5E"/>
</svg>
